<svg width="80" height="80" viewBox="0 0 80 80" fill="none" xmlns="http://www.w3.org/2000/svg">
<rect x="5.21541e-07" y="-1.7684" width="29.6255" height="29.6255" rx="1.75" transform="matrix(-0.706851 -0.707362 0.706852 -0.707362 41.4902 59.6965)" stroke="black" stroke-width="2.5"/>
<mask id="path-2-inside-1_4332_32381" fill="white">
<rect width="16.0627" height="16.0627" rx="2" transform="matrix(-0.706851 -0.707362 0.706852 -0.707362 40.2393 51.3545)"/>
</mask>
<rect width="16.0627" height="16.0627" rx="2" transform="matrix(-0.706851 -0.707362 0.706852 -0.707362 40.2393 51.3545)" fill="#51D9B8" stroke="black" stroke-width="5" mask="url(#path-2-inside-1_4332_32381)"/>
<path d="M32.2246 54.2715L26.6881 58.5939C25.9599 59.1625 25.5342 60.0348 25.5342 60.9586L25.5342 69.001" stroke="black" stroke-width="2.5"/>
<path fill-rule="evenodd" clip-rule="evenodd" d="M20.325 71.7877C20.325 68.909 22.657 66.5753 25.5336 66.5753C28.4102 66.5753 30.7422 68.909 30.7422 71.7877C30.7422 74.6664 28.4102 77 25.5336 77C22.657 77 20.325 74.6664 20.325 71.7877ZM25.5336 69.1096C24.0556 69.1096 22.8575 70.3086 22.8575 71.7877C22.8575 73.2667 24.0556 74.4658 25.5336 74.4658C27.0116 74.4658 28.2098 73.2667 28.2098 71.7877C28.2098 70.3086 27.0116 69.1096 25.5336 69.1096Z" fill="black"/>
<path d="M32.2246 26.3174L26.6881 21.9949C25.9599 21.4264 25.5342 20.5541 25.5342 19.6302L25.5342 11.5879" stroke="black" stroke-width="2.5"/>
<path fill-rule="evenodd" clip-rule="evenodd" d="M20.325 8.90974C20.325 6.03105 22.657 3.69741 25.5336 3.69741C28.4102 3.69741 30.7422 6.03105 30.7422 8.90974C30.7422 11.7884 28.4102 14.1221 25.5336 14.1221C22.657 14.1221 20.325 11.7884 20.325 8.90974ZM25.5336 6.23165C24.0556 6.23165 22.8575 7.43067 22.8575 8.90974C22.8575 10.3888 24.0556 11.5878 25.5336 11.5878C27.0116 11.5878 28.2098 10.3888 28.2098 8.90974C28.2098 7.43067 27.0116 6.23165 25.5336 6.23165Z" fill="#6237DE"/>
<path d="M48.6152 26.3174L54.1518 21.9949C54.88 21.4264 55.3056 20.5541 55.3056 19.6302L55.3056 11.5879" stroke="black" stroke-width="2.5"/>
<path fill-rule="evenodd" clip-rule="evenodd" d="M50.0965 8.21247C50.0965 5.33378 52.4285 3.00015 55.3051 3.00015C58.1817 3.00015 60.5137 5.33379 60.5137 8.21248C60.5137 11.0912 58.1817 13.4248 55.3051 13.4248C52.4285 13.4248 50.0965 11.0912 50.0965 8.21247ZM55.3051 5.53439C53.8271 5.53439 52.6289 6.73341 52.6289 8.21247C52.6289 9.69154 53.8271 10.8906 55.3051 10.8906C56.7831 10.8906 57.9813 9.69154 57.9813 8.21248C57.9813 6.73341 56.7831 5.53439 55.3051 5.53439Z" fill="black"/>
<path d="M48.6152 54.0322L54.1518 58.3547C54.88 58.9232 55.3056 59.7955 55.3056 60.7194L55.3056 68.7617" stroke="black" stroke-width="2.5"/>
<path fill-rule="evenodd" clip-rule="evenodd" d="M50.0965 71.7877C50.0965 68.909 52.4285 66.5753 55.3051 66.5753C58.1817 66.5753 60.5137 68.909 60.5137 71.7877C60.5137 74.6664 58.1817 77 55.3051 77C52.4285 77 50.0965 74.6664 50.0965 71.7877ZM55.3051 69.1096C53.8271 69.1096 52.6289 70.3086 52.6289 71.7877C52.6289 73.2667 53.8271 74.4658 55.3051 74.4658C56.7831 74.4658 57.9813 73.2667 57.9813 71.7877C57.9813 70.3086 56.7831 69.1096 55.3051 69.1096Z" fill="#6237DE"/>
<path d="M55.7584 44.3115L58.9376 50.5761C59.3561 51.4006 60.1313 51.9863 61.0388 52.1633L68.9245 53.7023" stroke="black" stroke-width="2.5"/>
<path fill-rule="evenodd" clip-rule="evenodd" d="M72.8885 49.1659C70.0651 48.6149 67.3299 50.4587 66.7793 53.2842C66.2287 56.1096 68.0711 58.8468 70.8946 59.3978C73.718 59.9488 76.4532 58.105 77.0038 55.2796C77.5544 52.4541 75.7119 49.7169 72.8885 49.1659ZM69.2649 53.7693C69.5478 52.3175 70.9531 51.3702 72.4038 51.6533C73.8544 51.9364 74.8011 53.3428 74.5182 54.7945C74.2353 56.2462 72.83 57.1935 71.3793 56.9104C69.9286 56.6273 68.982 55.221 69.2649 53.7693Z" fill="black"/>
<path d="M55.7584 35.9971L58.9376 29.7325C59.3561 28.908 60.1313 28.3223 61.0388 28.1452L68.9245 26.6063" stroke="black" stroke-width="2.5"/>
<path fill-rule="evenodd" clip-rule="evenodd" d="M72.8885 31.1427C70.0651 31.6937 67.3299 29.8499 66.7793 27.0244C66.2287 24.1989 68.0711 21.4618 70.8946 20.9108C73.718 20.3598 76.4532 22.2036 77.0038 25.029C77.5544 27.8545 75.7119 30.5917 72.8885 31.1427Z" fill="#51D9B8"/>
<path d="M24.2426 44.3115L21.0633 50.5761C20.6449 51.4006 19.8697 51.9863 18.9622 52.1633L11.0765 53.7023" stroke="black" stroke-width="2.5"/>
<path fill-rule="evenodd" clip-rule="evenodd" d="M7.11247 49.1659C9.9359 48.6149 12.6711 50.4587 13.2217 53.2842C13.7723 56.1096 11.9298 58.8468 9.10641 59.3978C6.28298 59.9488 3.54778 58.105 2.99717 55.2796C2.44657 52.4541 4.28905 49.7169 7.11247 49.1659Z" fill="#6237DE"/>
<path d="M24.2426 35.9971L21.0633 29.7325C20.6449 28.908 19.8697 28.3223 18.9622 28.1452L11.0765 26.6063" stroke="black" stroke-width="2.5"/>
<path fill-rule="evenodd" clip-rule="evenodd" d="M7.11247 31.1427C9.9359 31.6937 12.6711 29.8499 13.2217 27.0244C13.7723 24.1989 11.9298 21.4618 9.10641 20.9108C6.28298 20.3598 3.54778 22.2036 2.99717 25.029C2.44656 27.8545 4.28905 30.5917 7.11247 31.1427ZM10.7361 26.5393C10.4532 27.9911 9.04787 28.9384 7.5972 28.6553C6.14653 28.3722 5.19986 26.9658 5.48276 25.5141C5.76567 24.0624 7.17101 23.115 8.62168 23.3982C10.0724 23.6813 11.019 25.0876 10.7361 26.5393Z" fill="black"/>
</svg>
