<svg width="80" height="80" viewBox="0 0 80 80" fill="none" xmlns="http://www.w3.org/2000/svg">
<ellipse cx="58.1077" cy="63.7996" rx="11.1429" ry="11.2" fill="#6237DE"/>
<rect x="6.57129" y="10.5996" width="52.9286" height="53.2" rx="4" stroke="black" stroke-width="2.5"/>
<path d="M12.1426 18.6348H22.3165" stroke="black" stroke-width="2.5"/>
<path d="M12.1426 23.748L35.8817 23.748" stroke="black" stroke-width="2.5"/>
<path d="M12.1426 52.3567L24.703 39.6959L34.9083 49.9828L54.5339 30.2002" stroke="black" stroke-width="2.5"/>
<ellipse cx="6.57144" cy="10.6" rx="5.57144" ry="5.6" fill="black"/>
<path d="M39.7366 32.4635C39.4069 32.1361 39.1254 31.8445 38.8959 31.6004C39.1254 31.3563 39.4069 31.0647 39.7366 30.7373C40.7618 29.7191 42.2459 28.3611 44.0772 27.0049C47.7674 24.2721 52.7271 21.6504 58.1068 21.6504C63.4864 21.6504 68.4461 24.2721 72.1363 27.0049C73.9676 28.3611 75.4517 29.7191 76.4769 30.7373C76.8066 31.0647 77.0881 31.3563 77.3176 31.6004C77.0881 31.8445 76.8066 32.1361 76.4769 32.4635C75.4517 33.4817 73.9676 34.8397 72.1363 36.1959C68.4461 38.9287 63.4864 41.5504 58.1068 41.5504C52.7271 41.5504 47.7674 38.9287 44.0772 36.1959C42.2459 34.8397 40.7618 33.4817 39.7366 32.4635Z" fill="white" stroke="black" stroke-width="2.5"/>
<path d="M68.0006 31.6004C68.0006 37.1017 63.5654 41.5504 58.1077 41.5504C52.6501 41.5504 48.2148 37.1017 48.2148 31.6004C48.2148 26.0991 52.6501 21.6504 58.1077 21.6504C63.5654 21.6504 68.0006 26.0991 68.0006 31.6004Z" fill="#51D9B8" stroke="black" stroke-width="2.5"/>
</svg>
