<svg width="327" height="815" viewBox="0 0 327 815" fill="none" xmlns="http://www.w3.org/2000/svg">
<path d="M5.016 25V17.56H12.792V25H15.864V7.456H12.792V14.704H5.016V7.456H1.944V25H5.016ZM18.6285 19.048C18.6285 22.744 21.2925 25.288 24.9645 25.288C28.6365 25.288 31.3005 22.744 31.3005 19.048C31.3005 15.352 28.6365 12.808 24.9645 12.808C21.2925 12.808 18.6285 15.352 18.6285 19.048ZM21.5565 19.048C21.5565 16.888 22.9485 15.424 24.9645 15.424C26.9805 15.424 28.3725 16.888 28.3725 19.048C28.3725 21.208 26.9805 22.672 24.9645 22.672C22.9485 22.672 21.5565 21.208 21.5565 19.048ZM35.6514 25H38.5074L40.1394 19.912C40.7394 17.968 40.9554 17.128 41.0754 16.576C41.1714 17.176 41.4354 18.304 41.9154 19.864L43.5474 25H46.2834L50.3874 13.144H47.2914L45.7074 18.232C45.4914 18.976 45.1074 20.392 44.9154 21.28C44.7714 20.488 44.2914 18.712 44.1474 18.232L42.5634 13.144H39.5874L37.9554 18.232C37.5714 19.408 37.3554 20.152 37.1394 21.304C36.9234 20.2 36.6834 19.168 36.4194 18.232L34.8594 13.144H31.8114L35.6514 25ZM60.0932 10.768C61.0532 10.768 61.8452 9.976 61.8452 8.992C61.8452 8.008 61.0532 7.24 60.0932 7.24C59.0852 7.24 58.2932 8.008 58.2932 8.992C58.2932 9.976 59.0852 10.768 60.0932 10.768ZM58.6292 25H61.5572V13.144H58.6292V25ZM68.6143 25V15.592H70.9183V13.144H68.6143V9.448H65.6863V13.144H63.4063V15.592H65.6863V25H68.6143ZM81.8233 25H84.6793L86.3113 19.912C86.9113 17.968 87.1273 17.128 87.2473 16.576C87.3433 17.176 87.6073 18.304 88.0873 19.864L89.7193 25H92.4553L96.5593 13.144H93.4633L91.8793 18.232C91.6633 18.976 91.2793 20.392 91.0873 21.28C90.9433 20.488 90.4633 18.712 90.3193 18.232L88.7353 13.144H85.7593L84.1273 18.232C83.7433 19.408 83.5273 20.152 83.3113 21.304C83.0953 20.2 82.8553 19.168 82.5913 18.232L81.0313 13.144H77.9833L81.8233 25ZM97.0504 19.048C97.0504 22.744 99.7144 25.288 103.386 25.288C107.058 25.288 109.722 22.744 109.722 19.048C109.722 15.352 107.058 12.808 103.386 12.808C99.7144 12.808 97.0504 15.352 97.0504 19.048ZM99.9784 19.048C99.9784 16.888 101.37 15.424 103.386 15.424C105.402 15.424 106.794 16.888 106.794 19.048C106.794 21.208 105.402 22.672 103.386 22.672C101.37 22.672 99.9784 21.208 99.9784 19.048ZM119.483 13.096C119.003 12.976 118.595 12.928 118.187 12.928C116.603 12.928 115.475 13.72 114.971 14.896L114.803 13.168H112.043V25H114.971V19.24C114.971 16.936 116.291 15.808 118.403 15.808H119.483V13.096ZM124.417 25V21.808L126.145 20.008L129.241 25H132.601L128.185 17.848L132.697 13.144H129.025L124.417 18.112V7.144H121.513V25H124.417ZM133.444 21.4C133.444 23.728 135.316 25.312 138.268 25.312C141.196 25.312 143.236 23.824 143.236 21.424C143.236 19.6 142.228 18.688 140.236 18.232L138.1 17.728C137.092 17.488 136.564 17.056 136.564 16.384C136.564 15.496 137.236 14.968 138.388 14.968C139.516 14.968 140.188 15.616 140.212 16.624H142.996C142.972 14.32 141.172 12.784 138.508 12.784C135.772 12.784 133.804 14.176 133.804 16.504C133.804 18.4 134.836 19.408 136.972 19.888L139.108 20.392C140.164 20.632 140.476 21.064 140.476 21.664C140.476 22.528 139.732 23.08 138.364 23.08C137.02 23.08 136.252 22.432 136.228 21.4H133.444Z" fill="black"/>
<rect x="92" y="81" width="164" height="224" fill="black"/>
<rect x="85" y="90" width="162" height="222" fill="white"/>
<path d="M100.66 113.704C100.66 116.38 101.944 118.156 104.104 118.156C106.252 118.156 107.536 116.38 107.536 113.704C107.536 111.04 106.228 109.24 104.104 109.24C101.968 109.24 100.66 111.04 100.66 113.704ZM101.512 113.704C101.512 111.46 102.46 110.032 104.104 110.032C105.748 110.032 106.696 111.46 106.696 113.704C106.696 115.936 105.748 117.376 104.104 117.376C102.46 117.376 101.512 115.936 101.512 113.704ZM109.823 112.3C109.019 113.404 108.743 114.1 108.743 115.096C108.743 116.812 110.099 118.144 111.827 118.144C113.543 118.144 114.875 116.86 114.875 115.096C114.875 113.416 113.687 112.108 111.899 112.108C111.503 112.108 111.131 112.192 110.723 112.396L112.979 109.408H111.971L109.823 112.3ZM109.619 115.108C109.619 113.8 110.519 112.864 111.827 112.864C113.099 112.864 114.011 113.8 114.011 115.108C114.011 116.416 113.099 117.364 111.827 117.364C110.519 117.364 109.619 116.416 109.619 115.108ZM117.114 113.536C117.522 113.536 117.87 113.188 117.87 112.792C117.87 112.384 117.522 112.048 117.114 112.048C116.706 112.048 116.358 112.384 116.358 112.792C116.358 113.188 116.706 113.536 117.114 113.536ZM117.114 118.132C117.522 118.132 117.87 117.796 117.87 117.4C117.87 116.992 117.522 116.644 117.114 116.644C116.706 116.644 116.358 116.992 116.358 117.4C116.358 117.796 116.706 118.132 117.114 118.132ZM119.469 113.704C119.469 116.38 120.753 118.156 122.913 118.156C125.061 118.156 126.345 116.38 126.345 113.704C126.345 111.04 125.037 109.24 122.913 109.24C120.777 109.24 119.469 111.04 119.469 113.704ZM120.321 113.704C120.321 111.46 121.269 110.032 122.913 110.032C124.557 110.032 125.505 111.46 125.505 113.704C125.505 115.936 124.557 117.376 122.913 117.376C121.269 117.376 120.321 115.936 120.321 113.704ZM127.66 113.704C127.66 116.38 128.944 118.156 131.104 118.156C133.252 118.156 134.536 116.38 134.536 113.704C134.536 111.04 133.228 109.24 131.104 109.24C128.968 109.24 127.66 111.04 127.66 113.704ZM128.512 113.704C128.512 111.46 129.46 110.032 131.104 110.032C132.748 110.032 133.696 111.46 133.696 113.704C133.696 115.936 132.748 117.376 131.104 117.376C129.46 117.376 128.512 115.936 128.512 113.704ZM139.564 118L140.404 115.72H144.364L145.204 118H146.104L142.912 109.408H141.844L138.688 118H139.564ZM142.264 110.62C142.312 110.5 142.36 110.344 142.372 110.272C142.384 110.356 142.444 110.5 142.48 110.62L144.088 114.964H140.668L142.264 110.62ZM148.15 118V113.788C148.15 112.48 148.126 111.532 148.078 111.208L150.874 118H151.702L154.498 111.172C154.45 111.76 154.426 112.42 154.426 113.92V118H155.278V109.408H154.414L151.282 116.98L148.15 109.408H147.298V118H148.15Z" fill="black"/>
<path d="M164.26 115.216H167.74V114.472H164.26V115.216Z" fill="black"/>
<path d="M177.711 113.704C177.711 116.38 178.995 118.156 181.155 118.156C183.303 118.156 184.587 116.38 184.587 113.704C184.587 111.04 183.279 109.24 181.155 109.24C179.019 109.24 177.711 111.04 177.711 113.704ZM178.563 113.704C178.563 111.46 179.511 110.032 181.155 110.032C182.799 110.032 183.747 111.46 183.747 113.704C183.747 115.936 182.799 117.376 181.155 117.376C179.511 117.376 178.563 115.936 178.563 113.704ZM186.874 112.3C186.07 113.404 185.794 114.1 185.794 115.096C185.794 116.812 187.15 118.144 188.878 118.144C190.594 118.144 191.926 116.86 191.926 115.096C191.926 113.416 190.738 112.108 188.95 112.108C188.554 112.108 188.182 112.192 187.774 112.396L190.03 109.408H189.022L186.874 112.3ZM186.67 115.108C186.67 113.8 187.57 112.864 188.878 112.864C190.15 112.864 191.062 113.8 191.062 115.108C191.062 116.416 190.15 117.364 188.878 117.364C187.57 117.364 186.67 116.416 186.67 115.108ZM194.165 113.536C194.573 113.536 194.921 113.188 194.921 112.792C194.921 112.384 194.573 112.048 194.165 112.048C193.757 112.048 193.409 112.384 193.409 112.792C193.409 113.188 193.757 113.536 194.165 113.536ZM194.165 118.132C194.573 118.132 194.921 117.796 194.921 117.4C194.921 116.992 194.573 116.644 194.165 116.644C193.757 116.644 193.409 116.992 193.409 117.4C193.409 117.796 193.757 118.132 194.165 118.132ZM198.895 113.392C200.431 113.392 201.271 114.124 201.271 115.3C201.271 116.548 200.443 117.364 199.159 117.364C197.947 117.364 197.179 116.62 197.179 115.384H196.327C196.327 117.1 197.467 118.144 199.159 118.144C200.899 118.144 202.147 117.028 202.147 115.324C202.147 113.764 200.995 112.744 199.387 112.66L201.955 110.104V109.408H196.747V110.176H200.863L198.211 112.792V113.392H198.895ZM203.34 113.704C203.34 116.38 204.624 118.156 206.784 118.156C208.932 118.156 210.216 116.38 210.216 113.704C210.216 111.04 208.908 109.24 206.784 109.24C204.648 109.24 203.34 111.04 203.34 113.704ZM204.192 113.704C204.192 111.46 205.14 110.032 206.784 110.032C208.428 110.032 209.376 111.46 209.376 113.704C209.376 115.936 208.428 117.376 206.784 117.376C205.14 117.376 204.192 115.936 204.192 113.704ZM215.243 118L216.083 115.72H220.043L220.883 118H221.783L218.591 109.408H217.523L214.367 118H215.243ZM217.943 110.62C217.991 110.5 218.039 110.344 218.051 110.272C218.063 110.356 218.123 110.5 218.159 110.62L219.767 114.964H216.347L217.943 110.62ZM223.83 118V113.788C223.83 112.48 223.806 111.532 223.758 111.208L226.554 118H227.382L230.178 111.172C230.13 111.76 230.106 112.42 230.106 113.92V118H230.958V109.408H230.094L226.962 116.98L223.83 109.408H222.978V118H223.83Z" fill="black"/>
<path d="M100 137H232" stroke="#E3E7ED" stroke-linecap="round" stroke-linejoin="round"/>
<path d="M151.96 173.627C151.569 174.017 151.569 174.65 151.96 175.041C152.35 175.431 152.984 175.431 153.374 175.041L151.96 173.627ZM160.667 166.334L161.374 165.627C160.984 165.236 160.35 165.236 159.96 165.627L160.667 166.334ZM168.667 174.334L167.96 175.041C168.35 175.431 168.984 175.431 169.374 175.041L168.667 174.334ZM179.334 163.667H180.334C180.334 163.115 179.886 162.667 179.334 162.667V163.667ZM174 162.667C173.448 162.667 173 163.115 173 163.667C173 164.219 173.448 164.667 174 164.667V162.667ZM178.334 169C178.334 169.553 178.781 170 179.334 170C179.886 170 180.334 169.553 180.334 169H178.334ZM153.374 175.041L161.374 167.041L159.96 165.627L151.96 173.627L153.374 175.041ZM159.96 167.041L167.96 175.041L169.374 173.627L161.374 165.627L159.96 167.041ZM169.374 175.041L180.041 164.374L178.627 162.96L167.96 173.627L169.374 175.041ZM179.334 162.667H174V164.667H179.334V162.667ZM178.334 163.667V169H180.334V163.667H178.334Z" fill="#3ED59F"/>
<path d="M157.61 198.262C157.61 200.67 159.178 202.168 161.656 202.168C164.148 202.168 165.716 200.656 165.716 198.262V191.766H163.924V198.15C163.924 199.606 163.112 200.432 161.656 200.432C160.2 200.432 159.402 199.62 159.402 198.15V191.766H157.61V198.262ZM167.668 205.206H169.376V201.076C169.81 201.776 170.706 202.182 171.742 202.182C173.8 202.182 174.976 200.614 174.976 198.458C174.976 196.288 173.688 194.874 171.742 194.874C170.692 194.874 169.782 195.336 169.362 196.134L169.25 195.084H167.668V205.206ZM169.39 198.542C169.39 197.296 170.16 196.428 171.336 196.428C172.54 196.428 173.254 197.31 173.254 198.542C173.254 199.774 172.54 200.642 171.336 200.642C170.16 200.642 169.39 199.788 169.39 198.542Z" fill="black"/>
<path d="M119.614 228.932C121.042 228.932 121.714 229.688 121.714 230.724C121.714 231.858 120.972 232.586 119.852 232.586C118.76 232.586 118.032 231.914 118.032 230.738H116.268C116.268 232.95 117.822 234.182 119.824 234.182C121.896 234.182 123.534 232.852 123.534 230.752C123.534 228.946 122.316 227.798 120.748 227.49L123.24 225.194V223.766H116.744V225.348H121L118.368 227.77V228.932H119.614ZM126.017 226.776C124.869 228.33 124.463 229.226 124.463 230.458C124.463 232.558 126.115 234.182 128.327 234.182C130.511 234.182 132.135 232.656 132.135 230.472C132.135 228.4 130.707 226.916 128.593 226.916C128.341 226.916 128.075 226.958 127.823 227.028L130.273 223.766H128.229L126.017 226.776ZM126.297 230.472C126.297 229.24 127.109 228.386 128.327 228.386C129.503 228.386 130.329 229.24 130.329 230.472C130.329 231.718 129.489 232.586 128.327 232.586C127.123 232.586 126.297 231.718 126.297 230.472ZM136.716 234.168C138.998 234.168 140.552 232.656 140.552 230.444C140.552 228.428 139.194 227.042 137.15 227.042C136.45 227.042 135.834 227.224 135.344 227.546L135.89 225.418H139.936V223.766H134.602L133.342 229.128L134.924 229.464C135.288 228.932 136.002 228.54 136.786 228.54C138.018 228.54 138.732 229.352 138.732 230.542C138.732 231.788 137.962 232.572 136.758 232.572C135.624 232.572 134.938 231.886 134.938 230.724H133.16C133.16 232.796 134.574 234.168 136.716 234.168ZM147.561 230.99C148.709 229.436 149.115 228.54 149.115 227.308C149.115 225.208 147.463 223.584 145.251 223.584C143.067 223.584 141.443 225.11 141.443 227.294C141.443 229.366 142.871 230.85 144.985 230.85C145.237 230.85 145.503 230.808 145.755 230.738L143.305 234H145.349L147.561 230.99ZM147.281 227.294C147.281 228.526 146.469 229.38 145.251 229.38C144.075 229.38 143.249 228.526 143.249 227.294C143.249 226.048 144.075 225.18 145.251 225.18C146.455 225.18 147.281 226.048 147.281 227.294ZM152.187 225.376V234H153.909V223.766H149.947V225.376H152.187ZM157.079 234.168C157.695 234.168 158.213 233.664 158.213 233.062C158.213 232.446 157.695 231.942 157.079 231.942C156.463 231.942 155.945 232.446 155.945 233.062C155.945 233.664 156.463 234.168 157.079 234.168ZM160.757 226.776C159.609 228.33 159.203 229.226 159.203 230.458C159.203 232.558 160.855 234.182 163.067 234.182C165.251 234.182 166.875 232.656 166.875 230.472C166.875 228.4 165.447 226.916 163.333 226.916C163.081 226.916 162.815 226.958 162.563 227.028L165.013 223.766H162.969L160.757 226.776ZM161.037 230.472C161.037 229.24 161.849 228.386 163.067 228.386C164.243 228.386 165.069 229.24 165.069 230.472C165.069 231.718 164.229 232.586 163.067 232.586C161.863 232.586 161.037 231.718 161.037 230.472ZM171.103 228.932C172.531 228.932 173.203 229.688 173.203 230.724C173.203 231.858 172.461 232.586 171.341 232.586C170.249 232.586 169.521 231.914 169.521 230.738H167.757C167.757 232.95 169.311 234.182 171.313 234.182C173.385 234.182 175.023 232.852 175.023 230.752C175.023 228.946 173.805 227.798 172.237 227.49L174.729 225.194V223.766H168.233V225.348H172.489L169.857 227.77V228.932H171.103ZM180.285 230.262C180.285 232.67 181.853 234.168 184.331 234.168C186.823 234.168 188.391 232.656 188.391 230.262V223.766H186.599V230.15C186.599 231.606 185.787 232.432 184.331 232.432C182.875 232.432 182.077 231.62 182.077 230.15V223.766H180.285V230.262ZM190.007 226.622C190.007 228.19 190.917 229.184 192.653 229.562L194.277 229.926C195.117 230.108 195.467 230.514 195.467 231.2C195.467 232.054 194.711 232.572 193.521 232.572C192.373 232.572 191.673 232.054 191.659 231.186H189.867C189.909 233.02 191.337 234.182 193.521 234.182C195.775 234.182 197.259 232.95 197.259 231.046C197.259 229.52 196.405 228.624 194.655 228.246L193.045 227.896C192.191 227.7 191.799 227.294 191.799 226.566C191.799 225.712 192.513 225.18 193.619 225.18C194.627 225.18 195.257 225.698 195.299 226.58H197.091C197.035 224.732 195.719 223.584 193.647 223.584C191.491 223.584 190.007 224.83 190.007 226.622ZM202.562 234C205.53 234 207.574 231.914 207.574 228.904C207.574 225.852 205.488 223.766 202.464 223.766H198.88V234H202.562ZM202.296 225.418C204.41 225.418 205.684 226.734 205.684 228.904C205.684 231.032 204.438 232.348 202.394 232.348H200.672V225.418H202.296ZM207.992 225.418H210.988V234H212.78V225.418H215.776V223.766H207.992V225.418Z" fill="#7D838D"/>
<path d="M100 257H232V297H100V257Z" fill="#EEF1F4"/>
<path d="M131 277L134.783 281L143 273" stroke="#51D9B8" stroke-width="2" stroke-linecap="square"/>
<path d="M162.46 282.168C164.882 282.168 166.758 280.74 167.15 278.584H165.288C164.952 279.718 163.888 280.446 162.502 280.446C160.626 280.446 159.422 279.046 159.422 276.876C159.422 274.692 160.612 273.32 162.502 273.32C163.86 273.32 164.882 274.02 165.232 275.21H167.122C166.772 273.012 164.966 271.598 162.544 271.598C159.548 271.598 157.546 273.712 157.546 276.89C157.546 280.096 159.478 282.168 162.46 282.168ZM168.099 278.528C168.099 280.684 169.653 282.168 171.795 282.168C173.937 282.168 175.491 280.684 175.491 278.528C175.491 276.372 173.937 274.888 171.795 274.888C169.653 274.888 168.099 276.372 168.099 278.528ZM169.807 278.528C169.807 277.268 170.619 276.414 171.795 276.414C172.971 276.414 173.783 277.268 173.783 278.528C173.783 279.788 172.971 280.642 171.795 280.642C170.619 280.642 169.807 279.788 169.807 278.528ZM181.185 275.056C180.905 274.986 180.667 274.958 180.429 274.958C179.505 274.958 178.847 275.42 178.553 276.106L178.455 275.098H176.845V282H178.553V278.64C178.553 277.296 179.323 276.638 180.555 276.638H181.185V275.056ZM186.681 275.056C186.401 274.986 186.163 274.958 185.925 274.958C185.001 274.958 184.343 275.42 184.049 276.106L183.951 275.098H182.341V282H184.049V278.64C184.049 277.296 184.819 276.638 186.051 276.638H186.681V275.056ZM190.699 282.182C192.505 282.182 193.765 281.272 194.059 279.76H192.477C192.281 280.418 191.665 280.782 190.727 280.782C189.593 280.782 188.949 280.166 188.823 278.948L194.031 278.934V278.416C194.031 276.26 192.715 274.874 190.643 274.874C188.613 274.874 187.199 276.372 187.199 278.542C187.199 280.684 188.641 282.182 190.699 282.182ZM190.657 276.274C191.679 276.274 192.337 276.904 192.337 277.856H188.865C189.033 276.82 189.649 276.274 190.657 276.274ZM194.992 278.528C194.992 280.726 196.364 282.182 198.464 282.182C200.27 282.182 201.614 281.076 201.824 279.466H200.102C199.92 280.222 199.318 280.642 198.464 280.642C197.372 280.642 196.7 279.83 196.7 278.528C196.7 277.226 197.428 276.4 198.52 276.4C199.332 276.4 199.906 276.806 200.102 277.59H201.81C201.628 275.924 200.34 274.874 198.45 274.874C196.406 274.874 194.992 276.386 194.992 278.528ZM205.447 282V276.512H206.791V275.084H205.447V272.928H203.739V275.084H202.409V276.512H203.739V282H205.447Z" fill="black"/>
<rect x="85" y="90" width="162" height="222" stroke="black" stroke-width="2"/>
<path d="M3 309V692H143.5M3 309V348M3 309H23V276.5M151.5 508H3V348M3 348H151.5M74.5 181H23V228.5M23 228.5H74.5M23 228.5V276.5M23 276.5H74.5" stroke="black"/>
<rect x="12" y="170" width="22" height="22" rx="11" fill="white"/>
<path d="M22.9269 177.376V186H24.6489V175.766H20.6869V177.376H22.9269Z" fill="black"/>
<rect x="12" y="170" width="22" height="22" rx="11" stroke="black" stroke-width="2"/>
<rect x="12" y="218" width="22" height="22" rx="11" fill="white"/>
<path d="M26.6199 233.986V232.32H22.3639L24.2119 230.738C25.7659 229.408 26.5499 228.33 26.5499 226.902C26.5499 224.83 25.1919 223.584 23.0079 223.584C20.8379 223.584 19.4099 225.04 19.3959 227.28H21.1739C21.1879 225.964 21.8879 225.18 23.0079 225.18C24.0859 225.18 24.7159 225.838 24.7159 227C24.7159 227.98 24.2539 228.652 22.8679 229.828L19.5219 232.656V234L26.6199 233.986Z" fill="black"/>
<rect x="12" y="218" width="22" height="22" rx="11" stroke="black" stroke-width="2"/>
<rect x="12" y="266" width="22" height="22" rx="11" fill="white"/>
<path d="M22.6406 276.932C24.0686 276.932 24.7406 277.688 24.7406 278.724C24.7406 279.858 23.9986 280.586 22.8786 280.586C21.7866 280.586 21.0586 279.914 21.0586 278.738H19.2946C19.2946 280.95 20.8486 282.182 22.8506 282.182C24.9226 282.182 26.5606 280.852 26.5606 278.752C26.5606 276.946 25.3426 275.798 23.7746 275.49L26.2666 273.194V271.766H19.7706V273.348H24.0266L21.3946 275.77V276.932H22.6406Z" fill="black"/>
<rect x="12" y="266" width="22" height="22" rx="11" stroke="black" stroke-width="2"/>
<rect x="14" y="408" width="78" height="62" fill="white"/>
<path d="M38.9599 431.627C38.5694 432.017 38.5694 432.65 38.9599 433.041C39.3504 433.431 39.9836 433.431 40.3741 433.041L38.9599 431.627ZM47.667 424.334L48.3741 423.627C47.9836 423.236 47.3504 423.236 46.9599 423.627L47.667 424.334ZM55.667 432.334L54.9599 433.041C55.3504 433.431 55.9836 433.431 56.3741 433.041L55.667 432.334ZM66.3337 421.667H67.3337C67.3337 421.115 66.8859 420.667 66.3337 420.667V421.667ZM61.0003 420.667C60.448 420.667 60.0003 421.115 60.0003 421.667C60.0003 422.219 60.448 422.667 61.0003 422.667V420.667ZM65.3337 427C65.3337 427.553 65.7814 428 66.3337 428C66.8859 428 67.3337 427.553 67.3337 427H65.3337ZM40.3741 433.041L48.3741 425.041L46.9599 423.627L38.9599 431.627L40.3741 433.041ZM46.9599 425.041L54.9599 433.041L56.3741 431.627L48.3741 423.627L46.9599 425.041ZM56.3741 433.041L67.0408 422.374L65.6266 420.96L54.9599 431.627L56.3741 433.041ZM66.3337 420.667H61.0003V422.667H66.3337V420.667ZM65.3337 421.667V427H67.3337V421.667H65.3337Z" fill="#3ED59F"/>
<path d="M44.6099 456.262C44.6099 458.67 46.1779 460.168 48.6559 460.168C51.1479 460.168 52.7159 458.656 52.7159 456.262V449.766H50.9239V456.15C50.9239 457.606 50.1119 458.432 48.6559 458.432C47.1999 458.432 46.4019 457.62 46.4019 456.15V449.766H44.6099V456.262ZM54.6681 463.206H56.3761V459.076C56.8101 459.776 57.7061 460.182 58.7421 460.182C60.8001 460.182 61.9761 458.614 61.9761 456.458C61.9761 454.288 60.6881 452.874 58.7421 452.874C57.6921 452.874 56.7821 453.336 56.3621 454.134L56.2501 453.084H54.6681V463.206ZM56.3901 456.542C56.3901 455.296 57.1601 454.428 58.3361 454.428C59.5401 454.428 60.2541 455.31 60.2541 456.542C60.2541 457.774 59.5401 458.642 58.3361 458.642C57.1601 458.642 56.3901 457.788 56.3901 456.542Z" fill="black"/>
<rect x="14" y="408" width="78" height="62" stroke="black" stroke-width="2"/>
<rect x="92" y="408" width="78" height="62" fill="white"/>
<path d="M116.96 422.373C116.569 421.983 116.569 421.35 116.96 420.959C117.35 420.569 117.984 420.569 118.374 420.959L116.96 422.373ZM125.667 429.666L126.374 430.373C125.984 430.764 125.35 430.764 124.96 430.373L125.667 429.666ZM133.667 421.666L132.96 420.959C133.35 420.569 133.984 420.569 134.374 420.959L133.667 421.666ZM144.334 432.333H145.334C145.334 432.885 144.886 433.333 144.334 433.333V432.333ZM139 433.333C138.448 433.333 138 432.885 138 432.333C138 431.781 138.448 431.333 139 431.333V433.333ZM143.334 427C143.334 426.447 143.781 426 144.334 426C144.886 426 145.334 426.447 145.334 427H143.334ZM118.374 420.959L126.374 428.959L124.96 430.373L116.96 422.373L118.374 420.959ZM124.96 428.959L132.96 420.959L134.374 422.373L126.374 430.373L124.96 428.959ZM134.374 420.959L145.041 431.626L143.627 433.04L132.96 422.373L134.374 420.959ZM144.334 433.333H139V431.333H144.334V433.333ZM143.334 432.333V427H145.334V432.333H143.334Z" fill="#F65D53"/>
<path d="M116.935 460C119.903 460 121.947 457.914 121.947 454.904C121.947 451.852 119.861 449.766 116.837 449.766H113.253V460H116.935ZM116.669 451.418C118.783 451.418 120.057 452.734 120.057 454.904C120.057 457.032 118.811 458.348 116.767 458.348H115.045V451.418H116.669ZM122.958 456.528C122.958 458.684 124.512 460.168 126.654 460.168C128.796 460.168 130.35 458.684 130.35 456.528C130.35 454.372 128.796 452.888 126.654 452.888C124.512 452.888 122.958 454.372 122.958 456.528ZM124.666 456.528C124.666 455.268 125.478 454.414 126.654 454.414C127.83 454.414 128.642 455.268 128.642 456.528C128.642 457.788 127.83 458.642 126.654 458.642C125.478 458.642 124.666 457.788 124.666 456.528ZM132.888 460H134.554L135.506 457.032C135.856 455.898 135.982 455.408 136.052 455.086C136.108 455.436 136.262 456.094 136.542 457.004L137.494 460H139.09L141.484 453.084H139.678L138.754 456.052C138.628 456.486 138.404 457.312 138.292 457.83C138.208 457.368 137.928 456.332 137.844 456.052L136.92 453.084H135.184L134.232 456.052C134.008 456.738 133.882 457.172 133.756 457.844C133.63 457.2 133.49 456.598 133.336 456.052L132.426 453.084H130.648L132.888 460ZM144.227 460V456.276C144.227 455.156 144.871 454.428 145.921 454.428C146.803 454.428 147.377 454.988 147.377 456.15V460H149.085V455.744C149.085 453.952 148.189 452.874 146.453 452.874C145.515 452.874 144.675 453.28 144.241 453.98L144.101 453.084H142.519V460H144.227Z" fill="black"/>
<rect x="92" y="408" width="78" height="62" stroke="black" stroke-width="2"/>
<rect x="170" y="408" width="78" height="62" fill="white"/>
<path d="M193.2 430.642C192.869 431.084 192.958 431.711 193.4 432.042C193.842 432.374 194.469 432.284 194.8 431.842L193.2 430.642ZM200 423.242L200.8 422.642C200.611 422.39 200.315 422.242 200 422.242C199.685 422.242 199.389 422.39 199.2 422.642L200 423.242ZM206 431.242L205.2 431.842C205.389 432.094 205.685 432.242 206 432.242C206.315 432.242 206.611 432.094 206.8 431.842L206 431.242ZM212 423.242L212.8 422.642C212.611 422.39 212.315 422.242 212 422.242C211.685 422.242 211.389 422.39 211.2 422.642L212 423.242ZM218 431.242L217.2 431.842C217.389 432.094 217.685 432.242 218 432.242C218.315 432.242 218.611 432.094 218.8 431.842L218 431.242ZM224.8 423.842C225.131 423.4 225.042 422.774 224.6 422.442C224.158 422.111 223.531 422.2 223.2 422.642L224.8 423.842ZM194.8 431.842L200.8 423.842L199.2 422.642L193.2 430.642L194.8 431.842ZM199.2 423.842L205.2 431.842L206.8 430.642L200.8 422.642L199.2 423.842ZM206.8 431.842L212.8 423.842L211.2 422.642L205.2 430.642L206.8 431.842ZM211.2 423.842L217.2 431.842L218.8 430.642L212.8 422.642L211.2 423.842ZM218.8 431.842L224.8 423.842L223.2 422.642L217.2 430.642L218.8 431.842Z" fill="#6237DE"/>
<path d="M184.958 460V456.178H187.156L188.892 460H190.852L188.906 455.8C190.11 455.31 190.754 454.33 190.754 452.958C190.754 450.942 189.396 449.766 187.072 449.766H183.166V460H184.958ZM184.958 451.362H187.072C188.206 451.362 188.878 451.936 188.878 452.958C188.878 453.994 188.206 454.596 187.072 454.596H184.958V451.362ZM194.078 460.182C195.156 460.182 196.094 459.692 196.388 458.978L196.514 460H198.012V455.8C198.012 453.882 196.864 452.874 195.002 452.874C193.126 452.874 191.894 453.854 191.894 455.352H193.35C193.35 454.624 193.91 454.204 194.918 454.204C195.786 454.204 196.346 454.582 196.346 455.52V455.674L194.274 455.828C192.636 455.954 191.712 456.752 191.712 458.026C191.712 459.328 192.608 460.182 194.078 460.182ZM194.638 458.894C193.868 458.894 193.448 458.586 193.448 457.956C193.448 457.396 193.854 457.046 194.918 456.948L196.36 456.836V457.2C196.36 458.264 195.688 458.894 194.638 458.894ZM201.398 460V456.276C201.398 455.156 202.042 454.428 203.092 454.428C203.974 454.428 204.548 454.988 204.548 456.15V460H206.256V455.744C206.256 453.952 205.36 452.874 203.624 452.874C202.686 452.874 201.846 453.28 201.412 453.98L201.272 453.084H199.69V460H201.398ZM207.542 456.388C207.542 458.39 208.83 459.86 210.79 459.86C211.784 459.86 212.638 459.454 213.072 458.81V459.958C213.072 461.106 212.316 461.848 211.14 461.848C210.09 461.848 209.404 461.316 209.292 460.42H207.584C207.794 462.268 209.152 463.402 211.14 463.402C213.38 463.402 214.766 461.96 214.766 459.65V453.084H213.184L213.086 454.036C212.68 453.294 211.868 452.86 210.832 452.86C208.858 452.86 207.542 454.372 207.542 456.388ZM209.264 456.346C209.264 455.212 209.992 454.358 211.126 454.358C212.316 454.358 213.03 455.17 213.03 456.346C213.03 457.55 212.302 458.376 211.126 458.376C210.006 458.376 209.264 457.508 209.264 456.346ZM217.387 451.698C217.947 451.698 218.409 451.236 218.409 450.662C218.409 450.088 217.947 449.64 217.387 449.64C216.799 449.64 216.337 450.088 216.337 450.662C216.337 451.236 216.799 451.698 217.387 451.698ZM216.533 460H218.241V453.084H216.533V460ZM221.714 460V456.276C221.714 455.156 222.358 454.428 223.408 454.428C224.29 454.428 224.864 454.988 224.864 456.15V460H226.572V455.744C226.572 453.952 225.676 452.874 223.94 452.874C223.002 452.874 222.162 453.28 221.728 453.98L221.588 453.084H220.006V460H221.714ZM227.858 456.388C227.858 458.39 229.146 459.86 231.106 459.86C232.1 459.86 232.954 459.454 233.388 458.81V459.958C233.388 461.106 232.632 461.848 231.456 461.848C230.406 461.848 229.72 461.316 229.608 460.42H227.9C228.11 462.268 229.468 463.402 231.456 463.402C233.696 463.402 235.082 461.96 235.082 459.65V453.084H233.5L233.402 454.036C232.996 453.294 232.184 452.86 231.148 452.86C229.174 452.86 227.858 454.372 227.858 456.388ZM229.58 456.346C229.58 455.212 230.308 454.358 231.442 454.358C232.632 454.358 233.346 455.17 233.346 456.346C233.346 457.55 232.618 458.376 231.442 458.376C230.322 458.376 229.58 457.508 229.58 456.346Z" fill="black"/>
<rect x="170" y="408" width="78" height="62" stroke="black" stroke-width="2"/>
<rect x="248" y="408" width="78" height="62" fill="white"/>
<path d="M277 427H297" stroke="#757883" stroke-width="2" stroke-linecap="round" stroke-linejoin="round"/>
<path d="M256.14 456.262C256.14 458.67 257.708 460.168 260.186 460.168C262.678 460.168 264.246 458.656 264.246 456.262V449.766H262.454V456.15C262.454 457.606 261.642 458.432 260.186 458.432C258.73 458.432 257.932 457.62 257.932 456.15V449.766H256.14V456.262ZM267.906 460V456.276C267.906 455.156 268.55 454.428 269.6 454.428C270.482 454.428 271.056 454.988 271.056 456.15V460H272.764V455.744C272.764 453.952 271.868 452.874 270.132 452.874C269.194 452.874 268.354 453.28 267.92 453.98L267.78 453.084H266.198V460H267.906ZM274.037 456.528C274.037 458.726 275.409 460.182 277.509 460.182C279.315 460.182 280.659 459.076 280.869 457.466H279.147C278.965 458.222 278.363 458.642 277.509 458.642C276.417 458.642 275.745 457.83 275.745 456.528C275.745 455.226 276.473 454.4 277.565 454.4C278.377 454.4 278.951 454.806 279.147 455.59H280.855C280.673 453.924 279.385 452.874 277.495 452.874C275.451 452.874 274.037 454.386 274.037 456.528ZM285.234 460.182C287.04 460.182 288.3 459.272 288.594 457.76H287.012C286.816 458.418 286.2 458.782 285.262 458.782C284.128 458.782 283.484 458.166 283.358 456.948L288.566 456.934V456.416C288.566 454.26 287.25 452.874 285.178 452.874C283.148 452.874 281.734 454.372 281.734 456.542C281.734 458.684 283.176 460.182 285.234 460.182ZM285.192 454.274C286.214 454.274 286.872 454.904 286.872 455.856H283.4C283.568 454.82 284.184 454.274 285.192 454.274ZM294.273 453.056C293.993 452.986 293.755 452.958 293.517 452.958C292.593 452.958 291.935 453.42 291.641 454.106L291.543 453.098H289.933V460H291.641V456.64C291.641 455.296 292.411 454.638 293.643 454.638H294.273V453.056ZM298.054 460V454.512H299.398V453.084H298.054V450.928H296.346V453.084H295.016V454.512H296.346V460H298.054ZM302.477 460.182C303.555 460.182 304.493 459.692 304.787 458.978L304.913 460H306.411V455.8C306.411 453.882 305.263 452.874 303.401 452.874C301.525 452.874 300.293 453.854 300.293 455.352H301.749C301.749 454.624 302.309 454.204 303.317 454.204C304.185 454.204 304.745 454.582 304.745 455.52V455.674L302.673 455.828C301.035 455.954 300.111 456.752 300.111 458.026C300.111 459.328 301.007 460.182 302.477 460.182ZM303.037 458.894C302.267 458.894 301.847 458.586 301.847 457.956C301.847 457.396 302.253 457.046 303.317 456.948L304.759 456.836V457.2C304.759 458.264 304.087 458.894 303.037 458.894ZM308.943 451.698C309.503 451.698 309.965 451.236 309.965 450.662C309.965 450.088 309.503 449.64 308.943 449.64C308.355 449.64 307.893 450.088 307.893 450.662C307.893 451.236 308.355 451.698 308.943 451.698ZM308.089 460H309.797V453.084H308.089V460ZM313.27 460V456.276C313.27 455.156 313.914 454.428 314.964 454.428C315.846 454.428 316.42 454.988 316.42 456.15V460H318.128V455.744C318.128 453.952 317.232 452.874 315.496 452.874C314.558 452.874 313.718 453.28 313.284 453.98L313.144 453.084H311.562V460H313.27Z" fill="black"/>
<rect x="248" y="408" width="78" height="62" stroke="black" stroke-width="2"/>
<path d="M113.052 381.968C115.484 381.968 116.94 380.368 116.94 378.128C116.94 375.792 115.484 374.304 113.068 374.304H108.428V386H110.476V381.968H113.052ZM112.7 376.128C114.14 376.128 114.78 377.056 114.78 378.08C114.78 379.216 114.14 380.192 112.684 380.192H110.476V376.128H112.7ZM123.432 378.064C122.232 377.792 120.872 378.064 120.392 379.024L120.28 378.112H118.488V386H120.44V382.16C120.44 380.624 121.256 379.76 122.664 379.76H123.432V378.064ZM123.958 382.048C123.958 384.56 125.494 386.208 127.782 386.208C129.686 386.208 131.174 385.072 131.51 383.392H129.702C129.51 384.08 128.758 384.56 127.814 384.56C126.63 384.56 125.894 383.872 125.846 382.608H131.478V382.016C131.478 379.504 130.086 377.856 127.782 377.856C125.51 377.856 123.958 379.504 123.958 382.048ZM125.878 381.36C125.894 380.16 126.646 379.472 127.718 379.472C128.774 379.472 129.526 380.128 129.542 381.36H125.878ZM136.295 386.208C137.479 386.208 138.567 385.68 139.047 384.752L139.175 386H140.919V374.096H139.015V379.12C138.519 378.336 137.511 377.856 136.407 377.856C134.023 377.856 132.583 379.616 132.583 382.08C132.583 384.528 134.007 386.208 136.295 386.208ZM136.727 384.416C135.351 384.416 134.535 383.424 134.535 382.016C134.535 380.608 135.351 379.6 136.727 379.6C138.087 379.6 138.951 380.592 138.951 382.016C138.951 383.44 138.087 384.416 136.727 384.416ZM144.118 376.48C144.758 376.48 145.286 375.968 145.286 375.312C145.286 374.672 144.758 374.16 144.118 374.16C143.462 374.16 142.966 374.672 142.966 375.312C142.966 375.968 143.462 376.48 144.118 376.48ZM143.142 386H145.094V378.096H143.142V386ZM146.63 382.032C146.63 384.512 148.198 386.208 150.422 386.208C152.47 386.208 153.974 384.96 154.214 383.104H152.358C152.134 384 151.414 384.464 150.55 384.464C149.334 384.464 148.582 383.552 148.582 382.032C148.582 380.496 149.35 379.584 150.566 379.584C151.414 379.584 152.134 380.032 152.358 380.96H154.198C153.99 379.104 152.566 377.856 150.582 377.856C148.262 377.856 146.63 379.552 146.63 382.032ZM158.328 386V379.712H159.832V378.096H158.328V375.632H156.392V378.096H154.872V379.712H156.392V386H158.328ZM162.103 376.48C162.743 376.48 163.271 375.968 163.271 375.312C163.271 374.672 162.743 374.16 162.103 374.16C161.447 374.16 160.951 374.672 160.951 375.312C160.951 375.968 161.447 376.48 162.103 376.48ZM161.127 386H163.079V378.096H161.127V386ZM164.677 382.032C164.677 384.464 166.309 386.192 168.789 386.192C171.269 386.192 172.901 384.464 172.901 382.032C172.901 379.6 171.269 377.872 168.789 377.872C166.309 377.872 164.677 379.6 164.677 382.032ZM166.645 382.032C166.645 380.608 167.493 379.616 168.789 379.616C170.085 379.616 170.933 380.608 170.933 382.032C170.933 383.44 170.085 384.448 168.789 384.448C167.493 384.448 166.645 383.44 166.645 382.032ZM176.471 386V381.744C176.471 380.096 177.559 379.632 178.407 379.632C179.079 379.632 180.071 379.904 180.071 381.6V386H182.007V381.136C182.007 379.168 181.079 377.856 179.015 377.856C177.943 377.856 176.999 378.304 176.487 379.12L176.327 378.096H174.519V386H176.471ZM190.68 386V381.6H193.192L195.112 386H197.416L195.256 381.264C196.584 380.768 197.352 379.584 197.352 377.952C197.352 375.632 195.912 374.32 193.128 374.304H188.632V386H190.68ZM190.68 376.128H193.128C194.552 376.128 195.192 376.896 195.192 377.952C195.192 379.024 194.568 379.808 193.128 379.808H190.68V376.128ZM198.302 382.048C198.302 384.56 199.838 386.208 202.126 386.208C204.03 386.208 205.518 385.072 205.854 383.392H204.046C203.854 384.08 203.102 384.56 202.158 384.56C200.974 384.56 200.238 383.872 200.19 382.608H205.822V382.016C205.822 379.504 204.43 377.856 202.126 377.856C199.854 377.856 198.302 379.504 198.302 382.048ZM200.222 381.36C200.238 380.16 200.99 379.472 202.062 379.472C203.118 379.472 203.87 380.128 203.886 381.36H200.222ZM206.831 383.632C206.895 385.2 208.111 386.208 209.999 386.208C211.855 386.208 213.119 385.216 213.119 383.68C213.119 382.544 212.415 381.776 211.119 381.456L209.727 381.12C209.135 380.96 208.735 380.752 208.735 380.24C208.735 379.696 209.167 379.312 209.871 379.312C210.607 379.312 211.087 379.728 211.087 380.416H212.863C212.799 378.848 211.631 377.856 209.919 377.856C208.223 377.856 206.959 378.848 206.959 380.352C206.959 381.376 207.551 382.224 209.071 382.624L210.447 382.976C210.959 383.12 211.279 383.36 211.279 383.808C211.279 384.432 210.687 384.72 209.967 384.72C209.103 384.72 208.607 384.32 208.607 383.632H206.831ZM217.648 386.208C218.72 386.208 219.744 385.712 220.208 384.976L220.336 386H222.16V378.096H220.208V382.24C220.208 383.664 219.664 384.464 218.384 384.464C217.392 384.464 216.704 383.984 216.704 382.352V378.096H214.752V383.04C214.752 384.928 215.776 386.208 217.648 386.208ZM226.315 386V374.096H224.363V386H226.315ZM231.125 386V379.712H232.629V378.096H231.125V375.632H229.189V378.096H227.669V379.712H229.189V386H231.125Z" fill="black"/>
<path d="M169.927 343.376V352H171.649V341.766H167.687V343.376H169.927Z" fill="black"/>
<rect x="159" y="336" width="22" height="22" rx="11" stroke="black" stroke-width="2"/>
<path d="M114.5 545V540.632H117.012L118.996 545H121.236L119.012 540.2C120.388 539.64 121.124 538.52 121.124 536.952C121.124 534.648 119.572 533.304 116.916 533.304H112.452V545H114.5ZM114.5 535.128H116.916C118.212 535.128 118.98 535.784 118.98 536.952C118.98 538.136 118.212 538.824 116.916 538.824H114.5V535.128ZM125.857 545.208C127.921 545.208 129.361 544.168 129.697 542.44H127.889C127.665 543.192 126.961 543.608 125.889 543.608C124.593 543.608 123.857 542.904 123.713 541.512L129.665 541.496V540.904C129.665 538.44 128.161 536.856 125.793 536.856C123.473 536.856 121.857 538.568 121.857 541.048C121.857 543.496 123.505 545.208 125.857 545.208ZM125.809 538.456C126.977 538.456 127.729 539.176 127.729 540.264H123.761C123.953 539.08 124.657 538.456 125.809 538.456ZM130.443 537.096V538.728H131.579V545H133.515V538.728H135.403V537.096H133.515V536.136C133.515 535.352 133.755 534.84 134.747 534.84H135.435V533.176C135.099 533.112 134.731 533.096 134.427 533.096C132.715 533.096 131.579 533.992 131.579 536.136V537.096H130.443ZM139.95 545.208C142.014 545.208 143.454 544.168 143.79 542.44H141.982C141.758 543.192 141.054 543.608 139.982 543.608C138.686 543.608 137.95 542.904 137.806 541.512L143.758 541.496V540.904C143.758 538.44 142.254 536.856 139.886 536.856C137.566 536.856 135.95 538.568 135.95 541.048C135.95 543.496 137.598 545.208 139.95 545.208ZM139.902 538.456C141.07 538.456 141.822 539.176 141.822 540.264H137.854C138.046 539.08 138.75 538.456 139.902 538.456ZM150.281 537.064C149.961 536.984 149.689 536.952 149.417 536.952C148.361 536.952 147.609 537.48 147.273 538.264L147.161 537.112H145.321V545H147.273V541.16C147.273 539.624 148.153 538.872 149.561 538.872H150.281V537.064ZM154.872 545.208C156.936 545.208 158.376 544.168 158.712 542.44H156.904C156.68 543.192 155.976 543.608 154.904 543.608C153.608 543.608 152.872 542.904 152.728 541.512L158.68 541.496V540.904C158.68 538.44 157.176 536.856 154.808 536.856C152.488 536.856 150.872 538.568 150.872 541.048C150.872 543.496 152.52 545.208 154.872 545.208ZM154.824 538.456C155.992 538.456 156.744 539.176 156.744 540.264H152.776C152.968 539.08 153.672 538.456 154.824 538.456ZM162.194 545V540.744C162.194 539.464 162.93 538.632 164.13 538.632C165.138 538.632 165.794 539.272 165.794 540.6V545H167.746V540.136C167.746 538.088 166.722 536.856 164.738 536.856C163.666 536.856 162.706 537.32 162.21 538.12L162.05 537.096H160.242V545H162.194ZM169.2 541.032C169.2 543.544 170.768 545.208 173.168 545.208C175.232 545.208 176.768 543.944 177.008 542.104H175.04C174.832 542.968 174.144 543.448 173.168 543.448C171.92 543.448 171.152 542.52 171.152 541.032C171.152 539.544 171.984 538.6 173.232 538.6C174.16 538.6 174.816 539.064 175.04 539.96H176.992C176.784 538.056 175.312 536.856 173.152 536.856C170.816 536.856 169.2 538.584 169.2 541.032ZM181.997 545.208C184.061 545.208 185.501 544.168 185.837 542.44H184.029C183.805 543.192 183.101 543.608 182.029 543.608C180.733 543.608 179.997 542.904 179.853 541.512L185.805 541.496V540.904C185.805 538.44 184.301 536.856 181.933 536.856C179.613 536.856 177.997 538.568 177.997 541.048C177.997 543.496 179.645 545.208 181.997 545.208ZM181.949 538.456C183.117 538.456 183.869 539.176 183.869 540.264H179.901C180.093 539.08 180.797 538.456 181.949 538.456ZM196.592 540.968C198.928 540.968 200.464 539.384 200.464 537.128C200.464 534.84 198.944 533.304 196.592 533.304H191.968V545H194.016V540.968H196.592ZM196.192 535.128C197.552 535.128 198.32 535.832 198.32 537.112C198.32 538.392 197.568 539.144 196.16 539.144H194.016V535.128H196.192ZM206.859 537.064C206.539 536.984 206.267 536.952 205.995 536.952C204.939 536.952 204.187 537.48 203.851 538.264L203.739 537.112H201.899V545H203.851V541.16C203.851 539.624 204.731 538.872 206.139 538.872H206.859V537.064ZM209.156 535.512C209.796 535.512 210.324 534.984 210.324 534.328C210.324 533.672 209.796 533.16 209.156 533.16C208.484 533.16 207.956 533.672 207.956 534.328C207.956 534.984 208.484 535.512 209.156 535.512ZM208.18 545H210.132V537.096H208.18V545ZM211.685 541.032C211.685 543.544 213.253 545.208 215.653 545.208C217.717 545.208 219.253 543.944 219.493 542.104H217.525C217.317 542.968 216.629 543.448 215.653 543.448C214.405 543.448 213.637 542.52 213.637 541.032C213.637 539.544 214.469 538.6 215.717 538.6C216.645 538.6 217.301 539.064 217.525 539.96H219.477C219.269 538.056 217.797 536.856 215.637 536.856C213.301 536.856 211.685 538.584 211.685 541.032ZM224.482 545.208C226.546 545.208 227.986 544.168 228.322 542.44H226.514C226.29 543.192 225.586 543.608 224.514 543.608C223.218 543.608 222.482 542.904 222.338 541.512L228.29 541.496V540.904C228.29 538.44 226.786 536.856 224.418 536.856C222.098 536.856 220.482 538.568 220.482 541.048C220.482 543.496 222.13 545.208 224.482 545.208ZM224.434 538.456C225.602 538.456 226.354 539.176 226.354 540.264H222.386C222.578 539.08 223.282 538.456 224.434 538.456Z" fill="black"/>
<path d="M173.62 511.986V510.32H169.364L171.212 508.738C172.766 507.408 173.55 506.33 173.55 504.902C173.55 502.83 172.192 501.584 170.008 501.584C167.838 501.584 166.41 503.04 166.396 505.28H168.174C168.188 503.964 168.888 503.18 170.008 503.18C171.086 503.18 171.716 503.838 171.716 505C171.716 505.98 171.254 506.652 169.868 507.828L166.522 510.656V512L173.62 511.986Z" fill="black"/>
<rect x="159" y="496" width="22" height="22" rx="11" stroke="black" stroke-width="2"/>
<rect x="42" y="568" width="256" height="86" fill="white"/>
<path d="M72.142 593L73.262 589.96H78.542L79.662 593H80.862L76.606 581.544H75.182L70.974 593H72.142ZM75.742 583.16C75.806 583 75.87 582.792 75.886 582.696C75.902 582.808 75.982 583 76.03 583.16L78.174 588.952H73.614L75.742 583.16ZM83.8589 593H84.9629L88.1789 585.256H87.0429L85.0109 590.248C84.7869 590.808 84.5789 591.32 84.4349 591.848C84.2909 591.336 84.0829 590.808 83.8749 590.248L81.8749 585.256H80.6909L83.8589 593ZM92.3844 593.192C94.2084 593.192 95.4084 592.312 95.8244 590.68H94.7684C94.4804 591.704 93.6644 592.248 92.4004 592.248C90.7364 592.248 89.7444 591.16 89.6644 589.272H95.8244V588.728C95.8244 586.536 94.4004 585.048 92.3044 585.048C90.0964 585.048 88.5924 586.712 88.5924 589.128C88.5924 591.56 90.1124 593.192 92.3844 593.192ZM92.3044 585.992C93.7604 585.992 94.7204 586.984 94.7204 588.472H89.6964C89.8884 586.952 90.8484 585.992 92.3044 585.992ZM101.638 585.16C101.366 585.096 101.158 585.08 100.918 585.08C99.8295 585.08 99.0135 585.624 98.7095 586.456L98.6295 585.256H97.5895V593H98.6935V588.584C98.6935 587.112 99.6055 586.152 101.03 586.152H101.638V585.16ZM105.017 593.192C106.329 593.192 107.385 592.616 107.865 591.64L108.009 593H108.937V587.992C108.937 585.944 107.625 585.048 105.833 585.048C103.929 585.048 102.649 586.056 102.649 587.624H103.657C103.657 586.584 104.457 585.976 105.801 585.976C106.937 585.976 107.849 586.456 107.849 587.976V588.232L105.289 588.44C103.481 588.584 102.393 589.48 102.393 590.904C102.393 592.264 103.369 593.192 105.017 593.192ZM105.273 592.296C104.217 592.296 103.513 591.816 103.513 590.872C103.513 590.008 104.105 589.368 105.561 589.24L107.849 589.064V589.48C107.849 591.16 106.905 592.296 105.273 592.296ZM110.624 588.904C110.624 591.016 111.968 592.76 114.176 592.76C115.504 592.76 116.576 592.12 117.104 591.032V592.872C117.104 594.488 116.048 595.56 114.464 595.56C113.072 595.56 112.112 594.824 111.872 593.576H110.768C111.072 595.448 112.464 596.568 114.448 596.568C116.72 596.568 118.192 595.064 118.192 592.76V585.256H117.232L117.12 586.808C116.624 585.672 115.6 585.048 114.256 585.048C111.984 585.048 110.624 586.792 110.624 588.904ZM111.728 588.888C111.728 587.32 112.688 586.024 114.352 586.024C116.048 586.024 117.008 587.24 117.008 588.888C117.008 590.552 116.016 591.768 114.336 591.768C112.704 591.768 111.728 590.472 111.728 588.888ZM123.744 593.192C125.568 593.192 126.768 592.312 127.184 590.68H126.128C125.84 591.704 125.024 592.248 123.76 592.248C122.096 592.248 121.104 591.16 121.024 589.272H127.184V588.728C127.184 586.536 125.76 585.048 123.664 585.048C121.456 585.048 119.952 586.712 119.952 589.128C119.952 591.56 121.472 593.192 123.744 593.192ZM123.664 585.992C125.12 585.992 126.08 586.984 126.08 588.472H121.056C121.248 586.952 122.208 585.992 123.664 585.992ZM133.386 596.376H134.49V591.512C135.034 592.632 136.074 593.192 137.386 593.192C139.674 593.192 140.97 591.432 140.97 589.096C140.97 586.76 139.626 585.048 137.386 585.048C136.09 585.048 135.002 585.624 134.458 586.824L134.346 585.256H133.386V596.376ZM134.506 589.128C134.506 587.336 135.498 586.056 137.194 586.056C138.874 586.056 139.85 587.336 139.85 589.128C139.85 590.904 138.874 592.2 137.194 592.2C135.498 592.2 134.506 590.904 134.506 589.128ZM146.778 585.16C146.506 585.096 146.298 585.08 146.058 585.08C144.97 585.08 144.154 585.624 143.85 586.456L143.77 585.256H142.73V593H143.834V588.584C143.834 587.112 144.746 586.152 146.17 586.152H146.778V585.16ZM151.197 593.192C153.021 593.192 154.221 592.312 154.637 590.68H153.581C153.293 591.704 152.477 592.248 151.213 592.248C149.549 592.248 148.557 591.16 148.477 589.272H154.637V588.728C154.637 586.536 153.213 585.048 151.117 585.048C148.909 585.048 147.405 586.712 147.405 589.128C147.405 591.56 148.925 593.192 151.197 593.192ZM151.117 585.992C152.573 585.992 153.533 586.984 153.533 588.472H148.509C148.701 586.952 149.661 585.992 151.117 585.992ZM158.359 593H159.463L162.679 585.256H161.543L159.511 590.248C159.287 590.808 159.079 591.32 158.935 591.848C158.791 591.336 158.583 590.808 158.375 590.248L156.375 585.256H155.191L158.359 593ZM164.524 583.128C164.972 583.128 165.356 582.76 165.356 582.312C165.356 581.864 164.972 581.48 164.524 581.48C164.076 581.48 163.708 581.864 163.708 582.312C163.708 582.76 164.076 583.128 164.524 583.128ZM163.98 593H165.084V585.256H163.98V593ZM166.842 589.128C166.842 591.48 168.506 593.192 170.778 593.192C173.05 593.192 174.714 591.48 174.714 589.128C174.714 586.76 173.05 585.048 170.778 585.048C168.506 585.048 166.842 586.76 166.842 589.128ZM167.962 589.112C167.962 587.32 169.114 586.04 170.778 586.04C172.426 586.04 173.594 587.32 173.594 589.112C173.594 590.936 172.426 592.2 170.778 592.2C169.114 592.2 167.962 590.936 167.962 589.112ZM181.733 585.256V589.368C181.733 591.208 180.853 592.2 179.365 592.2C178.133 592.2 177.317 591.544 177.317 589.704V585.24H176.197V590.056C176.197 591.944 177.189 593.192 179.013 593.192C180.229 593.192 181.301 592.584 181.733 591.688L181.877 593H182.837V585.256H181.733ZM184.324 590.824C184.324 592.264 185.412 593.192 187.156 593.192C188.916 593.192 190.1 592.28 190.1 590.888C190.1 589.768 189.492 589.144 188.148 588.808L186.82 588.472C185.972 588.264 185.556 587.848 185.556 587.256C185.556 586.424 186.164 585.96 187.252 585.96C188.292 585.96 188.916 586.488 188.948 587.384H190.02C189.972 585.944 188.916 585.048 187.284 585.048C185.62 585.048 184.484 585.912 184.484 587.272C184.484 588.328 185.14 589.032 186.484 589.368L187.812 589.704C188.724 589.928 189.044 590.296 189.044 590.936C189.044 591.768 188.34 592.28 187.14 592.28C186.052 592.28 185.38 591.72 185.38 590.824H184.324ZM197.459 592.984V588.776C197.459 587.288 198.323 586.056 199.987 586.056C201.187 586.056 202.035 586.696 202.035 588.504V593H203.139V588.264C203.139 586.312 202.227 585.048 200.195 585.048C198.899 585.048 197.955 585.672 197.459 586.6V581.336H196.355V592.984H197.459ZM204.796 589.128C204.796 591.48 206.46 593.192 208.732 593.192C211.004 593.192 212.668 591.48 212.668 589.128C212.668 586.76 211.004 585.048 208.732 585.048C206.46 585.048 204.796 586.76 204.796 589.128ZM205.916 589.112C205.916 587.32 207.068 586.04 208.732 586.04C210.38 586.04 211.548 587.32 211.548 589.112C211.548 590.936 210.38 592.2 208.732 592.2C207.068 592.2 205.916 590.936 205.916 589.112ZM219.686 585.256V589.368C219.686 591.208 218.806 592.2 217.318 592.2C216.086 592.2 215.27 591.544 215.27 589.704V585.24H214.15V590.056C214.15 591.944 215.142 593.192 216.966 593.192C218.182 593.192 219.254 592.584 219.686 591.688L219.83 593H220.79V585.256H219.686ZM227.138 585.16C226.866 585.096 226.658 585.08 226.418 585.08C225.33 585.08 224.514 585.624 224.21 586.456L224.13 585.256H223.09V593H224.194V588.584C224.194 587.112 225.106 586.152 226.53 586.152H227.138V585.16ZM238.483 585.256V589.368C238.483 591.208 237.603 592.2 236.115 592.2C234.883 592.2 234.067 591.544 234.067 589.704V585.24H232.947V590.056C232.947 591.944 233.939 593.192 235.763 593.192C236.979 593.192 238.051 592.584 238.483 591.688L238.627 593H239.587V585.256H238.483ZM241.074 590.824C241.074 592.264 242.162 593.192 243.906 593.192C245.666 593.192 246.85 592.28 246.85 590.888C246.85 589.768 246.242 589.144 244.898 588.808L243.57 588.472C242.722 588.264 242.306 587.848 242.306 587.256C242.306 586.424 242.914 585.96 244.002 585.96C245.042 585.96 245.666 586.488 245.698 587.384H246.77C246.722 585.944 245.666 585.048 244.034 585.048C242.37 585.048 241.234 585.912 241.234 587.272C241.234 588.328 241.89 589.032 243.234 589.368L244.562 589.704C245.474 589.928 245.794 590.296 245.794 590.936C245.794 591.768 245.09 592.28 243.89 592.28C242.802 592.28 242.13 591.72 242.13 590.824H241.074ZM249.212 583.128C249.66 583.128 250.044 582.76 250.044 582.312C250.044 581.864 249.66 581.48 249.212 581.48C248.764 581.48 248.396 581.864 248.396 582.312C248.396 582.76 248.764 583.128 249.212 583.128ZM248.668 593H249.772V585.256H248.668V593ZM253.178 593V588.952C253.178 587.208 254.074 586.056 255.658 586.056C256.938 586.056 257.754 586.696 257.754 588.504V593H258.858V588.264C258.858 586.312 257.978 585.048 255.85 585.048C254.73 585.048 253.706 585.608 253.194 586.6L253.034 585.256H252.074V593H253.178ZM260.53 588.904C260.53 591.016 261.874 592.76 264.082 592.76C265.41 592.76 266.482 592.12 267.01 591.032V592.872C267.01 594.488 265.954 595.56 264.37 595.56C262.978 595.56 262.018 594.824 261.778 593.576H260.674C260.978 595.448 262.37 596.568 264.354 596.568C266.626 596.568 268.098 595.064 268.098 592.76V585.256H267.138L267.026 586.808C266.53 585.672 265.506 585.048 264.162 585.048C261.89 585.048 260.53 586.792 260.53 588.904ZM261.634 588.888C261.634 587.32 262.594 586.024 264.258 586.024C265.954 586.024 266.914 587.24 266.914 588.888C266.914 590.552 265.922 591.768 264.242 591.768C262.61 591.768 261.634 590.472 261.634 588.888ZM73.9058 617H75.0098L78.2258 609.256H77.0898L75.0578 614.248C74.8338 614.808 74.6258 615.32 74.4818 615.848C74.3378 615.336 74.1298 614.808 73.9218 614.248L71.9218 609.256H70.7378L73.9058 617ZM81.4073 617.192C82.7193 617.192 83.7753 616.616 84.2553 615.64L84.3993 617H85.3273V611.992C85.3273 609.944 84.0153 609.048 82.2233 609.048C80.3193 609.048 79.0393 610.056 79.0393 611.624H80.0473C80.0473 610.584 80.8473 609.976 82.1913 609.976C83.3273 609.976 84.2393 610.456 84.2393 611.976V612.232L81.6793 612.44C79.8713 612.584 78.7833 613.48 78.7833 614.904C78.7833 616.264 79.7593 617.192 81.4073 617.192ZM81.6633 616.296C80.6073 616.296 79.9033 615.816 79.9033 614.872C79.9033 614.008 80.4953 613.368 81.9513 613.24L84.2393 613.064V613.48C84.2393 615.16 83.2953 616.296 81.6633 616.296ZM91.5906 609.16C91.3186 609.096 91.1106 609.08 90.8706 609.08C89.7826 609.08 88.9666 609.624 88.6626 610.456L88.5826 609.256H87.5426V617H88.6466V612.584C88.6466 611.112 89.5586 610.152 90.9826 610.152H91.5906V609.16ZM93.6023 607.128C94.0503 607.128 94.4343 606.76 94.4343 606.312C94.4343 605.864 94.0503 605.48 93.6023 605.48C93.1543 605.48 92.7863 605.864 92.7863 606.312C92.7863 606.76 93.1543 607.128 93.6023 607.128ZM93.0583 617H94.1623V609.256H93.0583V617ZM95.9205 613.128C95.9205 615.48 97.5845 617.192 99.8565 617.192C102.129 617.192 103.793 615.48 103.793 613.128C103.793 610.76 102.129 609.048 99.8565 609.048C97.5845 609.048 95.9205 610.76 95.9205 613.128ZM97.0405 613.112C97.0405 611.32 98.1925 610.04 99.8565 610.04C101.505 610.04 102.673 611.32 102.673 613.112C102.673 614.936 101.505 616.2 99.8565 616.2C98.1925 616.2 97.0405 614.936 97.0405 613.112ZM110.811 609.256V613.368C110.811 615.208 109.931 616.2 108.443 616.2C107.211 616.2 106.395 615.544 106.395 613.704V609.24H105.275V614.056C105.275 615.944 106.267 617.192 108.091 617.192C109.307 617.192 110.379 616.584 110.811 615.688L110.955 617H111.915V609.256H110.811ZM113.402 614.824C113.402 616.264 114.49 617.192 116.234 617.192C117.994 617.192 119.178 616.28 119.178 614.888C119.178 613.768 118.57 613.144 117.226 612.808L115.898 612.472C115.05 612.264 114.634 611.848 114.634 611.256C114.634 610.424 115.242 609.96 116.33 609.96C117.37 609.96 117.994 610.488 118.026 611.384H119.098C119.05 609.944 117.994 609.048 116.362 609.048C114.698 609.048 113.562 609.912 113.562 611.272C113.562 612.328 114.218 613.032 115.562 613.368L116.89 613.704C117.802 613.928 118.122 614.296 118.122 614.936C118.122 615.768 117.418 616.28 116.218 616.28C115.13 616.28 114.458 615.72 114.458 614.824H113.402ZM126.585 617V605.336H125.481V617H126.585ZM131.157 617.192C132.469 617.192 133.525 616.616 134.005 615.64L134.149 617H135.077V611.992C135.077 609.944 133.765 609.048 131.973 609.048C130.069 609.048 128.789 610.056 128.789 611.624H129.797C129.797 610.584 130.597 609.976 131.941 609.976C133.077 609.976 133.989 610.456 133.989 611.976V612.232L131.429 612.44C129.621 612.584 128.533 613.48 128.533 614.904C128.533 616.264 129.509 617.192 131.157 617.192ZM131.413 616.296C130.357 616.296 129.653 615.816 129.653 614.872C129.653 614.008 130.245 613.368 131.701 613.24L133.989 613.064V613.48C133.989 615.16 133.045 616.296 131.413 616.296ZM141.341 609.16C141.069 609.096 140.861 609.08 140.621 609.08C139.533 609.08 138.717 609.624 138.413 610.456L138.333 609.256H137.293V617H138.397V612.584C138.397 611.112 139.309 610.152 140.733 610.152H141.341V609.16ZM142.14 612.904C142.14 615.016 143.484 616.76 145.692 616.76C147.02 616.76 148.092 616.12 148.62 615.032V616.872C148.62 618.488 147.564 619.56 145.98 619.56C144.588 619.56 143.628 618.824 143.388 617.576H142.284C142.588 619.448 143.98 620.568 145.964 620.568C148.236 620.568 149.708 619.064 149.708 616.76V609.256H148.748L148.636 610.808C148.14 609.672 147.116 609.048 145.772 609.048C143.5 609.048 142.14 610.792 142.14 612.904ZM143.244 612.888C143.244 611.32 144.204 610.024 145.868 610.024C147.564 610.024 148.524 611.24 148.524 612.888C148.524 614.552 147.532 615.768 145.852 615.768C144.22 615.768 143.244 614.472 143.244 612.888ZM155.259 617.192C157.083 617.192 158.283 616.312 158.699 614.68H157.643C157.355 615.704 156.539 616.248 155.275 616.248C153.611 616.248 152.619 615.16 152.539 613.272H158.699V612.728C158.699 610.536 157.275 609.048 155.179 609.048C152.971 609.048 151.467 610.712 151.467 613.128C151.467 615.56 152.987 617.192 155.259 617.192ZM155.179 609.992C156.635 609.992 157.595 610.984 157.595 612.472H152.571C152.763 610.952 153.723 609.992 155.179 609.992ZM164.358 613.144C164.358 615.576 165.846 617.192 168.038 617.192C169.798 617.192 171.174 616.152 171.542 614.568H170.422C170.118 615.56 169.19 616.2 168.038 616.2C166.47 616.2 165.446 614.968 165.446 613.128C165.446 611.224 166.55 610.024 168.118 610.024C169.19 610.024 170.118 610.616 170.406 611.688H171.51C171.206 610.088 169.894 609.048 168.102 609.048C165.846 609.048 164.358 610.712 164.358 613.144ZM177.263 609.16C176.991 609.096 176.783 609.08 176.543 609.08C175.455 609.08 174.639 609.624 174.335 610.456L174.255 609.256H173.215V617H174.319V612.584C174.319 611.112 175.231 610.152 176.655 610.152H177.263V609.16ZM178.181 620.376C178.533 620.456 178.885 620.488 179.349 620.488C180.453 620.488 181.205 619.992 181.653 618.776L185.205 609.256H184.069L181.621 616.008L179.125 609.256H177.957L181.093 617.464L180.757 618.376C180.373 619.416 179.701 619.464 179.029 619.464H178.181V620.376ZM186.496 620.376H187.6V615.512C188.144 616.632 189.184 617.192 190.496 617.192C192.784 617.192 194.08 615.432 194.08 613.096C194.08 610.76 192.736 609.048 190.496 609.048C189.2 609.048 188.112 609.624 187.568 610.824L187.456 609.256H186.496V620.376ZM187.616 613.128C187.616 611.336 188.608 610.056 190.304 610.056C191.984 610.056 192.96 611.336 192.96 613.128C192.96 614.904 191.984 616.2 190.304 616.2C188.608 616.2 187.616 614.904 187.616 613.128ZM197.537 617V610.184H199.089V609.256H197.537V606.808H196.449V609.256H194.897V610.184H196.449V617H197.537ZM199.905 613.128C199.905 615.48 201.569 617.192 203.841 617.192C206.113 617.192 207.777 615.48 207.777 613.128C207.777 610.76 206.113 609.048 203.841 609.048C201.569 609.048 199.905 610.76 199.905 613.128ZM201.025 613.112C201.025 611.32 202.177 610.04 203.841 610.04C205.489 610.04 206.657 611.32 206.657 613.112C206.657 614.936 205.489 616.2 203.841 616.2C202.177 616.2 201.025 614.936 201.025 613.112ZM208.999 613.144C208.999 615.576 210.487 617.192 212.679 617.192C214.439 617.192 215.815 616.152 216.183 614.568H215.063C214.759 615.56 213.831 616.2 212.679 616.2C211.111 616.2 210.087 614.968 210.087 613.128C210.087 611.224 211.191 610.024 212.759 610.024C213.831 610.024 214.759 610.616 215.047 611.688H216.151C215.847 610.088 214.535 609.048 212.743 609.048C210.487 609.048 208.999 610.712 208.999 613.144ZM223.295 609.256V613.368C223.295 615.208 222.415 616.2 220.927 616.2C219.695 616.2 218.879 615.544 218.879 613.704V609.24H217.759V614.056C217.759 615.944 218.751 617.192 220.575 617.192C221.791 617.192 222.863 616.584 223.295 615.688L223.439 617H224.399V609.256H223.295ZM230.747 609.16C230.475 609.096 230.267 609.08 230.027 609.08C228.939 609.08 228.123 609.624 227.819 610.456L227.739 609.256H226.699V617H227.803V612.584C227.803 611.112 228.715 610.152 230.139 610.152H230.747V609.16ZM236.263 609.16C235.991 609.096 235.783 609.08 235.543 609.08C234.455 609.08 233.639 609.624 233.335 610.456L233.255 609.256H232.215V617H233.319V612.584C233.319 611.112 234.231 610.152 235.655 610.152H236.263V609.16ZM240.681 617.192C242.505 617.192 243.705 616.312 244.121 614.68H243.065C242.777 615.704 241.961 616.248 240.697 616.248C239.033 616.248 238.041 615.16 237.961 613.272H244.121V612.728C244.121 610.536 242.697 609.048 240.601 609.048C238.393 609.048 236.889 610.712 236.889 613.128C236.889 615.56 238.409 617.192 240.681 617.192ZM240.601 609.992C242.057 609.992 243.017 610.984 243.017 612.472H237.993C238.185 610.952 239.145 609.992 240.601 609.992ZM246.99 617V612.952C246.99 611.208 247.886 610.056 249.47 610.056C250.75 610.056 251.566 610.696 251.566 612.504V617H252.67V612.264C252.67 610.312 251.79 609.048 249.662 609.048C248.542 609.048 247.518 609.608 247.006 610.6L246.846 609.256H245.886V617H246.99ZM254.327 613.144C254.327 615.576 255.815 617.192 258.007 617.192C259.767 617.192 261.143 616.152 261.511 614.568H260.391C260.087 615.56 259.159 616.2 258.007 616.2C256.439 616.2 255.415 614.968 255.415 613.128C255.415 611.224 256.519 610.024 258.087 610.024C259.159 610.024 260.087 610.616 260.375 611.688H261.479C261.175 610.088 259.863 609.048 258.071 609.048C255.815 609.048 254.327 610.712 254.327 613.144ZM262.243 620.376C262.595 620.456 262.947 620.488 263.411 620.488C264.515 620.488 265.267 619.992 265.715 618.776L269.267 609.256H268.131L265.683 616.008L263.187 609.256H262.019L265.155 617.464L264.819 618.376C264.435 619.416 263.763 619.464 263.091 619.464H262.243V620.376ZM137.111 641.192C138.935 641.192 140.135 640.312 140.551 638.68H139.495C139.207 639.704 138.391 640.248 137.127 640.248C135.463 640.248 134.471 639.16 134.391 637.272H140.551V636.728C140.551 634.536 139.127 633.048 137.031 633.048C134.823 633.048 133.319 634.712 133.319 637.128C133.319 639.56 134.839 641.192 137.111 641.192ZM137.031 633.992C138.487 633.992 139.447 634.984 139.447 636.472H134.423C134.615 634.952 135.575 633.992 137.031 633.992ZM142.354 641L144.514 637.896L146.69 641H148.002L145.266 637.144L148.018 633.256H146.738L144.562 636.36L142.37 633.256H141.074L143.826 637.128L141.058 641H142.354ZM148.522 637.144C148.522 639.576 150.01 641.192 152.202 641.192C153.962 641.192 155.338 640.152 155.706 638.568H154.586C154.282 639.56 153.354 640.2 152.202 640.2C150.634 640.2 149.61 638.968 149.61 637.128C149.61 635.224 150.714 634.024 152.282 634.024C153.354 634.024 154.282 634.616 154.57 635.688H155.674C155.37 634.088 154.058 633.048 152.266 633.048C150.01 633.048 148.522 634.712 148.522 637.144ZM158.483 640.984V636.776C158.483 635.288 159.347 634.056 161.011 634.056C162.211 634.056 163.059 634.696 163.059 636.504V641H164.163V636.264C164.163 634.312 163.251 633.048 161.219 633.048C159.923 633.048 158.979 633.672 158.483 634.6V629.336H157.379V640.984H158.483ZM168.587 641.192C169.899 641.192 170.955 640.616 171.435 639.64L171.579 641H172.507V635.992C172.507 633.944 171.195 633.048 169.403 633.048C167.499 633.048 166.219 634.056 166.219 635.624H167.227C167.227 634.584 168.027 633.976 169.371 633.976C170.507 633.976 171.419 634.456 171.419 635.976V636.232L168.859 636.44C167.051 636.584 165.963 637.48 165.963 638.904C165.963 640.264 166.939 641.192 168.587 641.192ZM168.843 640.296C167.787 640.296 167.083 639.816 167.083 638.872C167.083 638.008 167.675 637.368 169.131 637.24L171.419 637.064V637.48C171.419 639.16 170.475 640.296 168.843 640.296ZM175.826 641V636.952C175.826 635.208 176.722 634.056 178.306 634.056C179.586 634.056 180.402 634.696 180.402 636.504V641H181.506V636.264C181.506 634.312 180.626 633.048 178.498 633.048C177.378 633.048 176.354 633.608 175.842 634.6L175.682 633.256H174.722V641H175.826ZM183.179 636.904C183.179 639.016 184.523 640.76 186.731 640.76C188.059 640.76 189.131 640.12 189.659 639.032V640.872C189.659 642.488 188.603 643.56 187.019 643.56C185.627 643.56 184.667 642.824 184.427 641.576H183.323C183.627 643.448 185.019 644.568 187.003 644.568C189.275 644.568 190.747 643.064 190.747 640.76V633.256H189.787L189.675 634.808C189.179 633.672 188.155 633.048 186.811 633.048C184.539 633.048 183.179 634.792 183.179 636.904ZM184.283 636.888C184.283 635.32 185.243 634.024 186.907 634.024C188.603 634.024 189.563 635.24 189.563 636.888C189.563 638.552 188.571 639.768 186.891 639.768C185.259 639.768 184.283 638.472 184.283 636.888ZM196.298 641.192C198.122 641.192 199.322 640.312 199.738 638.68H198.682C198.394 639.704 197.578 640.248 196.314 640.248C194.65 640.248 193.658 639.16 193.578 637.272H199.738V636.728C199.738 634.536 198.314 633.048 196.218 633.048C194.01 633.048 192.506 634.712 192.506 637.128C192.506 639.56 194.026 641.192 196.298 641.192ZM196.218 633.992C197.674 633.992 198.634 634.984 198.634 636.472H193.61C193.802 634.952 194.762 633.992 196.218 633.992ZM200.848 638.824C200.848 640.264 201.936 641.192 203.68 641.192C205.44 641.192 206.624 640.28 206.624 638.888C206.624 637.768 206.016 637.144 204.672 636.808L203.344 636.472C202.496 636.264 202.08 635.848 202.08 635.256C202.08 634.424 202.688 633.96 203.776 633.96C204.816 633.96 205.44 634.488 205.472 635.384H206.544C206.496 633.944 205.44 633.048 203.808 633.048C202.144 633.048 201.008 633.912 201.008 635.272C201.008 636.328 201.664 637.032 203.008 637.368L204.336 637.704C205.248 637.928 205.568 638.296 205.568 638.936C205.568 639.768 204.864 640.28 203.664 640.28C202.576 640.28 201.904 639.72 201.904 638.824H200.848Z" fill="black"/>
<rect x="42" y="568" width="256" height="86" stroke="black" stroke-width="2"/>
<path d="M37 752H123V814H37V752Z" fill="white"/>
<path d="M74 773L77.7825 777L86 769" stroke="#3ED59F" stroke-width="2" stroke-linecap="square"/>
<path d="M60.46 798.168C62.882 798.168 64.758 796.74 65.15 794.584H63.288C62.952 795.718 61.888 796.446 60.502 796.446C58.626 796.446 57.422 795.046 57.422 792.876C57.422 790.692 58.612 789.32 60.502 789.32C61.86 789.32 62.882 790.02 63.232 791.21H65.122C64.772 789.012 62.966 787.598 60.544 787.598C57.548 787.598 55.546 789.712 55.546 792.89C55.546 796.096 57.478 798.168 60.46 798.168ZM66.099 794.528C66.099 796.684 67.653 798.168 69.795 798.168C71.937 798.168 73.491 796.684 73.491 794.528C73.491 792.372 71.937 790.888 69.795 790.888C67.653 790.888 66.099 792.372 66.099 794.528ZM67.807 794.528C67.807 793.268 68.619 792.414 69.795 792.414C70.971 792.414 71.783 793.268 71.783 794.528C71.783 795.788 70.971 796.642 69.795 796.642C68.619 796.642 67.807 795.788 67.807 794.528ZM79.1849 791.056C78.9049 790.986 78.6669 790.958 78.4289 790.958C77.5049 790.958 76.8469 791.42 76.5529 792.106L76.4549 791.098H74.8449V798H76.5529V794.64C76.5529 793.296 77.3229 792.638 78.5549 792.638H79.1849V791.056ZM84.681 791.056C84.401 790.986 84.163 790.958 83.925 790.958C83.001 790.958 82.343 791.42 82.049 792.106L81.951 791.098H80.341V798H82.049V794.64C82.049 793.296 82.819 792.638 84.051 792.638H84.681V791.056ZM88.6987 798.182C90.5047 798.182 91.7647 797.272 92.0587 795.76H90.4767C90.2807 796.418 89.6647 796.782 88.7267 796.782C87.5927 796.782 86.9487 796.166 86.8227 794.948L92.0307 794.934V794.416C92.0307 792.26 90.7147 790.874 88.6427 790.874C86.6127 790.874 85.1987 792.372 85.1987 794.542C85.1987 796.684 86.6407 798.182 88.6987 798.182ZM88.6567 792.274C89.6787 792.274 90.3367 792.904 90.3367 793.856H86.8647C87.0327 792.82 87.6487 792.274 88.6567 792.274ZM92.9916 794.528C92.9916 796.726 94.3636 798.182 96.4636 798.182C98.2696 798.182 99.6136 797.076 99.8236 795.466H98.1016C97.9196 796.222 97.3176 796.642 96.4636 796.642C95.3716 796.642 94.6996 795.83 94.6996 794.528C94.6996 793.226 95.4276 792.4 96.5196 792.4C97.3316 792.4 97.9056 792.806 98.1016 793.59H99.8096C99.6276 791.924 98.3396 790.874 96.4496 790.874C94.4056 790.874 92.9916 792.386 92.9916 794.528ZM103.447 798V792.512H104.791V791.084H103.447V788.928H101.739V791.084H100.409V792.512H101.739V798H103.447Z" fill="#3B3D40"/>
<path d="M37 752H123V814H37V752Z" stroke="black" stroke-width="2"/>
<path d="M123 752H209V814H123V752Z" fill="white"/>
<path fill-rule="evenodd" clip-rule="evenodd" d="M170.294 767.293L171.001 766.586L172.416 768L171.709 768.707L167.415 773.001L171.709 777.295L172.416 778.002L171.002 779.417L170.295 778.71L166.001 774.415L161.707 778.709L161 779.416L159.586 778.001L160.293 777.294L164.587 773.001L160.294 768.708L159.587 768.001L161.001 766.587L161.708 767.294L166.001 771.587L170.294 767.293Z" fill="#F55348"/>
<path d="M145.87 798V794.332C145.87 793.058 145.856 792.092 145.758 791.476L148.348 798H150L152.604 791.462C152.506 792.19 152.506 792.792 152.506 794.85V798H154.242V787.766H152.478L149.174 795.914L145.87 787.766H144.134V798H145.87ZM157.109 789.698C157.669 789.698 158.131 789.236 158.131 788.662C158.131 788.088 157.669 787.64 157.109 787.64C156.521 787.64 156.059 788.088 156.059 788.662C156.059 789.236 156.521 789.698 157.109 789.698ZM156.255 798H157.963V791.084H156.255V798ZM159.196 795.9C159.196 797.258 160.288 798.182 162.01 798.182C163.718 798.182 164.908 797.314 164.908 795.914C164.908 794.85 164.32 794.318 163.158 794.052L161.912 793.758C161.324 793.618 161.016 793.366 161.016 792.974C161.016 792.456 161.408 792.148 162.08 792.148C162.738 792.148 163.13 792.526 163.144 793.114H164.768C164.754 791.77 163.704 790.874 162.15 790.874C160.554 790.874 159.406 791.686 159.406 793.044C159.406 794.15 160.008 794.738 161.254 795.018L162.5 795.312C163.116 795.452 163.298 795.704 163.298 796.054C163.298 796.558 162.864 796.88 162.066 796.88C161.282 796.88 160.834 796.502 160.82 795.9H159.196ZM165.676 795.9C165.676 797.258 166.768 798.182 168.49 798.182C170.198 798.182 171.388 797.314 171.388 795.914C171.388 794.85 170.8 794.318 169.638 794.052L168.392 793.758C167.804 793.618 167.496 793.366 167.496 792.974C167.496 792.456 167.888 792.148 168.56 792.148C169.218 792.148 169.61 792.526 169.624 793.114H171.248C171.234 791.77 170.184 790.874 168.63 790.874C167.034 790.874 165.886 791.686 165.886 793.044C165.886 794.15 166.488 794.738 167.734 795.018L168.98 795.312C169.596 795.452 169.778 795.704 169.778 796.054C169.778 796.558 169.344 796.88 168.546 796.88C167.762 796.88 167.314 796.502 167.3 795.9H165.676ZM175.783 798.182C177.589 798.182 178.849 797.272 179.143 795.76H177.561C177.365 796.418 176.749 796.782 175.811 796.782C174.677 796.782 174.033 796.166 173.907 794.948L179.115 794.934V794.416C179.115 792.26 177.799 790.874 175.727 790.874C173.697 790.874 172.283 792.372 172.283 794.542C172.283 796.684 173.725 798.182 175.783 798.182ZM175.741 792.274C176.763 792.274 177.421 792.904 177.421 793.856H173.949C174.117 792.82 174.733 792.274 175.741 792.274ZM183.324 798.182C184.374 798.182 185.27 797.72 185.69 796.922L185.802 798H187.37V787.584H185.676V791.966C185.242 791.28 184.388 790.874 183.422 790.874C181.336 790.874 180.076 792.414 180.076 794.57C180.076 796.712 181.322 798.182 183.324 798.182ZM183.702 796.614C182.512 796.614 181.784 795.746 181.784 794.514C181.784 793.282 182.512 792.4 183.702 792.4C184.892 792.4 185.662 793.268 185.662 794.514C185.662 795.76 184.892 796.614 183.702 796.614Z" fill="#3B3D40"/>
<path d="M123 752H209V814H123V752Z" stroke="black" stroke-width="2"/>
<path d="M209 752H295V814H209V752Z" fill="white"/>
<path fill-rule="evenodd" clip-rule="evenodd" d="M245 771.999H246L257.998 771.999H258.998V773.999H257.998L246 773.999H245V771.999Z" fill="#A7AFBA"/>
<path d="M222.398 798V790.748L227.214 798H228.978V787.766H227.214V795.018L222.412 787.766H220.634V798H222.398ZM230.585 794.528C230.585 796.684 232.139 798.168 234.281 798.168C236.423 798.168 237.977 796.684 237.977 794.528C237.977 792.372 236.423 790.888 234.281 790.888C232.139 790.888 230.585 792.372 230.585 794.528ZM232.293 794.528C232.293 793.268 233.105 792.414 234.281 792.414C235.457 792.414 236.269 793.268 236.269 794.528C236.269 795.788 235.457 796.642 234.281 796.642C233.105 796.642 232.293 795.788 232.293 794.528ZM244.239 798L245.065 795.634H248.887L249.713 798H251.603L247.907 787.766H246.073L242.377 798H244.239ZM246.759 790.818C246.857 790.538 246.941 790.23 246.983 790.034C247.011 790.244 247.109 790.552 247.193 790.818L248.369 794.122H245.597L246.759 790.818ZM251.914 794.528C251.914 796.726 253.285 798.182 255.386 798.182C257.192 798.182 258.536 797.076 258.746 795.466H257.024C256.842 796.222 256.24 796.642 255.386 796.642C254.294 796.642 253.622 795.83 253.622 794.528C253.622 793.226 254.35 792.4 255.442 792.4C256.254 792.4 256.828 792.806 257.024 793.59H258.732C258.55 791.924 257.262 790.874 255.372 790.874C253.328 790.874 251.914 792.386 251.914 794.528ZM262.369 798V792.512H263.713V791.084H262.369V788.928H260.661V791.084H259.331V792.512H260.661V798H262.369ZM265.629 789.698C266.189 789.698 266.651 789.236 266.651 788.662C266.651 788.088 266.189 787.64 265.629 787.64C265.041 787.64 264.579 788.088 264.579 788.662C264.579 789.236 265.041 789.698 265.629 789.698ZM264.775 798H266.483V791.084H264.775V798ZM267.841 794.528C267.841 796.684 269.395 798.168 271.537 798.168C273.679 798.168 275.233 796.684 275.233 794.528C275.233 792.372 273.679 790.888 271.537 790.888C269.395 790.888 267.841 792.372 267.841 794.528ZM269.549 794.528C269.549 793.268 270.361 792.414 271.537 792.414C272.713 792.414 273.525 793.268 273.525 794.528C273.525 795.788 272.713 796.642 271.537 796.642C270.361 796.642 269.549 795.788 269.549 794.528ZM278.295 798V794.276C278.295 793.156 278.939 792.428 279.989 792.428C280.871 792.428 281.445 792.988 281.445 794.15V798H283.153V793.744C283.153 791.952 282.257 790.874 280.521 790.874C279.583 790.874 278.743 791.28 278.309 791.98L278.169 791.084H276.587V798H278.295Z" fill="#3B3D40"/>
<path d="M209 752H295V814H209V752Z" stroke="black" stroke-width="2"/>
<path d="M116.233 724.968C118.569 724.968 120.105 723.384 120.105 721.128C120.105 718.84 118.585 717.304 116.233 717.304H111.609V729H113.657V724.968H116.233ZM115.833 719.128C117.193 719.128 117.961 719.832 117.961 721.112C117.961 722.392 117.209 723.144 115.801 723.144H113.657V719.128H115.833ZM126.499 721.064C126.179 720.984 125.907 720.952 125.635 720.952C124.579 720.952 123.827 721.48 123.491 722.264L123.379 721.112H121.539V729H123.491V725.16C123.491 723.624 124.371 722.872 125.779 722.872H126.499V721.064ZM128.797 719.512C129.437 719.512 129.965 718.984 129.965 718.328C129.965 717.672 129.437 717.16 128.797 717.16C128.125 717.16 127.597 717.672 127.597 718.328C127.597 718.984 128.125 719.512 128.797 719.512ZM127.821 729H129.773V721.096H127.821V729ZM131.325 725.032C131.325 727.544 132.893 729.208 135.293 729.208C137.357 729.208 138.893 727.944 139.133 726.104H137.165C136.957 726.968 136.269 727.448 135.293 727.448C134.045 727.448 133.277 726.52 133.277 725.032C133.277 723.544 134.109 722.6 135.357 722.6C136.285 722.6 136.941 723.064 137.165 723.96H139.117C138.909 722.056 137.437 720.856 135.277 720.856C132.941 720.856 131.325 722.584 131.325 725.032ZM144.122 729.208C146.186 729.208 147.626 728.168 147.962 726.44H146.154C145.93 727.192 145.226 727.608 144.154 727.608C142.858 727.608 142.122 726.904 141.978 725.512L147.93 725.496V724.904C147.93 722.44 146.426 720.856 144.058 720.856C141.738 720.856 140.122 722.568 140.122 725.048C140.122 727.496 141.77 729.208 144.122 729.208ZM144.074 722.456C145.242 722.456 145.994 723.176 145.994 724.264H142.026C142.218 723.08 142.922 722.456 144.074 722.456ZM158.301 729C161.693 729 164.029 726.616 164.029 723.176C164.029 719.688 161.645 717.304 158.189 717.304H154.093V729H158.301ZM157.997 719.192C160.413 719.192 161.869 720.696 161.869 723.176C161.869 725.608 160.445 727.112 158.109 727.112H156.141V719.192H157.997ZM166.625 719.512C167.265 719.512 167.793 718.984 167.793 718.328C167.793 717.672 167.265 717.16 166.625 717.16C165.953 717.16 165.425 717.672 165.425 718.328C165.425 718.984 165.953 719.512 166.625 719.512ZM165.649 729H167.601V721.096H165.649V729ZM174.577 721.064C174.257 720.984 173.985 720.952 173.713 720.952C172.657 720.952 171.905 721.48 171.569 722.264L171.457 721.112H169.617V729H171.569V725.16C171.569 723.624 172.449 722.872 173.857 722.872H174.577V721.064ZM179.169 729.208C181.233 729.208 182.673 728.168 183.009 726.44H181.201C180.977 727.192 180.273 727.608 179.201 727.608C177.905 727.608 177.169 726.904 177.025 725.512L182.977 725.496V724.904C182.977 722.44 181.473 720.856 179.105 720.856C176.785 720.856 175.169 722.568 175.169 725.048C175.169 727.496 176.817 729.208 179.169 729.208ZM179.121 722.456C180.289 722.456 181.041 723.176 181.041 724.264H177.073C177.265 723.08 177.969 722.456 179.121 722.456ZM184.075 725.032C184.075 727.544 185.643 729.208 188.043 729.208C190.107 729.208 191.643 727.944 191.883 726.104H189.915C189.707 726.968 189.019 727.448 188.043 727.448C186.795 727.448 186.027 726.52 186.027 725.032C186.027 723.544 186.859 722.6 188.107 722.6C189.035 722.6 189.691 723.064 189.915 723.96H191.867C191.659 722.056 190.187 720.856 188.027 720.856C185.691 720.856 184.075 722.584 184.075 725.032ZM196.024 729V722.728H197.56V721.096H196.024V718.632H194.072V721.096H192.552V722.728H194.072V729H196.024ZM199.75 719.512C200.39 719.512 200.918 718.984 200.918 718.328C200.918 717.672 200.39 717.16 199.75 717.16C199.078 717.16 198.55 717.672 198.55 718.328C198.55 718.984 199.078 719.512 199.75 719.512ZM198.774 729H200.726V721.096H198.774V729ZM202.278 725.032C202.278 727.496 204.054 729.192 206.502 729.192C208.95 729.192 210.726 727.496 210.726 725.032C210.726 722.568 208.95 720.872 206.502 720.872C204.054 720.872 202.278 722.568 202.278 725.032ZM204.23 725.032C204.23 723.592 205.158 722.616 206.502 722.616C207.846 722.616 208.774 723.592 208.774 725.032C208.774 726.472 207.846 727.448 206.502 727.448C205.158 727.448 204.23 726.472 204.23 725.032ZM214.226 729V724.744C214.226 723.464 214.962 722.632 216.162 722.632C217.17 722.632 217.826 723.272 217.826 724.6V729H219.778V724.136C219.778 722.088 218.754 720.856 216.77 720.856C215.698 720.856 214.738 721.32 214.242 722.12L214.082 721.096H212.274V729H214.226Z" fill="black"/>
<path d="M164.641 690.932C166.069 690.932 166.741 691.688 166.741 692.724C166.741 693.858 165.999 694.586 164.879 694.586C163.787 694.586 163.059 693.914 163.059 692.738H161.295C161.295 694.95 162.849 696.182 164.851 696.182C166.923 696.182 168.561 694.852 168.561 692.752C168.561 690.946 167.343 689.798 165.775 689.49L168.267 687.194V685.766H161.771V687.348H166.027L163.395 689.77V690.932H164.641Z" fill="black"/>
<rect x="154" y="680" width="22" height="22" rx="11" stroke="black" stroke-width="2"/>
</svg>
