<svg width="40" height="40" viewBox="0 0 40 40" fill="none" xmlns="http://www.w3.org/2000/svg">
<g clip-path="url(#clip0_7553_14910)">
<path d="M39.3968 24.8382C36.7256 35.5525 25.8738 42.0731 15.1583 39.4012C4.44712 36.73 -2.07344 25.8776 0.599032 15.164C3.26901 4.44845 14.1208 -2.07273 24.8332 0.598491C35.5481 3.26971 42.068 14.1234 39.3968 24.8382Z" fill="url(#paint0_linear_7553_14910)"/>
<path d="M28.8101 17.1505C29.2082 14.4893 27.182 13.0587 24.4114 12.1043L25.3102 8.49936L23.1158 7.95249L22.2408 11.4625C21.6639 11.3187 21.0715 11.1831 20.4827 11.0487L21.3639 7.51562L19.1708 6.96875L18.2715 10.5725C17.794 10.4637 17.3252 10.3562 16.8702 10.2431L16.8727 10.2318L13.8465 9.47622L13.2628 11.82C13.2628 11.82 14.8909 12.1931 14.8565 12.2162C15.7453 12.4381 15.9059 13.0262 15.879 13.4924L14.8553 17.5993C14.9165 17.6149 14.9959 17.6374 15.0834 17.6724C15.0103 17.6543 14.9321 17.6343 14.8515 17.6149L13.4165 23.368C13.3078 23.638 13.0322 24.043 12.4109 23.8892C12.4328 23.9211 10.8159 23.4911 10.8159 23.4911L9.72656 26.0029L12.5822 26.7148C13.1134 26.8479 13.634 26.9873 14.1465 27.1185L13.2384 30.7648L15.4303 31.3116L16.3296 27.7042C16.9284 27.8667 17.5096 28.0167 18.0784 28.1579L17.1821 31.7485L19.3765 32.2954L20.2846 28.656C24.0264 29.3641 26.8401 29.0785 28.0245 25.6942C28.9789 22.9692 27.977 21.3974 26.0083 20.3724C27.442 20.0417 28.522 19.0986 28.8101 17.1505V17.1505ZM23.7964 24.1811C23.1183 26.906 18.5302 25.4329 17.0427 25.0636L18.2477 20.233C19.7352 20.6042 24.5052 21.3392 23.7964 24.1811ZM24.4752 17.1111C23.8564 19.5899 20.0377 18.3305 18.799 18.0218L19.8915 13.6406C21.1302 13.9493 25.1195 14.5255 24.4752 17.1111V17.1111Z" fill="white"/>
</g>
<defs>
<linearGradient id="paint0_linear_7553_14910" x1="0" y1="0" x2="0" y2="40" gradientUnits="userSpaceOnUse">
<stop stop-color="#F9AA4B"/>
<stop offset="1" stop-color="#F7931A"/>
</linearGradient>
<clipPath id="clip0_7553_14910">
<rect width="39.9953" height="40" fill="white"/>
</clipPath>
</defs>
</svg>
