<svg width="309" height="40" viewBox="0 0 309 40" fill="none" xmlns="http://www.w3.org/2000/svg">
<g clip-path="url(#clip0_7553_14908)">
<path d="M39.3968 24.8382C36.7256 35.5525 25.8738 42.0731 15.1583 39.4012C4.44712 36.73 -2.07344 25.8776 0.599032 15.164C3.26901 4.44845 14.1208 -2.07273 24.8332 0.598491C35.5481 3.26971 42.068 14.1234 39.3968 24.8382Z" fill="url(#paint0_linear_7553_14908)"/>
<path d="M28.8101 17.1505C29.2082 14.4893 27.182 13.0587 24.4114 12.1043L25.3102 8.49936L23.1158 7.95249L22.2408 11.4625C21.6639 11.3187 21.0715 11.1831 20.4827 11.0487L21.3639 7.51562L19.1708 6.96875L18.2715 10.5725C17.794 10.4637 17.3252 10.3562 16.8702 10.2431L16.8727 10.2318L13.8465 9.47622L13.2628 11.82C13.2628 11.82 14.8909 12.1931 14.8565 12.2162C15.7453 12.4381 15.9059 13.0262 15.879 13.4924L14.8553 17.5993C14.9165 17.6149 14.9959 17.6374 15.0834 17.6724C15.0103 17.6543 14.9321 17.6343 14.8515 17.6149L13.4165 23.368C13.3078 23.638 13.0322 24.043 12.4109 23.8892C12.4328 23.9211 10.8159 23.4911 10.8159 23.4911L9.72656 26.0029L12.5822 26.7148C13.1134 26.8479 13.634 26.9873 14.1465 27.1185L13.2384 30.7648L15.4303 31.3116L16.3296 27.7042C16.9284 27.8667 17.5096 28.0167 18.0784 28.1579L17.1821 31.7485L19.3765 32.2954L20.2846 28.656C24.0264 29.3641 26.8401 29.0785 28.0245 25.6942C28.9789 22.9692 27.977 21.3974 26.0083 20.3724C27.442 20.0417 28.522 19.0986 28.8101 17.1505V17.1505ZM23.7964 24.1811C23.1183 26.906 18.5302 25.4329 17.0427 25.0636L18.2477 20.233C19.7352 20.6042 24.5052 21.3392 23.7964 24.1811ZM24.4752 17.1111C23.8564 19.5899 20.0377 18.3305 18.799 18.0218L19.8915 13.6406C21.1302 13.9493 25.1195 14.5255 24.4752 17.1111V17.1111Z" fill="white"/>
</g>
<path d="M57.9401 29H65.0441C68.6681 29 70.7561 27.248 70.7561 24.248C70.7561 22.208 69.8201 20.816 67.9721 20.216C69.6281 19.52 70.4921 18.128 70.4921 16.184C70.4921 13.256 68.3801 11.456 64.9241 11.456H57.9401V29ZM64.6601 14.168C66.3881 14.168 67.3481 14.984 67.3481 16.496C67.3481 18.056 66.4121 18.944 64.7321 18.944H61.0121V14.168H64.6601ZM64.9241 21.536C66.6281 21.536 67.6121 22.376 67.6121 23.864C67.6121 25.448 66.6521 26.288 64.9241 26.288H61.0121V21.536H64.9241ZM74.6049 14.768C75.5649 14.768 76.3569 13.976 76.3569 12.992C76.3569 12.008 75.5649 11.24 74.6049 11.24C73.5969 11.24 72.8049 12.008 72.8049 12.992C72.8049 13.976 73.5969 14.768 74.6049 14.768ZM73.1409 29H76.0689V17.144H73.1409V29ZM83.126 29V19.592H85.43V17.144H83.126V13.448H80.198V17.144H77.918V19.592H80.198V29H83.126ZM86.4371 23.048C86.4371 26.816 88.7891 29.312 92.3891 29.312C95.4851 29.312 97.7891 27.416 98.1491 24.656H95.1971C94.8851 25.952 93.8531 26.672 92.3891 26.672C90.5171 26.672 89.3651 25.28 89.3651 23.048C89.3651 20.816 90.6131 19.4 92.4851 19.4C93.8771 19.4 94.8611 20.096 95.1971 21.44H98.1251C97.8131 18.584 95.6051 16.784 92.3651 16.784C88.8611 16.784 86.4371 19.376 86.4371 23.048ZM99.6324 23.048C99.6324 26.744 102.296 29.288 105.968 29.288C109.64 29.288 112.304 26.744 112.304 23.048C112.304 19.352 109.64 16.808 105.968 16.808C102.296 16.808 99.6324 19.352 99.6324 23.048ZM102.56 23.048C102.56 20.888 103.952 19.424 105.968 19.424C107.984 19.424 109.376 20.888 109.376 23.048C109.376 25.208 107.984 26.672 105.968 26.672C103.952 26.672 102.56 25.208 102.56 23.048ZM116.089 14.768C117.049 14.768 117.841 13.976 117.841 12.992C117.841 12.008 117.049 11.24 116.089 11.24C115.081 11.24 114.289 12.008 114.289 12.992C114.289 13.976 115.081 14.768 116.089 14.768ZM114.625 29H117.553V17.144H114.625V29ZM123.506 29V22.616C123.506 20.696 124.61 19.448 126.41 19.448C127.922 19.448 128.906 20.408 128.906 22.4V29H131.834V21.704C131.834 18.632 130.298 16.784 127.322 16.784C125.714 16.784 124.274 17.48 123.53 18.68L123.29 17.144H120.578V29H123.506Z" fill="black"/>
<path d="M157.996 8V32" stroke="#B7C3CE"/>
<g clip-path="url(#clip1_7553_14908)">
<path fill-rule="evenodd" clip-rule="evenodd" d="M201.996 0C213.041 0 221.996 8.9548 221.996 20C221.996 31.0452 213.041 40 201.996 40C190.951 40 181.996 31.0476 181.996 20C181.996 8.9524 190.95 0 201.996 0Z" fill="#53AE94"/>
<path fill-rule="evenodd" clip-rule="evenodd" d="M204.467 21.8482V21.8458C204.329 21.8546 203.615 21.8974 202.027 21.8974C200.758 21.8974 199.865 21.8614 199.55 21.845V21.849C194.664 21.6326 191.017 20.7818 191.017 19.7638C191.017 18.7458 194.665 17.8962 199.55 17.6794V21.0014C199.87 21.0234 200.785 21.0774 202.048 21.0774C203.565 21.0774 204.328 21.0142 204.468 21.0014V17.6794C209.344 17.8966 212.983 18.7482 212.983 19.7626C212.983 20.777 209.343 21.629 204.468 21.8462L204.467 21.8482ZM204.466 17.3346V14.3594H211.269V9.82617H192.743V14.3594H199.547V17.3322C194.017 17.5862 189.859 18.6814 189.859 19.9934C189.859 21.3054 194.019 22.4006 199.547 22.6562V32.1862H204.467V22.6554C209.987 22.4006 214.137 21.3062 214.137 19.9954C214.137 18.6846 209.987 17.5902 204.467 17.3354" fill="white"/>
</g>
<path d="M238.404 14.288H243.54V29H246.612V14.288H251.748V11.456H238.404V14.288ZM256.953 29.312C260.049 29.312 262.209 27.752 262.713 25.16H260.001C259.665 26.288 258.609 26.912 257.001 26.912C255.057 26.912 253.953 25.856 253.737 23.768L262.665 23.744V22.856C262.665 19.16 260.409 16.784 256.857 16.784C253.377 16.784 250.953 19.352 250.953 23.072C250.953 26.744 253.425 29.312 256.953 29.312ZM256.881 19.184C258.633 19.184 259.761 20.264 259.761 21.896H253.809C254.097 20.12 255.153 19.184 256.881 19.184ZM268.923 29V19.592H271.227V17.144H268.923V13.448H265.995V17.144H263.715V19.592H265.995V29H268.923ZM275.975 29V22.52C275.975 20.744 277.055 19.448 278.903 19.448C280.391 19.448 281.375 20.408 281.375 22.4V29H284.303V21.704C284.303 18.632 282.767 16.784 279.839 16.784C278.135 16.784 276.743 17.528 275.999 18.68V11.144H273.047V29H275.975ZM292.484 29.312C295.58 29.312 297.74 27.752 298.244 25.16H295.532C295.196 26.288 294.14 26.912 292.532 26.912C290.588 26.912 289.484 25.856 289.268 23.768L298.196 23.744V22.856C298.196 19.16 295.94 16.784 292.388 16.784C288.908 16.784 286.484 19.352 286.484 23.072C286.484 26.744 288.956 29.312 292.484 29.312ZM292.412 19.184C294.164 19.184 295.292 20.264 295.292 21.896H289.34C289.628 20.12 290.684 19.184 292.412 19.184ZM307.979 17.096C307.499 16.976 307.091 16.928 306.683 16.928C305.099 16.928 303.971 17.72 303.467 18.896L303.299 17.168H300.539V29H303.467V23.24C303.467 20.936 304.787 19.808 306.899 19.808H307.979V17.096Z" fill="black"/>
<defs>
<linearGradient id="paint0_linear_7553_14908" x1="0" y1="0" x2="0" y2="40" gradientUnits="userSpaceOnUse">
<stop stop-color="#F9AA4B"/>
<stop offset="1" stop-color="#F7931A"/>
</linearGradient>
<clipPath id="clip0_7553_14908">
<rect width="39.9953" height="40" fill="white"/>
</clipPath>
<clipPath id="clip1_7553_14908">
<rect width="40" height="40" fill="white" transform="translate(181.996)"/>
</clipPath>
</defs>
</svg>
