<svg width="24" height="24" viewBox="0 0 24 24" fill="none" xmlns="http://www.w3.org/2000/svg">
<path d="M12 24C18.6274 24 24 18.6274 24 12C24 5.37258 18.6274 0 12 0C5.37258 0 0 5.37258 0 12C0 18.6274 5.37258 24 12 24Z" fill="white"/>
<path fill-rule="evenodd" clip-rule="evenodd" d="M12 7.0681L8.50436 10.5636L6.47034 8.52962L12 3L17.5313 8.53141L15.4973 10.5655L12 7.0681ZM7.06805 11.9997L5.03406 9.96574L3 11.9998L5.03396 14.0338L7.06805 11.9997ZM12 16.9316L8.50436 13.4361L6.46744 15.4674L6.47027 15.4702L12 20.9998L17.5313 15.4684L17.5324 15.4673L15.4973 13.4344L12 16.9316ZM18.966 14.0341L21 12.0001L18.966 9.96611L16.9321 12.0001L18.966 14.0341ZM14.0636 11.9981H14.0626L14.0645 11.9991L11.9996 14.0642L9.93737 12.0019L9.93457 11.9991L11.9996 9.93405L14.0636 11.9981Z" fill="black"/>
</svg>
