<svg width="500" height="178" viewBox="0 0 500 178" fill="none" xmlns="http://www.w3.org/2000/svg">
<g clip-path="url(#clip0_3362_34435)">
<path d="M-4 96L185.803 68L399.632 115L572.617 60H699.953L817.679 43H923.392L1055.53 11H1118" stroke="#6237DE" stroke-width="2"/>
<path d="M185.803 68L-4 96V178H1118V11H1055.53L923.392 43H817.679L699.953 60H572.617L399.632 115L185.803 68Z" fill="url(#paint0_linear_3362_34435)" fill-opacity="0.13"/>
<circle cx="41" cy="89" r="12" fill="#51D9B8"/>
<path d="M37 88.9997L39.5217 91.6663L45 86.333" stroke="white" stroke-width="2" stroke-linecap="round"/>
<circle cx="106" cy="80" r="12" fill="#F65D53"/>
<path fill-rule="evenodd" clip-rule="evenodd" d="M108.628 75.9599C109.019 75.5694 109.652 75.5694 110.043 75.9599C110.433 76.3504 110.433 76.9836 110.043 77.3741L107.416 80.0008L110.043 82.6281C110.434 83.0186 110.434 83.6518 110.043 84.0423C109.653 84.4328 109.019 84.4328 108.629 84.0423L106.002 81.4151L103.375 84.0416C102.985 84.4322 102.351 84.4322 101.961 84.0416C101.57 83.6511 101.57 83.0179 101.961 82.6274L104.587 80.0008L101.961 77.3748C101.571 76.9842 101.571 76.3511 101.961 75.9605C102.352 75.57 102.985 75.57 103.376 75.9605L106.002 78.5866L108.628 75.9599Z" fill="white"/>
<circle cx="183" cy="68" r="12" fill="#FFD761"/>
<path fill-rule="evenodd" clip-rule="evenodd" d="M178 67.999C178 67.4467 178.448 66.999 179 66.999L186.999 66.999C187.551 66.999 187.999 67.4467 187.999 67.999C187.999 68.5513 187.551 68.999 186.999 68.999L179 68.999C178.448 68.999 178 68.5513 178 67.999Z" fill="white"/>
<circle cx="251" cy="81" r="12" fill="#51D9B8"/>
<path d="M247 80.9997L249.522 83.6663L255 78.333" stroke="white" stroke-width="2" stroke-linecap="round"/>
<circle cx="399" cy="112" r="12" fill="#F65D53"/>
<path fill-rule="evenodd" clip-rule="evenodd" d="M401.628 107.96C402.019 107.569 402.652 107.569 403.043 107.96C403.433 108.35 403.433 108.984 403.043 109.374L400.416 112.001L403.043 114.628C403.434 115.019 403.434 115.652 403.043 116.042C402.653 116.433 402.019 116.433 401.629 116.042L399.002 113.415L396.375 116.042C395.985 116.432 395.351 116.432 394.961 116.042C394.57 115.651 394.57 115.018 394.961 114.627L397.587 112.001L394.961 109.375C394.571 108.984 394.571 108.351 394.961 107.961C395.352 107.57 395.985 107.57 396.376 107.961L399.002 110.587L401.628 107.96Z" fill="white"/>
</g>
<defs>
<linearGradient id="paint0_linear_3362_34435" x1="557" y1="-5.5" x2="557" y2="148" gradientUnits="userSpaceOnUse">
<stop offset="0.0897477" stop-color="#6B38FD"/>
<stop offset="1" stop-color="#6B38FD" stop-opacity="0"/>
</linearGradient>
<clipPath id="clip0_3362_34435">
<rect width="500" height="178" fill="white"/>
</clipPath>
</defs>
</svg>
