<svg width="596" height="72" viewBox="0 0 596 72" fill="none" xmlns="http://www.w3.org/2000/svg">
<g clip-path="url(#clip0_3362_34465)">
<path d="M82 8L82 64" stroke="#E3E7ED"/>
<path d="M96.6044 61V60.196H92.2724L94.2764 58.444C95.9924 56.944 96.5564 56.116 96.5564 54.868C96.5564 53.296 95.4764 52.252 93.8564 52.252C92.1644 52.252 91.0244 53.44 90.9764 55.24H91.8404C91.8764 53.908 92.6564 53.044 93.8444 53.044C94.9844 53.044 95.6804 53.752 95.6804 54.916C95.6804 55.936 95.2724 56.536 93.6884 57.916L90.9404 60.316V61H96.6044ZM103.639 59.176V58.408H102.631V52.408H101.479L97.2788 58.408V59.176H101.791V61H102.631V59.176H103.639ZM98.2148 58.408L101.791 53.296V58.408H98.2148ZM106.334 60.592C106.334 59.992 105.962 59.644 105.53 59.644C105.11 59.644 104.822 59.944 104.822 60.364C104.822 60.772 105.11 61.012 105.446 61.012C105.59 61.012 105.686 60.976 105.758 60.928C105.758 61.264 105.446 61.576 105.014 61.648V62.092C105.758 61.984 106.334 61.336 106.334 60.592ZM110.715 58.636C110.715 60.124 111.603 61.144 113.151 61.144C114.603 61.144 115.611 60.208 115.611 58.648V52.408H114.747V58.624C114.747 59.644 114.243 60.328 113.151 60.328C112.107 60.328 111.555 59.656 111.555 58.636V58.3H110.715V58.636ZM119.124 61.144C120.108 61.144 120.9 60.712 121.26 59.98L121.368 61H122.064V57.244C122.064 55.708 121.08 55.036 119.736 55.036C118.308 55.036 117.348 55.792 117.348 56.968H118.104C118.104 56.188 118.704 55.732 119.712 55.732C120.564 55.732 121.248 56.092 121.248 57.232V57.424L119.328 57.58C117.972 57.688 117.156 58.36 117.156 59.428C117.156 60.448 117.888 61.144 119.124 61.144ZM119.316 60.472C118.524 60.472 117.996 60.112 117.996 59.404C117.996 58.756 118.44 58.276 119.532 58.18L121.248 58.048V58.36C121.248 59.62 120.54 60.472 119.316 60.472ZM124.553 61V57.964C124.553 56.656 125.225 55.792 126.413 55.792C127.373 55.792 127.985 56.272 127.985 57.628V61H128.813V57.448C128.813 55.984 128.153 55.036 126.557 55.036C125.717 55.036 124.949 55.456 124.565 56.2L124.445 55.192H123.725V61H124.553Z" fill="#7D838D"/>
<path d="M406 8L406 64" stroke="#E3E7ED"/>
<path d="M415.717 52.408V53.2H420.685L417.289 61H418.177L421.561 53.2V52.408H415.717ZM430.408 57.22V56.44H426.892V53.2H431.092V52.408H426.028V61H426.892V57.22H430.408ZM434.343 61.144C435.711 61.144 436.611 60.484 436.923 59.26H436.131C435.915 60.028 435.303 60.436 434.355 60.436C433.107 60.436 432.363 59.62 432.303 58.204H436.923V57.796C436.923 56.152 435.855 55.036 434.283 55.036C432.627 55.036 431.499 56.284 431.499 58.096C431.499 59.92 432.639 61.144 434.343 61.144ZM434.283 55.744C435.375 55.744 436.095 56.488 436.095 57.604H432.327C432.471 56.464 433.191 55.744 434.283 55.744ZM438.967 61L439.051 59.812C439.459 60.712 440.263 61.144 441.235 61.144C442.927 61.144 443.935 59.848 443.935 58.108C443.935 56.356 442.951 55.036 441.259 55.036C440.275 55.036 439.483 55.468 439.075 56.32V52.252H438.247V61H438.967ZM439.087 58.084C439.087 56.752 439.831 55.78 441.103 55.78C442.363 55.78 443.095 56.752 443.095 58.084C443.095 59.428 442.363 60.388 441.103 60.388C439.831 60.388 439.087 59.428 439.087 58.084Z" fill="#7D838D"/>
<path d="M-38 34.8806C-22.2906 34.8806 -6.44837 35.1536 9.24937 34.8806C16.9174 34.7472 30.2103 34.6498 37.2825 33.1191C45.0574 31.4362 53.8368 28.9033 59.6638 31.908C67.0086 35.6953 71.4442 39.5924 82.1581 37.8532C91.7846 36.2905 103.296 32.8989 113.582 32.8989C116.563 32.8989 117.691 30.9171 119.799 30.9171C120.525 30.9171 125.854 36.0316 126.355 36.6422C127.675 38.2488 130.989 39.2368 133.816 40.2203C135.385 40.7661 134.946 36.5312 134.946 35.8715C134.946 35.1308 139.522 36.8624 142.068 36.8624C147.536 36.8624 151.268 37.2525 156.31 37.7982C160.926 38.2977 162.243 37.0006 165.014 35.6513C168.185 34.1068 175.318 34.8806 179.596 34.8806C195.453 34.8806 211.904 35.8715 228.089 35.8715C247.38 35.8715 266.672 35.8715 285.963 35.8715C295.065 35.8715 307.715 34.7851 315.127 35.8164C320.923 36.623 322.167 31.7313 324.17 30.1464C328.641 26.6081 329.36 32.8895 331.404 34.8806C332.111 35.569 338.556 42.3153 339.995 40.8258C340.977 39.8098 339.185 37.573 341.804 37.0826C347.209 36.0701 355.865 36.8624 361.472 36.8624C369.953 36.8624 381.887 37.9616 390.183 36.8073C394.185 36.2505 391.584 32.7929 394.931 35.8715C396.114 36.9602 399.37 36.1839 402.504 36.8624C408.04 38.0606 410.581 37.892 414.599 35.3761C422.208 30.6122 426.572 38.4393 430.99 42.3122C432.672 43.7867 447.581 39.607 451.901 38.8441C461.168 37.2075 466.577 36.4862 476.091 37.4128C488.508 38.6222 501.804 40.488 513.393 43.0278C518.758 44.2033 518.453 41.9528 520.628 39.835C523.454 37.0824 525.949 35.8052 530.575 35.8715C543.367 36.0547 555.675 35.1607 568.329 34.8806C580.423 34.6129 592.626 34.9423 604.727 34.8256C636.631 34.5179 668.768 31.908 700.582 31.908C701.406 31.908 713.401 42.9948 715.955 44.2389C720.667 46.5332 722.104 43.0232 723.416 41.8167C724.852 40.4959 732.657 39.772 735.398 38.734C739.001 37.3692 760.423 27.6629 765.239 29.1556C769.481 30.4701 768.38 36.613 773.83 38.6239C778.919 40.5015 780.354 39.2941 785.021 38.7891C797.146 37.4768 809.679 35.1297 822.21 34.8806C846.339 34.401 870.99 32.3758 895.571 31.963C899.252 31.9012 921.969 29.7463 922.36 32.1282C922.824 34.9517 925.724 36.9493 928.464 39.2845C928.881 39.6395 950.133 35.6954 952.88 35.1008C960.962 33.3515 963.035 45.069 977.296 41.5965C989.364 38.6582 1001.04 37.8532 1014.94 37.8532C1038.37 37.8532 1061.62 34.8806 1085.02 34.8806C1101.97 34.8806 1118.93 35.8715 1136 35.8715" stroke="#6B38FD" stroke-linecap="square"/>
<path d="M291 0H305V72H291V0Z" fill="#6B38FD" fill-opacity="0.15"/>
<path d="M353 64H385V72H353V64Z" fill="#6237DE"/>
</g>
<defs>
<clipPath id="clip0_3362_34465">
<rect width="1136" height="96" fill="white"/>
</clipPath>
</defs>
</svg>
