<svg width="24" height="24" viewBox="0 0 24 24" fill="none" xmlns="http://www.w3.org/2000/svg">
<circle cx="12" cy="12" r="10" fill="#F65D53"/>
<path fill-rule="evenodd" clip-rule="evenodd" d="M14.6284 7.95989C15.0189 7.56936 15.6521 7.56936 16.0426 7.95989C16.4331 8.35041 16.4331 8.98357 16.0426 9.3741L13.4159 12.0008L16.0431 14.6281C16.4336 15.0186 16.4336 15.6518 16.0431 16.0423C15.6526 16.4328 15.0194 16.4328 14.6289 16.0423L12.0017 13.4151L9.37508 16.0416C8.98455 16.4322 8.35139 16.4322 7.96086 16.0416C7.57034 15.6511 7.57034 15.0179 7.96086 14.6274L10.5874 12.0008L7.96135 9.37475C7.57083 8.98423 7.57083 8.35106 7.96135 7.96054C8.35187 7.57001 8.98504 7.57001 9.37556 7.96054L12.0017 10.5866L14.6284 7.95989Z" fill="white"/>
</svg>
