<svg width="286" height="114" viewBox="0 0 286 114" fill="none" xmlns="http://www.w3.org/2000/svg">
<rect opacity="0.3" x="0.5" y="0.5" width="285" height="113" fill="#6B38FD" stroke="white"/>
<path d="M254.929 17.0711H269.071M269.071 31.2132V17.0711M269.071 17.0711L251.393 34.7487" stroke="white"/>
<path d="M22.416 82.032C21.648 82.032 20.992 82.208 20.448 82.56C19.904 82.912 19.488 83.4027 19.2 84.032C18.912 84.6507 18.768 85.3867 18.768 86.24C18.768 87.104 18.9227 87.84 19.232 88.448C19.5413 89.0453 19.968 89.4987 20.512 89.808C21.0667 90.1173 21.7013 90.272 22.416 90.272C22.9387 90.272 23.3973 90.208 23.792 90.08C24.1973 89.9413 24.5387 89.744 24.816 89.488C25.0933 89.2213 25.3067 88.9013 25.456 88.528C25.616 88.1547 25.696 87.7387 25.696 87.28V86.256L26.656 87.232H22.16V85.424H27.6V92H25.872L25.696 90.112L25.936 90.352C25.7653 90.704 25.4933 91.0187 25.12 91.296C24.7573 91.5733 24.3253 91.792 23.824 91.952C23.3227 92.1013 22.7787 92.176 22.192 92.176C21.104 92.176 20.1387 91.9307 19.296 91.44C18.464 90.9387 17.808 90.24 17.328 89.344C16.8587 88.448 16.624 87.3973 16.624 86.192C16.624 85.008 16.864 83.9627 17.344 83.056C17.8347 82.1387 18.5173 81.4187 19.392 80.896C20.2773 80.3733 21.3013 80.112 22.464 80.112C23.36 80.112 24.1707 80.2773 24.896 80.608C25.6213 80.928 26.2133 81.3813 26.672 81.968C27.1413 82.5547 27.4293 83.248 27.536 84.048H25.376C25.1947 83.3547 24.832 82.848 24.288 82.528C23.744 82.1973 23.12 82.032 22.416 82.032ZM29.044 88.032C29.044 87.2107 29.2253 86.4907 29.588 85.872C29.9507 85.2427 30.452 84.752 31.092 84.4C31.732 84.048 32.4573 83.872 33.268 83.872C34.0893 83.872 34.8147 84.048 35.444 84.4C36.084 84.752 36.5853 85.2427 36.948 85.872C37.3107 86.4907 37.492 87.2107 37.492 88.032C37.492 88.8533 37.3107 89.5787 36.948 90.208C36.5853 90.8267 36.084 91.312 35.444 91.664C34.8147 92.016 34.0893 92.192 33.268 92.192C32.4573 92.192 31.732 92.016 31.092 91.664C30.452 91.312 29.9507 90.8267 29.588 90.208C29.2253 89.5787 29.044 88.8533 29.044 88.032ZM30.996 88.032C30.996 88.512 31.092 88.9333 31.284 89.296C31.4867 89.6587 31.7533 89.9413 32.084 90.144C32.4253 90.3467 32.82 90.448 33.268 90.448C33.716 90.448 34.1107 90.3467 34.452 90.144C34.7933 89.9413 35.06 89.6587 35.252 89.296C35.444 88.9333 35.54 88.512 35.54 88.032C35.54 87.5413 35.444 87.12 35.252 86.768C35.06 86.4053 34.7933 86.1227 34.452 85.92C34.1107 85.7173 33.716 85.616 33.268 85.616C32.82 85.616 32.4253 85.7173 32.084 85.92C31.7533 86.1227 31.4867 86.4053 31.284 86.768C31.092 87.12 30.996 87.5413 30.996 88.032ZM48.0878 81.28V92H46.0398V81.28H48.0878ZM42.6158 82.192V80.304H51.5118V82.192H42.6158ZM50.9815 88.032C50.9815 87.2107 51.1628 86.4907 51.5255 85.872C51.8882 85.2427 52.3895 84.752 53.0295 84.4C53.6695 84.048 54.3948 83.872 55.2055 83.872C56.0268 83.872 56.7522 84.048 57.3815 84.4C58.0215 84.752 58.5228 85.2427 58.8855 85.872C59.2482 86.4907 59.4295 87.2107 59.4295 88.032C59.4295 88.8533 59.2482 89.5787 58.8855 90.208C58.5228 90.8267 58.0215 91.312 57.3815 91.664C56.7522 92.016 56.0268 92.192 55.2055 92.192C54.3948 92.192 53.6695 92.016 53.0295 91.664C52.3895 91.312 51.8882 90.8267 51.5255 90.208C51.1628 89.5787 50.9815 88.8533 50.9815 88.032ZM52.9335 88.032C52.9335 88.512 53.0295 88.9333 53.2215 89.296C53.4242 89.6587 53.6908 89.9413 54.0215 90.144C54.3628 90.3467 54.7575 90.448 55.2055 90.448C55.6535 90.448 56.0482 90.3467 56.3895 90.144C56.7308 89.9413 56.9975 89.6587 57.1895 89.296C57.3815 88.9333 57.4775 88.512 57.4775 88.032C57.4775 87.5413 57.3815 87.12 57.1895 86.768C56.9975 86.4053 56.7308 86.1227 56.3895 85.92C56.0482 85.7173 55.6535 85.616 55.2055 85.616C54.7575 85.616 54.3628 85.7173 54.0215 85.92C53.6908 86.1227 53.4242 86.4053 53.2215 86.768C53.0295 87.12 52.9335 87.5413 52.9335 88.032ZM70.5213 92.192C69.3799 92.192 68.3879 91.9467 67.5453 91.456C66.7133 90.9547 66.0626 90.256 65.5933 89.36C65.1346 88.4533 64.9053 87.3867 64.9053 86.16C64.9053 84.944 65.1399 83.8827 65.6093 82.976C66.0893 82.0693 66.7613 81.3653 67.6253 80.864C68.4893 80.3627 69.4866 80.112 70.6173 80.112C71.5453 80.112 72.3773 80.2827 73.1133 80.624C73.8493 80.9653 74.4573 81.4453 74.9373 82.064C75.4173 82.672 75.7213 83.3973 75.8493 84.24H73.6892C73.4866 83.5573 73.1079 83.0293 72.5533 82.656C72.0093 82.272 71.3426 82.08 70.5533 82.08C69.8493 82.08 69.2306 82.2453 68.6973 82.576C68.1746 82.9067 67.7693 83.376 67.4813 83.984C67.1933 84.592 67.0493 85.3173 67.0493 86.16C67.0493 86.9707 67.1933 87.6853 67.4813 88.304C67.7693 88.912 68.1746 89.3867 68.6973 89.728C69.2306 90.0587 69.8493 90.224 70.5533 90.224C71.3533 90.224 72.0359 90.032 72.6013 89.648C73.1773 89.264 73.5613 88.7467 73.7533 88.096H75.8813C75.7319 88.9067 75.4066 89.6213 74.9053 90.24C74.4146 90.8587 73.7906 91.3387 73.0333 91.68C72.2866 92.0213 71.4493 92.192 70.5213 92.192ZM82.3899 84.064V85.872H81.6699C80.9552 85.872 80.3952 86.064 79.9899 86.448C79.5845 86.8213 79.3819 87.392 79.3819 88.16V92H77.4299V84.112H79.2699L79.4299 85.744H79.2379C79.3445 85.2213 79.5952 84.7947 79.9899 84.464C80.3845 84.1333 80.8965 83.968 81.5259 83.968C81.6645 83.968 81.8032 83.9733 81.9419 83.984C82.0805 83.9947 82.2299 84.0213 82.3899 84.064ZM85.1135 84.096L87.6895 91.392L86.6335 93.392L83.0495 84.096H85.1135ZM83.2575 95.664V94.048H84.4255C84.6815 94.048 84.9055 94.016 85.0975 93.952C85.2895 93.8987 85.4602 93.792 85.6095 93.632C85.7695 93.472 85.9028 93.2373 86.0095 92.928L89.2895 84.096H91.3055L87.4335 93.76C87.1455 94.4853 86.7828 95.0133 86.3455 95.344C85.9082 95.6747 85.3642 95.84 84.7135 95.84C84.4362 95.84 84.1748 95.824 83.9295 95.792C83.6948 95.7707 83.4708 95.728 83.2575 95.664ZM92.4143 95.664V84.096H94.2223L94.3503 85.296C94.5849 84.8373 94.9476 84.4853 95.4383 84.24C95.9289 83.984 96.4676 83.856 97.0543 83.856C97.8116 83.856 98.4623 84.0267 99.0063 84.368C99.5609 84.7093 99.9929 85.184 100.302 85.792C100.612 86.4 100.766 87.12 100.766 87.952C100.766 88.7733 100.622 89.504 100.334 90.144C100.046 90.784 99.6249 91.2907 99.0703 91.664C98.5263 92.0267 97.8596 92.208 97.0703 92.208C96.4836 92.208 95.9449 92.096 95.4543 91.872C94.9743 91.648 94.6116 91.3387 94.3663 90.944V95.664H92.4143ZM94.3823 88.048C94.3823 88.5173 94.4729 88.9333 94.6543 89.296C94.8356 89.6587 95.0916 89.9467 95.4223 90.16C95.7636 90.3627 96.1583 90.464 96.6063 90.464C97.0649 90.464 97.4596 90.3627 97.7903 90.16C98.1209 89.9467 98.3716 89.6587 98.5423 89.296C98.7129 88.9333 98.7983 88.5173 98.7983 88.048C98.7983 87.5787 98.7129 87.1627 98.5423 86.8C98.3716 86.4373 98.1209 86.1547 97.7903 85.952C97.4596 85.7387 97.0649 85.632 96.6063 85.632C96.1583 85.632 95.7636 85.7333 95.4223 85.936C95.0916 86.1387 94.8356 86.4213 94.6543 86.784C94.4729 87.1467 94.3823 87.568 94.3823 88.048ZM101.458 84.096H106.45V85.728H101.458V84.096ZM104.93 92H102.978V81.632H104.93V92ZM107.138 88.032C107.138 87.2107 107.319 86.4907 107.682 85.872C108.044 85.2427 108.546 84.752 109.186 84.4C109.826 84.048 110.551 83.872 111.362 83.872C112.183 83.872 112.908 84.048 113.538 84.4C114.178 84.752 114.679 85.2427 115.042 85.872C115.404 86.4907 115.586 87.2107 115.586 88.032C115.586 88.8533 115.404 89.5787 115.042 90.208C114.679 90.8267 114.178 91.312 113.538 91.664C112.908 92.016 112.183 92.192 111.362 92.192C110.551 92.192 109.826 92.016 109.186 91.664C108.546 91.312 108.044 90.8267 107.682 90.208C107.319 89.5787 107.138 88.8533 107.138 88.032ZM109.09 88.032C109.09 88.512 109.186 88.9333 109.378 89.296C109.58 89.6587 109.847 89.9413 110.178 90.144C110.519 90.3467 110.914 90.448 111.362 90.448C111.81 90.448 112.204 90.3467 112.546 90.144C112.887 89.9413 113.154 89.6587 113.346 89.296C113.538 88.9333 113.634 88.512 113.634 88.032C113.634 87.5413 113.538 87.12 113.346 86.768C113.154 86.4053 112.887 86.1227 112.546 85.92C112.204 85.7173 111.81 85.616 111.362 85.616C110.914 85.616 110.519 85.7173 110.178 85.92C109.847 86.1227 109.58 86.4053 109.378 86.768C109.186 87.12 109.09 87.5413 109.09 88.032ZM122.541 82.032C121.773 82.032 121.117 82.208 120.573 82.56C120.029 82.912 119.613 83.4027 119.325 84.032C119.037 84.6507 118.893 85.3867 118.893 86.24C118.893 87.104 119.048 87.84 119.357 88.448C119.666 89.0453 120.093 89.4987 120.637 89.808C121.192 90.1173 121.826 90.272 122.541 90.272C123.064 90.272 123.522 90.208 123.917 90.08C124.322 89.9413 124.664 89.744 124.941 89.488C125.218 89.2213 125.432 88.9013 125.581 88.528C125.741 88.1547 125.821 87.7387 125.821 87.28V86.256L126.781 87.232H122.285V85.424H127.725V92H125.997L125.821 90.112L126.061 90.352C125.89 90.704 125.618 91.0187 125.245 91.296C124.882 91.5733 124.45 91.792 123.949 91.952C123.448 92.1013 122.904 92.176 122.317 92.176C121.229 92.176 120.264 91.9307 119.421 91.44C118.589 90.9387 117.933 90.24 117.453 89.344C116.984 88.448 116.749 87.3973 116.749 86.192C116.749 85.008 116.989 83.9627 117.469 83.056C117.96 82.1387 118.642 81.4187 119.517 80.896C120.402 80.3733 121.426 80.112 122.589 80.112C123.485 80.112 124.296 80.2773 125.021 80.608C125.746 80.928 126.338 81.3813 126.797 81.968C127.266 82.5547 127.554 83.248 127.661 84.048H125.501C125.32 83.3547 124.957 82.848 124.413 82.528C123.869 82.1973 123.245 82.032 122.541 82.032ZM133.169 92.208C132.39 92.208 131.697 92.032 131.089 91.68C130.492 91.3173 130.022 90.8267 129.681 90.208C129.34 89.5787 129.169 88.8587 129.169 88.048C129.169 87.2267 129.334 86.5013 129.665 85.872C129.996 85.2427 130.46 84.752 131.057 84.4C131.654 84.0373 132.337 83.856 133.105 83.856C133.905 83.856 134.593 84.0267 135.169 84.368C135.745 84.6987 136.188 85.1627 136.497 85.76C136.817 86.3573 136.977 87.072 136.977 87.904V88.496L130.193 88.512L130.225 87.264H135.041C135.041 86.72 134.865 86.2827 134.513 85.952C134.172 85.6213 133.708 85.456 133.121 85.456C132.662 85.456 132.273 85.552 131.953 85.744C131.644 85.936 131.409 86.224 131.249 86.608C131.089 86.992 131.009 87.4613 131.009 88.016C131.009 88.8693 131.19 89.5147 131.553 89.952C131.926 90.3893 132.476 90.608 133.201 90.608C133.734 90.608 134.172 90.5067 134.513 90.304C134.865 90.1013 135.094 89.8133 135.201 89.44H137.009C136.838 90.304 136.412 90.9813 135.729 91.472C135.057 91.9627 134.204 92.208 133.169 92.208ZM140.491 92H138.539V84.096H140.347L140.507 85.12C140.753 84.7253 141.099 84.416 141.547 84.192C142.006 83.968 142.502 83.856 143.035 83.856C144.027 83.856 144.774 84.1493 145.275 84.736C145.787 85.3227 146.043 86.1227 146.043 87.136V92H144.091V87.6C144.091 86.9387 143.942 86.448 143.643 86.128C143.345 85.7973 142.939 85.632 142.427 85.632C141.819 85.632 141.345 85.824 141.003 86.208C140.662 86.592 140.491 87.104 140.491 87.744V92ZM147.961 92V84.096H149.913V92H147.961ZM148.921 82.512C148.59 82.512 148.308 82.4 148.073 82.176C147.849 81.9413 147.737 81.6587 147.737 81.328C147.737 80.9973 147.849 80.72 148.073 80.496C148.308 80.272 148.59 80.16 148.921 80.16C149.252 80.16 149.529 80.272 149.753 80.496C149.988 80.72 150.105 80.9973 150.105 81.328C150.105 81.6587 149.988 81.9413 149.753 82.176C149.529 82.4 149.252 82.512 148.921 82.512ZM155.466 92.208C154.687 92.208 153.994 92.032 153.386 91.68C152.789 91.3173 152.319 90.8267 151.978 90.208C151.637 89.5787 151.466 88.8587 151.466 88.048C151.466 87.2267 151.631 86.5013 151.962 85.872C152.293 85.2427 152.757 84.752 153.354 84.4C153.951 84.0373 154.634 83.856 155.402 83.856C156.202 83.856 156.89 84.0267 157.466 84.368C158.042 84.6987 158.485 85.1627 158.794 85.76C159.114 86.3573 159.274 87.072 159.274 87.904V88.496L152.49 88.512L152.522 87.264H157.338C157.338 86.72 157.162 86.2827 156.81 85.952C156.469 85.6213 156.005 85.456 155.418 85.456C154.959 85.456 154.57 85.552 154.25 85.744C153.941 85.936 153.706 86.224 153.546 86.608C153.386 86.992 153.306 87.4613 153.306 88.016C153.306 88.8693 153.487 89.5147 153.85 89.952C154.223 90.3893 154.773 90.608 155.498 90.608C156.031 90.608 156.469 90.5067 156.81 90.304C157.162 90.1013 157.391 89.8133 157.498 89.44H159.306C159.135 90.304 158.709 90.9813 158.026 91.472C157.354 91.9627 156.501 92.208 155.466 92.208Z" fill="white"/>
</svg>
