<svg width="56" height="56" viewBox="0 0 56 56" fill="none" xmlns="http://www.w3.org/2000/svg">
<rect width="56" height="56" fill="black"/>
<path d="M33.3934 20.576C31.7259 19.3645 29.6991 18.7496 27.6395 18.8305C25.5799 18.9115 23.6076 19.6834 22.0402 21.0221C20.4729 22.3607 19.4019 24.188 18.9998 26.2095C18.5977 28.2311 18.8879 30.3292 19.8236 32.1657C20.7594 34.0022 22.2862 35.4702 24.158 36.3331C26.0298 37.196 28.1377 37.4036 30.1419 36.9225C32.1461 36.4413 33.93 35.2994 35.206 33.6807C36.188 32.4351 36.8252 30.9631 37.0668 29.4115H34.5552C34.3412 30.4051 33.9028 31.3433 33.2659 32.1512C32.3334 33.3341 31.0298 34.1686 29.5652 34.5202C28.1006 34.8718 26.5602 34.7201 25.1923 34.0895C23.8245 33.4589 22.7087 32.3861 22.0249 31.0441C21.3411 29.702 21.129 28.1688 21.4229 26.6915C21.7167 25.2142 22.4994 23.8789 23.6447 22.9007C24.7901 21.9224 26.2314 21.3583 27.7365 21.2992C29.2416 21.24 30.7227 21.6893 31.9413 22.5747L30.2817 24.8589C29.5762 24.3464 28.7187 24.0862 27.8473 24.1205C26.976 24.1547 26.1415 24.4813 25.4784 25.0476C24.8153 25.614 24.3622 26.3871 24.1921 27.2423C24.022 28.0976 24.1447 28.9853 24.5406 29.7623C24.9365 30.5392 25.5825 31.1603 26.3744 31.5254C27.1663 31.8905 28.0581 31.9783 28.906 31.7747C29.754 31.5712 30.5087 31.0881 31.0486 30.4032C31.2873 30.1004 31.4779 29.7658 31.6162 29.4115H27.9997V26.588H40C40 26.588 39.9993 27.4867 39.9162 29.4115C39.833 31.3362 38.7987 33.684 37.4233 35.4287C35.7547 37.5454 33.4219 39.0387 30.801 39.6679C28.1801 40.2971 25.4237 40.0257 22.9759 38.8972C20.5282 37.7688 18.5316 35.8491 17.3079 33.4475C16.0842 31.0459 15.7047 28.3023 16.2306 25.6587C16.7564 23.0151 18.157 20.6256 20.2065 18.8751C22.2561 17.1246 24.8354 16.1151 27.5286 16.0093C30.2219 15.9034 32.8724 16.7075 35.053 18.2917L33.3934 20.576Z" fill="white"/>
</svg>
