<svg width="125" height="48" viewBox="0 0 125 48" fill="none" xmlns="http://www.w3.org/2000/svg">
<path d="M2.016 17L2.842 14.634H6.664L7.49 17H9.38L5.684 6.766H3.85L0.154 17H2.016ZM4.536 9.818C4.634 9.538 4.718 9.23 4.76 9.034C4.788 9.244 4.886 9.552 4.97 9.818L6.146 13.122H3.374L4.536 9.818ZM9.69084 13.528C9.69084 15.726 11.0628 17.182 13.1628 17.182C14.9688 17.182 16.3128 16.076 16.5228 14.466H14.8008C14.6188 15.222 14.0168 15.642 13.1628 15.642C12.0708 15.642 11.3988 14.83 11.3988 13.528C11.3988 12.226 12.1268 11.4 13.2188 11.4C14.0308 11.4 14.6048 11.806 14.8008 12.59H16.5088C16.3268 10.924 15.0388 9.874 13.1488 9.874C11.1048 9.874 9.69084 11.386 9.69084 13.528ZM17.3881 13.528C17.3881 15.726 18.7601 17.182 20.8601 17.182C22.6661 17.182 24.0101 16.076 24.2201 14.466H22.4981C22.3161 15.222 21.7141 15.642 20.8601 15.642C19.7681 15.642 19.0961 14.83 19.0961 13.528C19.0961 12.226 19.8241 11.4 20.9161 11.4C21.7281 11.4 22.3021 11.806 22.4981 12.59H24.2061C24.0241 10.924 22.7361 9.874 20.8461 9.874C18.8021 9.874 17.3881 11.386 17.3881 13.528ZM30.1814 10.084V13.71C30.1814 15.026 29.6634 15.656 28.5854 15.656C27.6334 15.656 27.1154 15.124 27.1154 13.808V10.084H25.4074V14.41C25.4074 16.104 26.3454 17.182 27.9414 17.182C28.8654 17.182 29.7614 16.734 30.1814 16.076L30.3074 17H31.8894V10.084H30.1814ZM37.9935 10.056C37.7135 9.986 37.4755 9.958 37.2375 9.958C36.3135 9.958 35.6555 10.42 35.3615 11.106L35.2635 10.098H33.6535V17H35.3615V13.64C35.3615 12.296 36.1315 11.638 37.3635 11.638H37.9935V10.056ZM40.9341 17.182C42.0121 17.182 42.9501 16.692 43.2441 15.978L43.3701 17H44.8681V12.8C44.8681 10.882 43.7201 9.874 41.8581 9.874C39.9821 9.874 38.7501 10.854 38.7501 12.352H40.2061C40.2061 11.624 40.7661 11.204 41.7741 11.204C42.6421 11.204 43.2021 11.582 43.2021 12.52V12.674L41.1301 12.828C39.4921 12.954 38.5681 13.752 38.5681 15.026C38.5681 16.328 39.4641 17.182 40.9341 17.182ZM41.4941 15.894C40.7241 15.894 40.3041 15.586 40.3041 14.956C40.3041 14.396 40.7101 14.046 41.7741 13.948L43.2161 13.836V14.2C43.2161 15.264 42.5441 15.894 41.4941 15.894ZM46.1401 13.528C46.1401 15.726 47.5121 17.182 49.6121 17.182C51.4181 17.182 52.7621 16.076 52.9721 14.466H51.2501C51.0681 15.222 50.4661 15.642 49.6121 15.642C48.5201 15.642 47.8481 14.83 47.8481 13.528C47.8481 12.226 48.5761 11.4 49.6681 11.4C50.4801 11.4 51.0541 11.806 51.2501 12.59H52.9581C52.7761 10.924 51.4881 9.874 49.5981 9.874C47.5541 9.874 46.1401 11.386 46.1401 13.528ZM53.5046 20.206C53.8826 20.304 54.3026 20.36 54.7786 20.36C55.9126 20.36 56.6406 19.828 57.1586 18.54L60.5466 10.084H58.7826L56.9066 15.124L55.1286 10.084H53.3226L56.1086 17.294L55.9126 17.812C55.6186 18.624 55.1986 18.778 54.5266 18.778H53.5046V20.206Z" fill="black"/>
<path d="M9.744 39.776V37.984H8.32V30.304H5.744L0.448 37.984V39.776H6.384V42H8.32V39.776H9.744ZM2.624 37.984L6.384 32.512V37.984H2.624ZM17.4743 38.56C18.7863 36.784 19.2503 35.76 19.2503 34.352C19.2503 31.952 17.3623 30.096 14.8343 30.096C12.3383 30.096 10.4823 31.84 10.4823 34.336C10.4823 36.704 12.1143 38.4 14.5303 38.4C14.8183 38.4 15.1223 38.352 15.4103 38.272L12.6103 42H14.9463L17.4743 38.56ZM17.1543 34.336C17.1543 35.744 16.2263 36.72 14.8343 36.72C13.4903 36.72 12.5463 35.744 12.5463 34.336C12.5463 32.912 13.4903 31.92 14.8343 31.92C16.2103 31.92 17.1543 32.912 17.1543 34.336ZM21.57 42.192C22.274 42.192 22.866 41.616 22.866 40.928C22.866 40.224 22.274 39.648 21.57 39.648C20.866 39.648 20.274 40.224 20.274 40.928C20.274 41.616 20.866 42.192 21.57 42.192ZM31.0993 38.56C32.4113 36.784 32.8753 35.76 32.8753 34.352C32.8753 31.952 30.9873 30.096 28.4593 30.096C25.9633 30.096 24.1073 31.84 24.1073 34.336C24.1073 36.704 25.7393 38.4 28.1553 38.4C28.4433 38.4 28.7473 38.352 29.0353 38.272L26.2353 42H28.5713L31.0993 38.56ZM30.7793 34.336C30.7793 35.744 29.8513 36.72 28.4593 36.72C27.1153 36.72 26.1713 35.744 26.1713 34.336C26.1713 32.912 27.1153 31.92 28.4593 31.92C29.8353 31.92 30.7793 32.912 30.7793 34.336ZM34.1411 36.176C34.1411 39.792 35.9811 42.208 39.0851 42.208C42.1891 42.208 44.0451 39.792 44.0451 36.176C44.0451 32.544 42.0771 30.08 39.0851 30.08C36.0931 30.08 34.1411 32.544 34.1411 36.176ZM36.1571 36.176C36.1571 33.408 37.2451 31.888 39.0851 31.888C40.9411 31.888 42.0291 33.408 42.0291 36.176C42.0291 38.88 40.9411 40.4 39.0851 40.4C37.2451 40.4 36.1571 38.88 36.1571 36.176ZM51.3904 33.152C51.3904 31.36 50.1104 30.08 48.3344 30.08C46.5584 30.08 45.2784 31.36 45.2784 33.152C45.2784 34.96 46.5584 36.224 48.3344 36.224C50.1104 36.224 51.3904 34.96 51.3904 33.152ZM57.8064 30.32H55.8544L46.9744 42H48.9264L57.8064 30.32ZM49.8384 33.152C49.8384 34.08 49.2304 34.72 48.3344 34.72C47.4544 34.72 46.8464 34.08 46.8464 33.152C46.8464 32.224 47.4384 31.584 48.3344 31.584C49.2304 31.584 49.8384 32.224 49.8384 33.152ZM59.5184 39.136C59.5184 37.344 58.2544 36.064 56.4784 36.064C54.6864 36.064 53.4224 37.344 53.4224 39.136C53.4224 40.928 54.6864 42.208 56.4784 42.208C58.2544 42.208 59.5184 40.928 59.5184 39.136ZM57.9664 39.136C57.9664 40.064 57.3584 40.704 56.4784 40.704C55.5824 40.704 54.9744 40.064 54.9744 39.136C54.9744 38.208 55.5824 37.568 56.4784 37.568C57.3584 37.568 57.9664 38.208 57.9664 39.136Z" fill="#6237DE"/>
<path d="M121.571 24.0001C121.571 18.9945 119.745 14.1605 116.437 10.404C113.129 6.64746 108.564 4.22611 103.599 3.5936C98.633 2.96109 93.6072 4.16081 89.4627 6.968C85.3182 9.77519 82.3395 13.9972 81.0846 18.843C79.8298 23.6889 80.3848 28.826 82.6458 33.292C84.9068 37.7579 88.7186 41.2463 93.367 43.1034C98.0155 44.9605 103.182 45.0591 107.897 43.3805C112.613 41.7019 116.555 38.3615 118.985 33.985L107.294 27.4948C106.444 29.0266 105.064 30.1958 103.414 30.7833C101.763 31.3708 99.9549 31.3363 98.3279 30.6863C96.701 30.0363 95.3668 28.8154 94.5755 27.2523C93.7841 25.6892 93.5899 23.8912 94.0291 22.1952C94.4683 20.4991 95.5108 19.0214 96.9614 18.0389C98.412 17.0564 100.171 16.6365 101.909 16.8579C103.647 17.0792 105.244 17.9267 106.402 19.2415C107.56 20.5563 108.199 22.2481 108.199 24.0001H121.571Z" fill="#6B38FD" fill-opacity="0.15"/>
<mask id="path-5-inside-1_7553_8274" fill="white">
<path d="M101 0C106.962 7.10915e-08 112.71 2.2188 117.125 6.22434C121.541 10.2299 124.307 15.7354 124.887 21.6688C125.466 27.6023 123.816 33.5388 120.258 38.3225C116.7 43.1062 111.489 46.3945 105.64 47.5471L102.392 31.0641C104.147 30.7183 105.71 29.7318 106.777 28.2967C107.845 26.8616 108.34 25.0807 108.166 23.3007C107.992 21.5206 107.162 19.869 105.838 18.6673C104.513 17.4656 102.788 16.8 101 16.8V0Z"/>
</mask>
<path d="M101 0C106.962 7.10915e-08 112.71 2.2188 117.125 6.22434C121.541 10.2299 124.307 15.7354 124.887 21.6688C125.466 27.6023 123.816 33.5388 120.258 38.3225C116.7 43.1062 111.489 46.3945 105.64 47.5471L102.392 31.0641C104.147 30.7183 105.71 29.7318 106.777 28.2967C107.845 26.8616 108.34 25.0807 108.166 23.3007C107.992 21.5206 107.162 19.869 105.838 18.6673C104.513 17.4656 102.788 16.8 101 16.8V0Z" fill="#6237DE" stroke="#6237DE" stroke-width="2" mask="url(#path-5-inside-1_7553_8274)"/>
</svg>
