<svg width="134" height="40" viewBox="0 0 134 40" fill="none" xmlns="http://www.w3.org/2000/svg">
<g clip-path="url(#clip0_7553_8317)">
<path d="M39.3968 24.8382C36.7256 35.5525 25.8738 42.0731 15.1583 39.4012C4.44712 36.73 -2.07344 25.8776 0.599032 15.164C3.26901 4.44845 14.1208 -2.07273 24.8332 0.598491C35.5481 3.26971 42.068 14.1234 39.3968 24.8382Z" fill="url(#paint0_linear_7553_8317)"/>
<path d="M28.8121 17.1505C29.2102 14.4893 27.184 13.0587 24.4134 12.1043L25.3121 8.49936L23.1178 7.95249L22.2428 11.4625C21.6659 11.3187 21.0734 11.1831 20.4847 11.0487L21.3659 7.51562L19.1728 6.96875L18.2734 10.5725C17.7959 10.4637 17.3272 10.3562 16.8722 10.2431L16.8747 10.2318L13.8485 9.47622L13.2647 11.82C13.2647 11.82 14.8928 12.1931 14.8585 12.2162C15.7472 12.4381 15.9078 13.0262 15.881 13.4924L14.8572 17.5993C14.9185 17.6149 14.9978 17.6374 15.0853 17.6724C15.0122 17.6543 14.9341 17.6343 14.8535 17.6149L13.4185 23.368C13.3097 23.638 13.0341 24.043 12.4129 23.8892C12.4347 23.9211 10.8179 23.4911 10.8179 23.4911L9.72852 26.0029L12.5841 26.7148C13.1154 26.8479 13.636 26.9873 14.1485 27.1185L13.2404 30.7648L15.4322 31.3116L16.3316 27.7042C16.9303 27.8667 17.5116 28.0167 18.0803 28.1579L17.1841 31.7485L19.3784 32.2954L20.2865 28.656C24.0284 29.3641 26.8421 29.0785 28.0265 25.6942C28.9808 22.9692 27.979 21.3974 26.0102 20.3724C27.444 20.0417 28.524 19.0986 28.8121 17.1505ZM23.7984 24.1811C23.1203 26.906 18.5322 25.4329 17.0447 25.0636L18.2497 20.233C19.7372 20.6042 24.5071 21.3392 23.7984 24.1811ZM24.4771 17.1111C23.8584 19.5899 20.0397 18.3305 18.8009 18.0218L19.8934 13.6406C21.1322 13.9493 25.1215 14.5255 24.4771 17.1111Z" fill="white"/>
</g>
<path d="M57.9401 29H65.0441C68.6681 29 70.7561 27.248 70.7561 24.248C70.7561 22.208 69.8201 20.816 67.9721 20.216C69.6281 19.52 70.4921 18.128 70.4921 16.184C70.4921 13.256 68.3801 11.456 64.9241 11.456H57.9401V29ZM64.6601 14.168C66.3881 14.168 67.3481 14.984 67.3481 16.496C67.3481 18.056 66.4121 18.944 64.7321 18.944H61.0121V14.168H64.6601ZM64.9241 21.536C66.6281 21.536 67.6121 22.376 67.6121 23.864C67.6121 25.448 66.6521 26.288 64.9241 26.288H61.0121V21.536H64.9241ZM74.6049 14.768C75.5649 14.768 76.3569 13.976 76.3569 12.992C76.3569 12.008 75.5649 11.24 74.6049 11.24C73.5969 11.24 72.8049 12.008 72.8049 12.992C72.8049 13.976 73.5969 14.768 74.6049 14.768ZM73.1409 29H76.0689V17.144H73.1409V29ZM83.126 29V19.592H85.43V17.144H83.126V13.448H80.198V17.144H77.918V19.592H80.198V29H83.126ZM86.4371 23.048C86.4371 26.816 88.7891 29.312 92.3891 29.312C95.4851 29.312 97.7891 27.416 98.1491 24.656H95.1971C94.8851 25.952 93.8531 26.672 92.3891 26.672C90.5171 26.672 89.3651 25.28 89.3651 23.048C89.3651 20.816 90.6131 19.4 92.4851 19.4C93.8771 19.4 94.8611 20.096 95.1971 21.44H98.1251C97.8131 18.584 95.6051 16.784 92.3651 16.784C88.8611 16.784 86.4371 19.376 86.4371 23.048ZM99.6324 23.048C99.6324 26.744 102.296 29.288 105.968 29.288C109.64 29.288 112.304 26.744 112.304 23.048C112.304 19.352 109.64 16.808 105.968 16.808C102.296 16.808 99.6324 19.352 99.6324 23.048ZM102.56 23.048C102.56 20.888 103.952 19.424 105.968 19.424C107.984 19.424 109.376 20.888 109.376 23.048C109.376 25.208 107.984 26.672 105.968 26.672C103.952 26.672 102.56 25.208 102.56 23.048ZM116.089 14.768C117.049 14.768 117.841 13.976 117.841 12.992C117.841 12.008 117.049 11.24 116.089 11.24C115.081 11.24 114.289 12.008 114.289 12.992C114.289 13.976 115.081 14.768 116.089 14.768ZM114.625 29H117.553V17.144H114.625V29ZM123.506 29V22.616C123.506 20.696 124.61 19.448 126.41 19.448C127.922 19.448 128.906 20.408 128.906 22.4V29H131.834V21.704C131.834 18.632 130.298 16.784 127.322 16.784C125.714 16.784 124.274 17.48 123.53 18.68L123.29 17.144H120.578V29H123.506Z" fill="black"/>
<defs>
<linearGradient id="paint0_linear_7553_8317" x1="0" y1="0" x2="0" y2="40" gradientUnits="userSpaceOnUse">
<stop stop-color="#F9AA4B"/>
<stop offset="1" stop-color="#F7931A"/>
</linearGradient>
<clipPath id="clip0_7553_8317">
<rect width="39.9953" height="40" fill="white"/>
</clipPath>
</defs>
</svg>
