<svg width="82" height="24" viewBox="0 0 82 24" fill="none" xmlns="http://www.w3.org/2000/svg">
<path d="M6.00004 12L9.78253 16L18 8" stroke="#51D9B8" stroke-width="2" stroke-linecap="square"/>
<path d="M37.46 17.168C39.882 17.168 41.758 15.74 42.15 13.584H40.288C39.952 14.718 38.888 15.446 37.502 15.446C35.626 15.446 34.422 14.046 34.422 11.876C34.422 9.692 35.612 8.32 37.502 8.32C38.86 8.32 39.882 9.02 40.232 10.21H42.122C41.772 8.012 39.966 6.598 37.544 6.598C34.548 6.598 32.546 8.712 32.546 11.89C32.546 15.096 34.478 17.168 37.46 17.168ZM43.099 13.528C43.099 15.684 44.653 17.168 46.795 17.168C48.937 17.168 50.491 15.684 50.491 13.528C50.491 11.372 48.937 9.888 46.795 9.888C44.653 9.888 43.099 11.372 43.099 13.528ZM44.807 13.528C44.807 12.268 45.619 11.414 46.795 11.414C47.971 11.414 48.783 12.268 48.783 13.528C48.783 14.788 47.971 15.642 46.795 15.642C45.619 15.642 44.807 14.788 44.807 13.528ZM56.1849 10.056C55.9049 9.986 55.6669 9.958 55.4289 9.958C54.5049 9.958 53.8469 10.42 53.5529 11.106L53.4549 10.098H51.8449V17H53.5529V13.64C53.5529 12.296 54.3229 11.638 55.5549 11.638H56.1849V10.056ZM61.681 10.056C61.401 9.986 61.163 9.958 60.925 9.958C60.001 9.958 59.343 10.42 59.049 11.106L58.951 10.098H57.341V17H59.049V13.64C59.049 12.296 59.819 11.638 61.051 11.638H61.681V10.056ZM65.6987 17.182C67.5047 17.182 68.7647 16.272 69.0587 14.76H67.4767C67.2807 15.418 66.6647 15.782 65.7267 15.782C64.5927 15.782 63.9487 15.166 63.8227 13.948L69.0307 13.934V13.416C69.0307 11.26 67.7147 9.874 65.6427 9.874C63.6127 9.874 62.1987 11.372 62.1987 13.542C62.1987 15.684 63.6407 17.182 65.6987 17.182ZM65.6567 11.274C66.6787 11.274 67.3367 11.904 67.3367 12.856H63.8647C64.0327 11.82 64.6487 11.274 65.6567 11.274ZM69.9916 13.528C69.9916 15.726 71.3636 17.182 73.4636 17.182C75.2696 17.182 76.6136 16.076 76.8236 14.466H75.1016C74.9196 15.222 74.3176 15.642 73.4636 15.642C72.3716 15.642 71.6996 14.83 71.6996 13.528C71.6996 12.226 72.4276 11.4 73.5196 11.4C74.3316 11.4 74.9056 11.806 75.1016 12.59H76.8096C76.6276 10.924 75.3396 9.874 73.4496 9.874C71.4056 9.874 69.9916 11.386 69.9916 13.528ZM80.4469 17V11.512H81.7909V10.084H80.4469V7.928H78.7389V10.084H77.4089V11.512H78.7389V17H80.4469Z" fill="black"/>
</svg>
