<svg width="59" height="40" viewBox="0 0 59 40" fill="none" xmlns="http://www.w3.org/2000/svg">
<path d="M3.344 0.304H1.296V12H8.24V10.112H3.344V0.304ZM11.9694 12.208C13.2014 12.208 14.2734 11.648 14.6094 10.832L14.7534 12H16.4654V7.2C16.4654 5.008 15.1534 3.856 13.0254 3.856C10.8814 3.856 9.47338 4.976 9.47338 6.688H11.1374C11.1374 5.856 11.7774 5.376 12.9294 5.376C13.9214 5.376 14.5614 5.808 14.5614 6.88V7.056L12.1934 7.232C10.3214 7.376 9.26538 8.288 9.26538 9.744C9.26538 11.232 10.2894 12.208 11.9694 12.208ZM12.6094 10.736C11.7294 10.736 11.2494 10.384 11.2494 9.664C11.2494 9.024 11.7134 8.624 12.9294 8.512L14.5774 8.384V8.8C14.5774 10.016 13.8094 10.736 12.6094 10.736ZM17.775 9.6C17.775 11.152 19.023 12.208 20.991 12.208C22.943 12.208 24.303 11.216 24.303 9.616C24.303 8.4 23.631 7.792 22.303 7.488L20.879 7.152C20.207 6.992 19.855 6.704 19.855 6.256C19.855 5.664 20.303 5.312 21.071 5.312C21.823 5.312 22.271 5.744 22.287 6.416H24.143C24.127 4.88 22.927 3.856 21.151 3.856C19.327 3.856 18.015 4.784 18.015 6.336C18.015 7.6 18.703 8.272 20.127 8.592L21.551 8.928C22.255 9.088 22.463 9.376 22.463 9.776C22.463 10.352 21.967 10.72 21.055 10.72C20.159 10.72 19.647 10.288 19.631 9.6H17.775ZM28.4773 12V5.728H30.0133V4.096H28.4773V1.632H26.5253V4.096H25.0053V5.728H26.5253V12H28.4773ZM4.144 30.208C5.776 30.208 6.544 31.072 6.544 32.256C6.544 33.552 5.696 34.384 4.416 34.384C3.168 34.384 2.336 33.616 2.336 32.272H0.32C0.32 34.8 2.096 36.208 4.384 36.208C6.752 36.208 8.624 34.688 8.624 32.288C8.624 30.224 7.232 28.912 5.44 28.56L8.288 25.936V24.304H0.864V26.112H5.728L2.72 28.88V30.208H4.144ZM9.79738 30.176C9.79738 33.792 11.6374 36.208 14.7414 36.208C17.8454 36.208 19.7014 33.792 19.7014 30.176C19.7014 26.544 17.7334 24.08 14.7414 24.08C11.7494 24.08 9.79738 26.544 9.79738 30.176ZM11.8134 30.176C11.8134 27.408 12.9014 25.888 14.7414 25.888C16.5974 25.888 17.6854 27.408 17.6854 30.176C17.6854 32.88 16.5974 34.4 14.7414 34.4C12.9014 34.4 11.8134 32.88 11.8134 30.176ZM28.9591 36.208C30.1591 36.208 31.1831 35.68 31.6631 34.768L31.7911 36H33.5831V24.096H31.6471V29.104C31.1511 28.32 30.1751 27.856 29.0711 27.856C26.6871 27.856 25.2471 29.616 25.2471 32.08C25.2471 34.528 26.6711 36.208 28.9591 36.208ZM29.3911 34.416C28.0311 34.416 27.1991 33.424 27.1991 32.016C27.1991 30.608 28.0311 29.6 29.3911 29.6C30.7511 29.6 31.6311 30.592 31.6311 32.016C31.6311 33.44 30.7511 34.416 29.3911 34.416ZM37.9694 36.208C39.2014 36.208 40.2734 35.648 40.6094 34.832L40.7534 36H42.4654V31.2C42.4654 29.008 41.1534 27.856 39.0254 27.856C36.8814 27.856 35.4734 28.976 35.4734 30.688H37.1374C37.1374 29.856 37.7774 29.376 38.9294 29.376C39.9214 29.376 40.5614 29.808 40.5614 30.88V31.056L38.1934 31.232C36.3214 31.376 35.2654 32.288 35.2654 33.744C35.2654 35.232 36.2894 36.208 37.9694 36.208ZM38.6094 34.736C37.7294 34.736 37.2494 34.384 37.2494 33.664C37.2494 33.024 37.7134 32.624 38.9294 32.512L40.5774 32.384V32.8C40.5774 34.016 39.8094 34.736 38.6094 34.736ZM43.4763 39.664C43.9083 39.776 44.3883 39.84 44.9323 39.84C46.2283 39.84 47.0603 39.232 47.6523 37.76L51.5243 28.096H49.5083L47.3643 33.856L45.3323 28.096H43.2683L46.4523 36.336L46.2283 36.928C45.8923 37.856 45.4123 38.032 44.6443 38.032H43.4763V39.664ZM51.8531 33.6C51.8531 35.152 53.1011 36.208 55.0691 36.208C57.0211 36.208 58.3811 35.216 58.3811 33.616C58.3811 32.4 57.7091 31.792 56.3811 31.488L54.9571 31.152C54.2851 30.992 53.9331 30.704 53.9331 30.256C53.9331 29.664 54.3811 29.312 55.1491 29.312C55.9011 29.312 56.3491 29.744 56.3651 30.416H58.2211C58.2051 28.88 57.0051 27.856 55.2291 27.856C53.4051 27.856 52.0931 28.784 52.0931 30.336C52.0931 31.6 52.7811 32.272 54.2051 32.592L55.6291 32.928C56.3331 33.088 56.5411 33.376 56.5411 33.776C56.5411 34.352 56.0451 34.72 55.1331 34.72C54.2371 34.72 53.7251 34.288 53.7091 33.6H51.8531Z" fill="black"/>
</svg>
