<svg width="200" height="240" viewBox="0 0 200 240" fill="none" xmlns="http://www.w3.org/2000/svg">
<g filter="url(#filter0_dd_8416_8646)">
<rect x="10" y="6" width="176" height="216" fill="black"/>
<rect x="15" y="11" width="174" height="214" fill="white"/>
<path d="M30.516 42.632C30.516 45.344 31.896 47.156 34.224 47.156C36.552 47.156 37.944 45.344 37.944 42.632C37.944 39.908 36.468 38.06 34.224 38.06C31.98 38.06 30.516 39.908 30.516 42.632ZM32.028 42.632C32.028 40.556 32.844 39.416 34.224 39.416C35.616 39.416 36.432 40.556 36.432 42.632C36.432 44.66 35.616 45.8 34.224 45.8C32.844 45.8 32.028 44.66 32.028 42.632ZM40.2249 40.808C39.2409 42.14 38.8929 42.908 38.8929 43.964C38.8929 45.764 40.3089 47.156 42.2049 47.156C44.0769 47.156 45.4689 45.848 45.4689 43.976C45.4689 42.2 44.2449 40.928 42.4329 40.928C42.2169 40.928 41.9889 40.964 41.7729 41.024L43.8729 38.228H42.1209L40.2249 40.808ZM40.4649 43.976C40.4649 42.92 41.1609 42.188 42.2049 42.188C43.2129 42.188 43.9209 42.92 43.9209 43.976C43.9209 45.044 43.2009 45.788 42.2049 45.788C41.1729 45.788 40.4649 45.044 40.4649 43.976ZM47.7623 42.776C48.2903 42.776 48.7343 42.344 48.7343 41.828C48.7343 41.3 48.2903 40.868 47.7623 40.868C47.2343 40.868 46.7903 41.3 46.7903 41.828C46.7903 42.344 47.2343 42.776 47.7623 42.776ZM47.7623 47.144C48.2903 47.144 48.7343 46.712 48.7343 46.196C48.7343 45.668 48.2903 45.236 47.7623 45.236C47.2343 45.236 46.7903 45.668 46.7903 46.196C46.7903 46.712 47.2343 47.144 47.7623 47.144ZM50.1449 42.632C50.1449 45.344 51.5249 47.156 53.8529 47.156C56.1809 47.156 57.5729 45.344 57.5729 42.632C57.5729 39.908 56.0969 38.06 53.8529 38.06C51.6089 38.06 50.1449 39.908 50.1449 42.632ZM51.6569 42.632C51.6569 40.556 52.4729 39.416 53.8529 39.416C55.2449 39.416 56.0609 40.556 56.0609 42.632C56.0609 44.66 55.2449 45.8 53.8529 45.8C52.4729 45.8 51.6569 44.66 51.6569 42.632ZM58.6058 42.632C58.6058 45.344 59.9858 47.156 62.3138 47.156C64.6418 47.156 66.0338 45.344 66.0338 42.632C66.0338 39.908 64.5578 38.06 62.3138 38.06C60.0698 38.06 58.6058 39.908 58.6058 42.632ZM60.1178 42.632C60.1178 40.556 60.9338 39.416 62.3138 39.416C63.7058 39.416 64.5218 40.556 64.5218 42.632C64.5218 44.66 63.7058 45.8 62.3138 45.8C60.9338 45.8 60.1178 44.66 60.1178 42.632ZM71.5132 47L72.2212 44.972H75.4972L76.2052 47H77.8252L74.6572 38.228H73.0852L69.9172 47H71.5132ZM73.6732 40.844C73.7572 40.604 73.8292 40.34 73.8652 40.172C73.8892 40.352 73.9732 40.616 74.0452 40.844L75.0532 43.676H72.6772L73.6732 40.844ZM80.4131 47V43.856C80.4131 42.764 80.4011 41.936 80.3171 41.408L82.5371 47H83.9531L86.1851 41.396C86.1011 42.02 86.1011 42.536 86.1011 44.3V47H87.5891V38.228H86.0771L83.2451 45.212L80.4131 38.228H78.9251V47H80.4131Z" fill="#6237DE"/>
<path d="M100.072 44.444H103.936V43.148H100.072V44.444Z" fill="#6237DE"/>
<path d="M117.586 42.632C117.586 45.344 118.966 47.156 121.294 47.156C123.622 47.156 125.014 45.344 125.014 42.632C125.014 39.908 123.538 38.06 121.294 38.06C119.05 38.06 117.586 39.908 117.586 42.632ZM119.098 42.632C119.098 40.556 119.914 39.416 121.294 39.416C122.686 39.416 123.502 40.556 123.502 42.632C123.502 44.66 122.686 45.8 121.294 45.8C119.914 45.8 119.098 44.66 119.098 42.632ZM127.295 40.808C126.311 42.14 125.963 42.908 125.963 43.964C125.963 45.764 127.379 47.156 129.275 47.156C131.147 47.156 132.539 45.848 132.539 43.976C132.539 42.2 131.315 40.928 129.503 40.928C129.287 40.928 129.059 40.964 128.843 41.024L130.943 38.228H129.191L127.295 40.808ZM127.535 43.976C127.535 42.92 128.231 42.188 129.275 42.188C130.283 42.188 130.991 42.92 130.991 43.976C130.991 45.044 130.271 45.788 129.275 45.788C128.243 45.788 127.535 45.044 127.535 43.976ZM134.833 42.776C135.361 42.776 135.805 42.344 135.805 41.828C135.805 41.3 135.361 40.868 134.833 40.868C134.305 40.868 133.861 41.3 133.861 41.828C133.861 42.344 134.305 42.776 134.833 42.776ZM134.833 47.144C135.361 47.144 135.805 46.712 135.805 46.196C135.805 45.668 135.361 45.236 134.833 45.236C134.305 45.236 133.861 45.668 133.861 46.196C133.861 46.712 134.305 47.144 134.833 47.144ZM139.807 42.656C141.031 42.656 141.607 43.304 141.607 44.192C141.607 45.164 140.971 45.788 140.011 45.788C139.075 45.788 138.451 45.212 138.451 44.204H136.939C136.939 46.1 138.271 47.156 139.987 47.156C141.763 47.156 143.167 46.016 143.167 44.216C143.167 42.668 142.123 41.684 140.779 41.42L142.915 39.452V38.228H137.347V39.584H140.995L138.739 41.66V42.656H139.807ZM144.047 42.632C144.047 45.344 145.427 47.156 147.755 47.156C150.083 47.156 151.475 45.344 151.475 42.632C151.475 39.908 149.999 38.06 147.755 38.06C145.511 38.06 144.047 39.908 144.047 42.632ZM145.559 42.632C145.559 40.556 146.375 39.416 147.755 39.416C149.147 39.416 149.963 40.556 149.963 42.632C149.963 44.66 149.147 45.8 147.755 45.8C146.375 45.8 145.559 44.66 145.559 42.632ZM156.955 47L157.663 44.972H160.939L161.647 47H163.267L160.099 38.228H158.527L155.359 47H156.955ZM159.115 40.844C159.199 40.604 159.271 40.34 159.307 40.172C159.331 40.352 159.415 40.616 159.487 40.844L160.495 43.676H158.119L159.115 40.844ZM165.855 47V43.856C165.855 42.764 165.843 41.936 165.759 41.408L167.979 47H169.395L171.627 41.396C171.543 42.02 171.543 42.536 171.543 44.3V47H173.031V38.228H171.519L168.687 45.212L165.855 38.228H164.367V47H165.855Z" fill="#6237DE"/>
<path d="M30 66H174" stroke="#E3E7ED" stroke-linecap="round" stroke-linejoin="round"/>
<path d="M80.5858 104.586C79.8047 105.367 79.8047 106.633 80.5858 107.414C81.3668 108.195 82.6332 108.195 83.4142 107.414L80.5858 104.586ZM94 94L95.4142 92.5858C94.6332 91.8047 93.3668 91.8047 92.5858 92.5858L94 94ZM106 106L104.586 107.414C105.367 108.195 106.633 108.195 107.414 107.414L106 106ZM122 90H124C124 88.8954 123.105 88 122 88V90ZM112 88C110.895 88 110 88.8954 110 90C110 91.1046 110.895 92 112 92V88ZM120 100C120 101.105 120.895 102 122 102C123.105 102 124 101.105 124 100H120ZM83.4142 107.414L95.4142 95.4142L92.5858 92.5858L80.5858 104.586L83.4142 107.414ZM92.5858 95.4142L104.586 107.414L107.414 104.586L95.4142 92.5858L92.5858 95.4142ZM107.414 107.414L123.414 91.4142L120.586 88.5858L104.586 104.586L107.414 107.414ZM122 88H112V92H122V88ZM120 90V100H124V90H120Z" fill="#51D9B8"/>
<path d="M92.4113 135.728C92.4113 138.48 94.2033 140.192 97.0353 140.192C99.8833 140.192 101.675 138.464 101.675 135.728V128.304H99.6273V135.6C99.6273 137.264 98.6993 138.208 97.0353 138.208C95.3713 138.208 94.4593 137.28 94.4593 135.6V128.304H92.4113V135.728ZM103.906 143.664H105.858V138.944C106.354 139.744 107.378 140.208 108.562 140.208C110.914 140.208 112.258 138.416 112.258 135.952C112.258 133.472 110.786 131.856 108.562 131.856C107.362 131.856 106.322 132.384 105.842 133.296L105.714 132.096H103.906V143.664ZM105.874 136.048C105.874 134.624 106.754 133.632 108.098 133.632C109.474 133.632 110.29 134.64 110.29 136.048C110.29 137.456 109.474 138.448 108.098 138.448C106.754 138.448 105.874 137.472 105.874 136.048Z" fill="black"/>
<path d="M30 170H174V210H30V170Z" fill="#EEF1F4"/>
<path d="M48.9878 190.208C50.6198 190.208 51.3878 191.072 51.3878 192.256C51.3878 193.552 50.5398 194.384 49.2598 194.384C48.0118 194.384 47.1798 193.616 47.1798 192.272H45.1638C45.1638 194.8 46.9398 196.208 49.2278 196.208C51.5958 196.208 53.4678 194.688 53.4678 192.288C53.4678 190.224 52.0758 188.912 50.2838 188.56L53.1318 185.936V184.304H45.7078V186.112H50.5718L47.5638 188.88V190.208H48.9878ZM56.3051 187.744C54.9931 189.52 54.5291 190.544 54.5291 191.952C54.5291 194.352 56.4171 196.208 58.9451 196.208C61.4411 196.208 63.2971 194.464 63.2971 191.968C63.2971 189.6 61.6651 187.904 59.2491 187.904C58.9611 187.904 58.6571 187.952 58.3691 188.032L61.1691 184.304H58.8331L56.3051 187.744ZM56.6251 191.968C56.6251 190.56 57.5531 189.584 58.9451 189.584C60.2891 189.584 61.2331 190.56 61.2331 191.968C61.2331 193.392 60.2731 194.384 58.9451 194.384C57.5691 194.384 56.6251 193.392 56.6251 191.968ZM68.5325 196.192C71.1405 196.192 72.9165 194.464 72.9165 191.936C72.9165 189.632 71.3645 188.048 69.0285 188.048C68.2285 188.048 67.5245 188.256 66.9645 188.624L67.5885 186.192H72.2125V184.304H66.1165L64.6765 190.432L66.4845 190.816C66.9005 190.208 67.7165 189.76 68.6125 189.76C70.0205 189.76 70.8365 190.688 70.8365 192.048C70.8365 193.472 69.9565 194.368 68.5805 194.368C67.2845 194.368 66.5005 193.584 66.5005 192.256H64.4685C64.4685 194.624 66.0845 196.192 68.5325 196.192ZM80.9274 192.56C82.2394 190.784 82.7034 189.76 82.7034 188.352C82.7034 185.952 80.8154 184.096 78.2874 184.096C75.7914 184.096 73.9354 185.84 73.9354 188.336C73.9354 190.704 75.5674 192.4 77.9834 192.4C78.2714 192.4 78.5754 192.352 78.8634 192.272L76.0634 196H78.3994L80.9274 192.56ZM80.6074 188.336C80.6074 189.744 79.6794 190.72 78.2874 190.72C76.9434 190.72 75.9994 189.744 75.9994 188.336C75.9994 186.912 76.9434 185.92 78.2874 185.92C79.6634 185.92 80.6074 186.912 80.6074 188.336ZM86.2134 186.144V196H88.1814V184.304H83.6534V186.144H86.2134ZM91.8044 196.192C92.5084 196.192 93.1004 195.616 93.1004 194.928C93.1004 194.224 92.5084 193.648 91.8044 193.648C91.1004 193.648 90.5084 194.224 90.5084 194.928C90.5084 195.616 91.1004 196.192 91.8044 196.192ZM96.0082 187.744C94.6963 189.52 94.2323 190.544 94.2323 191.952C94.2323 194.352 96.1203 196.208 98.6483 196.208C101.144 196.208 103 194.464 103 191.968C103 189.6 101.368 187.904 98.9523 187.904C98.6643 187.904 98.3602 187.952 98.0723 188.032L100.872 184.304H98.5363L96.0082 187.744ZM96.3283 191.968C96.3283 190.56 97.2563 189.584 98.6483 189.584C99.9923 189.584 100.936 190.56 100.936 191.968C100.936 193.392 99.9763 194.384 98.6483 194.384C97.2723 194.384 96.3283 193.392 96.3283 191.968ZM107.832 190.208C109.464 190.208 110.232 191.072 110.232 192.256C110.232 193.552 109.384 194.384 108.104 194.384C106.856 194.384 106.024 193.616 106.024 192.272H104.008C104.008 194.8 105.784 196.208 108.072 196.208C110.44 196.208 112.312 194.688 112.312 192.288C112.312 190.224 110.92 188.912 109.128 188.56L111.976 185.936V184.304H104.552V186.112H109.416L106.408 188.88V190.208H107.832ZM118.325 191.728C118.325 194.48 120.117 196.192 122.949 196.192C125.797 196.192 127.589 194.464 127.589 191.728V184.304H125.541V191.6C125.541 193.264 124.613 194.208 122.949 194.208C121.285 194.208 120.373 193.28 120.373 191.6V184.304H118.325V191.728ZM129.437 187.568C129.437 189.36 130.477 190.496 132.461 190.928L134.317 191.344C135.277 191.552 135.677 192.016 135.677 192.8C135.677 193.776 134.813 194.368 133.453 194.368C132.141 194.368 131.341 193.776 131.325 192.784H129.277C129.325 194.88 130.957 196.208 133.453 196.208C136.029 196.208 137.725 194.8 137.725 192.624C137.725 190.88 136.749 189.856 134.749 189.424L132.909 189.024C131.933 188.8 131.485 188.336 131.485 187.504C131.485 186.528 132.301 185.92 133.565 185.92C134.717 185.92 135.437 186.512 135.485 187.52H137.533C137.469 185.408 135.965 184.096 133.597 184.096C131.133 184.096 129.437 185.52 129.437 187.568ZM143.785 196C147.177 196 149.513 193.616 149.513 190.176C149.513 186.688 147.129 184.304 143.673 184.304H139.577V196H143.785ZM143.481 186.192C145.897 186.192 147.353 187.696 147.353 190.176C147.353 192.608 145.929 194.112 143.593 194.112H141.625V186.192H143.481ZM149.991 186.192H153.415V196H155.463V186.192H158.887V184.304H149.991V186.192Z" fill="#6237DE"/>
<rect x="15" y="11" width="174" height="214" stroke="black" stroke-width="2"/>
</g>
<defs>
<filter id="filter0_dd_8416_8646" x="-4" y="-4" width="204" height="244" filterUnits="userSpaceOnUse" color-interpolation-filters="sRGB">
<feFlood flood-opacity="0" result="BackgroundImageFix"/>
<feColorMatrix in="SourceAlpha" type="matrix" values="0 0 0 0 0 0 0 0 0 0 0 0 0 0 0 0 0 0 127 0" result="hardAlpha"/>
<feOffset dy="4"/>
<feGaussianBlur stdDeviation="5"/>
<feColorMatrix type="matrix" values="0 0 0 0 0.149722 0 0 0 0 0.167192 0 0 0 0 0.183333 0 0 0 0.07 0"/>
<feBlend mode="normal" in2="BackgroundImageFix" result="effect1_dropShadow_8416_8646"/>
<feColorMatrix in="SourceAlpha" type="matrix" values="0 0 0 0 0 0 0 0 0 0 0 0 0 0 0 0 0 0 127 0" result="hardAlpha"/>
<feOffset/>
<feGaussianBlur stdDeviation="0.5"/>
<feColorMatrix type="matrix" values="0 0 0 0 0.14902 0 0 0 0 0.168627 0 0 0 0 0.184314 0 0 0 0.04 0"/>
<feBlend mode="normal" in2="effect1_dropShadow_8416_8646" result="effect2_dropShadow_8416_8646"/>
<feBlend mode="normal" in="SourceGraphic" in2="effect2_dropShadow_8416_8646" result="shape"/>
</filter>
</defs>
</svg>
