<svg width="192" height="40" viewBox="0 0 192 40" fill="none" xmlns="http://www.w3.org/2000/svg">
<path d="M5.306 17.154C7.462 17.154 9.212 15.88 9.674 13.99H8.596C8.162 15.334 6.902 16.188 5.32 16.188C3.122 16.188 1.652 14.508 1.652 11.988C1.652 9.454 3.122 7.774 5.32 7.774C6.888 7.774 8.12 8.656 8.54 10.098H9.618C9.212 8.11 7.518 6.808 5.362 6.808C2.534 6.808 0.602 8.908 0.602 11.988C0.602 15.068 2.506 17.154 5.306 17.154ZM10.7312 13.612C10.7312 15.67 12.1872 17.168 14.1752 17.168C16.1632 17.168 17.6192 15.67 17.6192 13.612C17.6192 11.54 16.1632 10.042 14.1752 10.042C12.1872 10.042 10.7312 11.54 10.7312 13.612ZM11.7112 13.598C11.7112 12.03 12.7192 10.91 14.1752 10.91C15.6172 10.91 16.6392 12.03 16.6392 13.598C16.6392 15.194 15.6172 16.3 14.1752 16.3C12.7192 16.3 11.7112 15.194 11.7112 13.598ZM22.7063 10.14C22.4683 10.084 22.2863 10.07 22.0763 10.07C21.1243 10.07 20.4103 10.546 20.1443 11.274L20.0743 10.224H19.1643V17H20.1303V13.136C20.1303 11.848 20.9283 11.008 22.1743 11.008H22.7063V10.14ZM27.5324 10.14C27.2944 10.084 27.1124 10.07 26.9024 10.07C25.9504 10.07 25.2364 10.546 24.9704 11.274L24.9004 10.224H23.9904V17H24.9564V13.136C24.9564 11.848 25.7544 11.008 27.0004 11.008H27.5324V10.14ZM31.3988 17.168C32.9948 17.168 34.0448 16.398 34.4088 14.97H33.4848C33.2328 15.866 32.5188 16.342 31.4128 16.342C29.9568 16.342 29.0888 15.39 29.0188 13.738H34.4088V13.262C34.4088 11.344 33.1628 10.042 31.3288 10.042C29.3968 10.042 28.0808 11.498 28.0808 13.612C28.0808 15.74 29.4108 17.168 31.3988 17.168ZM31.3288 10.868C32.6028 10.868 33.4428 11.736 33.4428 13.038H29.0468C29.2148 11.708 30.0548 10.868 31.3288 10.868ZM35.4773 13.626C35.4773 15.754 36.7793 17.168 38.6973 17.168C40.2373 17.168 41.4413 16.258 41.7633 14.872H40.7833C40.5173 15.74 39.7053 16.3 38.6973 16.3C37.3253 16.3 36.4293 15.222 36.4293 13.612C36.4293 11.946 37.3953 10.896 38.7673 10.896C39.7053 10.896 40.5173 11.414 40.7693 12.352H41.7353C41.4693 10.952 40.3213 10.042 38.7533 10.042C36.7793 10.042 35.4773 11.498 35.4773 13.626ZM44.7808 17V11.036H46.1388V10.224H44.7808V8.082H43.8288V10.224H42.4708V11.036H43.8288V17H44.7808ZM51.2795 19.954H52.2455V15.698C52.7215 16.678 53.6315 17.168 54.7795 17.168C56.7815 17.168 57.9155 15.628 57.9155 13.584C57.9155 11.54 56.7395 10.042 54.7795 10.042C53.6455 10.042 52.6935 10.546 52.2175 11.596L52.1195 10.224H51.2795V19.954ZM52.2595 13.612C52.2595 12.044 53.1275 10.924 54.6115 10.924C56.0815 10.924 56.9355 12.044 56.9355 13.612C56.9355 15.166 56.0815 16.3 54.6115 16.3C53.1275 16.3 52.2595 15.166 52.2595 13.612ZM62.9973 10.14C62.7593 10.084 62.5773 10.07 62.3673 10.07C61.4153 10.07 60.7013 10.546 60.4353 11.274L60.3653 10.224H59.4553V17H60.4213V13.136C60.4213 11.848 61.2193 11.008 62.4653 11.008H62.9973V10.14ZM66.8637 17.168C68.4597 17.168 69.5097 16.398 69.8737 14.97H68.9497C68.6977 15.866 67.9837 16.342 66.8777 16.342C65.4217 16.342 64.5537 15.39 64.4837 13.738H69.8737V13.262C69.8737 11.344 68.6277 10.042 66.7937 10.042C64.8617 10.042 63.5457 11.498 63.5457 13.612C63.5457 15.74 64.8757 17.168 66.8637 17.168ZM66.7937 10.868C68.0677 10.868 68.9077 11.736 68.9077 13.038H64.5117C64.6797 11.708 65.5197 10.868 66.7937 10.868ZM74.0782 17.168C75.2122 17.168 76.1642 16.664 76.6402 15.614L76.7382 17H77.5782V6.794H76.6122V11.512C76.1362 10.532 75.2402 10.042 74.1202 10.042C72.1042 10.042 70.9422 11.582 70.9422 13.626C70.9422 15.656 72.1042 17.168 74.0782 17.168ZM74.2462 16.286C72.7762 16.286 71.9222 15.166 71.9222 13.598C71.9222 12.044 72.7762 10.91 74.2462 10.91C75.7302 10.91 76.5982 12.044 76.5982 13.598C76.5982 15.166 75.7302 16.286 74.2462 16.286ZM80.0699 8.362C80.4619 8.362 80.7979 8.04 80.7979 7.648C80.7979 7.256 80.4619 6.92 80.0699 6.92C79.6779 6.92 79.3559 7.256 79.3559 7.648C79.3559 8.04 79.6779 8.362 80.0699 8.362ZM79.5939 17H80.5599V10.224H79.5939V17ZM82.0984 13.626C82.0984 15.754 83.4004 17.168 85.3184 17.168C86.8584 17.168 88.0624 16.258 88.3844 14.872H87.4044C87.1384 15.74 86.3264 16.3 85.3184 16.3C83.9464 16.3 83.0504 15.222 83.0504 13.612C83.0504 11.946 84.0164 10.896 85.3884 10.896C86.3264 10.896 87.1384 11.414 87.3904 12.352H88.3564C88.0904 10.952 86.9424 10.042 85.3744 10.042C83.4004 10.042 82.0984 11.498 82.0984 13.626ZM91.4018 17V11.036H92.7598V10.224H91.4018V8.082H90.4498V10.224H89.0918V11.036H90.4498V17H91.4018ZM94.4938 8.362C94.8858 8.362 95.2218 8.04 95.2218 7.648C95.2218 7.256 94.8858 6.92 94.4938 6.92C94.1018 6.92 93.7798 7.256 93.7798 7.648C93.7798 8.04 94.1018 8.362 94.4938 8.362ZM94.0178 17H94.9838V10.224H94.0178V17ZM96.5222 13.612C96.5222 15.67 97.9782 17.168 99.9662 17.168C101.954 17.168 103.41 15.67 103.41 13.612C103.41 11.54 101.954 10.042 99.9662 10.042C97.9782 10.042 96.5222 11.54 96.5222 13.612ZM97.5022 13.598C97.5022 12.03 98.5102 10.91 99.9662 10.91C101.408 10.91 102.43 12.03 102.43 13.598C102.43 15.194 101.408 16.3 99.9662 16.3C98.5102 16.3 97.5022 15.194 97.5022 13.598ZM105.921 17V13.458C105.921 11.932 106.705 10.924 108.091 10.924C109.211 10.924 109.925 11.484 109.925 13.066V17H110.891V12.856C110.891 11.148 110.121 10.042 108.259 10.042C107.279 10.042 106.383 10.532 105.935 11.4L105.795 10.224H104.955V17H105.921ZM112.161 15.096C112.161 16.356 113.113 17.168 114.639 17.168C116.179 17.168 117.215 16.37 117.215 15.152C117.215 14.172 116.683 13.626 115.507 13.332L114.345 13.038C113.603 12.856 113.239 12.492 113.239 11.974C113.239 11.246 113.771 10.84 114.723 10.84C115.633 10.84 116.179 11.302 116.207 12.086H117.145C117.103 10.826 116.179 10.042 114.751 10.042C113.295 10.042 112.301 10.798 112.301 11.988C112.301 12.912 112.875 13.528 114.051 13.822L115.213 14.116C116.011 14.312 116.291 14.634 116.291 15.194C116.291 15.922 115.675 16.37 114.625 16.37C113.673 16.37 113.085 15.88 113.085 15.096H112.161ZM119.771 11.792C120.247 11.792 120.653 11.386 120.653 10.924C120.653 10.448 120.247 10.056 119.771 10.056C119.295 10.056 118.889 10.448 118.889 10.924C118.889 11.386 119.295 11.792 119.771 11.792ZM119.771 17.154C120.247 17.154 120.653 16.762 120.653 16.3C120.653 15.824 120.247 15.418 119.771 15.418C119.295 15.418 118.889 15.824 118.889 16.3C118.889 16.762 119.295 17.154 119.771 17.154Z" fill="black"/>
<path d="M139.424 17V16.062H134.37L136.708 14.018C138.71 12.268 139.368 11.302 139.368 9.846C139.368 8.012 138.108 6.794 136.218 6.794C134.244 6.794 132.914 8.18 132.858 10.28H133.866C133.908 8.726 134.818 7.718 136.204 7.718C137.534 7.718 138.346 8.544 138.346 9.902C138.346 11.092 137.87 11.792 136.022 13.402L132.816 16.202V17H139.424ZM143.616 11.624C145.408 11.624 146.388 12.478 146.388 13.85C146.388 15.306 145.422 16.258 143.924 16.258C142.51 16.258 141.614 15.39 141.614 13.948H140.62C140.62 15.95 141.95 17.168 143.924 17.168C145.954 17.168 147.41 15.866 147.41 13.878C147.41 12.058 146.066 10.868 144.19 10.77L147.186 7.788V6.976H141.11V7.872H145.912L142.818 10.924V11.624H143.616ZM152.078 17.168C154.178 17.168 155.606 15.74 155.606 13.724C155.606 11.848 154.318 10.35 152.232 10.35C151.448 10.35 150.72 10.602 150.16 11.05L150.916 7.9H155.032V6.976H150.188L148.984 12.016L149.782 12.268C150.328 11.666 151.168 11.246 152.092 11.246C153.674 11.246 154.584 12.352 154.584 13.752C154.584 15.236 153.604 16.244 152.092 16.244C150.664 16.244 149.782 15.376 149.782 13.934H148.774C148.774 15.908 150.062 17.168 152.078 17.168Z" fill="#6237DE"/>
<path d="M161.015 17L164.949 6.976H163.969L160.062 17H161.015ZM176.806 14.872V13.976H175.63V6.976H174.286L169.386 13.976V14.872H174.65V17H175.63V14.872H176.806ZM170.478 13.976L174.65 8.012V13.976H170.478ZM177.319 6.976V7.9H183.115L179.153 17H180.189L184.137 7.9V6.976H177.319ZM185.071 6.976V7.9H190.867L186.905 17H187.941L191.889 7.9V6.976H185.071Z" fill="black"/>
<rect opacity="0.16" y="32" width="192" height="8" rx="4" fill="#6237DE"/>
<rect y="32" width="112" height="8" rx="4" fill="#6237DE"/>
</svg>
