<svg width="107" height="40" viewBox="0 0 107 40" fill="none" xmlns="http://www.w3.org/2000/svg">
<rect width="106" height="40" transform="translate(0.996094)" fill="white"/>
<path d="M18.2921 26H23.0281C25.4441 26 26.8361 24.832 26.8361 22.832C26.8361 21.472 26.2121 20.544 24.9801 20.144C26.0841 19.68 26.6601 18.752 26.6601 17.456C26.6601 15.504 25.2521 14.304 22.9481 14.304H18.2921V26ZM22.7721 16.112C23.9241 16.112 24.5641 16.656 24.5641 17.664C24.5641 18.704 23.9401 19.296 22.8201 19.296H20.3401V16.112H22.7721ZM22.9481 21.024C24.0841 21.024 24.7401 21.584 24.7401 22.576C24.7401 23.632 24.1001 24.192 22.9481 24.192H20.3401V21.024H22.9481ZM27.4868 16.192H30.9108V26H32.9588V16.192H36.3828V14.304H27.4868V16.192ZM42.4236 26.192C45.1916 26.192 47.3356 24.56 47.7836 22.096H45.6556C45.2716 23.392 44.0556 24.224 42.4716 24.224C40.3276 24.224 38.9516 22.624 38.9516 20.144C38.9516 17.648 40.3116 16.08 42.4716 16.08C44.0236 16.08 45.1916 16.88 45.5916 18.24H47.7516C47.3516 15.728 45.2876 14.112 42.5196 14.112C39.0956 14.112 36.8076 16.528 36.8076 20.16C36.8076 23.824 39.0156 26.192 42.4236 26.192ZM49.5402 21.728C49.5402 24.48 51.3322 26.192 54.1642 26.192C57.0122 26.192 58.8042 24.464 58.8042 21.728V14.304H56.7562V21.6C56.7562 23.264 55.8282 24.208 54.1642 24.208C52.5002 24.208 51.5882 23.28 51.5882 21.6V14.304H49.5402V21.728ZM60.6513 17.568C60.6513 19.36 61.6913 20.496 63.6753 20.928L65.5313 21.344C66.4913 21.552 66.8913 22.016 66.8913 22.8C66.8913 23.776 66.0273 24.368 64.6673 24.368C63.3553 24.368 62.5553 23.776 62.5393 22.784H60.4913C60.5393 24.88 62.1713 26.208 64.6673 26.208C67.2433 26.208 68.9393 24.8 68.9393 22.624C68.9393 20.88 67.9633 19.856 65.9633 19.424L64.1233 19.024C63.1473 18.8 62.6993 18.336 62.6993 17.504C62.6993 16.528 63.5153 15.92 64.7793 15.92C65.9313 15.92 66.6513 16.512 66.6993 17.52H68.7473C68.6833 15.408 67.1793 14.096 64.8113 14.096C62.3473 14.096 60.6513 15.52 60.6513 17.568ZM75.0001 26C78.3921 26 80.7281 23.616 80.7281 20.176C80.7281 16.688 78.3441 14.304 74.8881 14.304H70.7921V26H75.0001ZM74.6961 16.192C77.1121 16.192 78.5681 17.696 78.5681 20.176C78.5681 22.608 77.1441 24.112 74.8081 24.112H72.8401V16.192H74.6961ZM81.2056 16.192H84.6296V26H86.6776V16.192H90.1016V14.304H81.2056V16.192Z" fill="#6237DE"/>
</svg>
