<svg width="128" height="40" viewBox="0 0 128 40" fill="none" xmlns="http://www.w3.org/2000/svg">
<g clip-path="url(#clip0_7553_8324)">
<path fill-rule="evenodd" clip-rule="evenodd" d="M20.9961 0C32.0413 0 40.9961 8.9548 40.9961 20C40.9961 31.0452 32.0409 40 20.9961 40C9.95129 40 0.996094 31.0476 0.996094 20C0.996094 8.9524 9.94969 0 20.9961 0Z" fill="#53AE94"/>
<path fill-rule="evenodd" clip-rule="evenodd" d="M23.4674 21.8482V21.8458C23.3286 21.8546 22.6154 21.8974 21.0274 21.8974C19.7578 21.8974 18.8646 21.8614 18.5498 21.845V21.849C13.6642 21.6326 10.0174 20.7818 10.0174 19.7638C10.0174 18.7458 13.6646 17.8962 18.5498 17.6794V21.0014C18.8698 21.0234 19.785 21.0774 21.0482 21.0774C22.5654 21.0774 23.3282 21.0142 23.4682 21.0014V17.6794C28.3442 17.8966 31.9826 18.7482 31.9826 19.7626C31.9826 20.777 28.3426 21.629 23.4682 21.8462L23.4674 21.8482ZM23.4658 17.3346V14.3594H30.2694V9.82617H11.743V14.3594H18.5474V17.3322C13.0174 17.5862 8.85938 18.6814 8.85938 19.9934C8.85938 21.3054 13.0194 22.4006 18.5474 22.6562V32.1862H23.4674V22.6554C28.9874 22.4006 33.137 21.3062 33.137 19.9954C33.137 18.6846 28.9874 17.5902 23.4674 17.3354" fill="white"/>
</g>
<path d="M57.4041 14.288H62.5401V29H65.6121V14.288H70.7481V11.456H57.4041V14.288ZM75.9527 29.312C79.0487 29.312 81.2087 27.752 81.7127 25.16H79.0007C78.6647 26.288 77.6087 26.912 76.0007 26.912C74.0567 26.912 72.9527 25.856 72.7367 23.768L81.6647 23.744V22.856C81.6647 19.16 79.4087 16.784 75.8567 16.784C72.3767 16.784 69.9527 19.352 69.9527 23.072C69.9527 26.744 72.4247 29.312 75.9527 29.312ZM75.8807 19.184C77.6327 19.184 78.7607 20.264 78.7607 21.896H72.8087C73.0967 20.12 74.1527 19.184 75.8807 19.184ZM87.9229 29V19.592H90.2269V17.144H87.9229V13.448H84.9949V17.144H82.7149V19.592H84.9949V29H87.9229ZM94.9752 29V22.52C94.9752 20.744 96.0552 19.448 97.9032 19.448C99.3912 19.448 100.375 20.408 100.375 22.4V29H103.303V21.704C103.303 18.632 101.767 16.784 98.8392 16.784C97.1352 16.784 95.7432 17.528 94.9992 18.68V11.144H92.0472V29H94.9752ZM111.484 29.312C114.58 29.312 116.74 27.752 117.244 25.16H114.532C114.196 26.288 113.14 26.912 111.532 26.912C109.588 26.912 108.484 25.856 108.268 23.768L117.196 23.744V22.856C117.196 19.16 114.94 16.784 111.388 16.784C107.908 16.784 105.484 19.352 105.484 23.072C105.484 26.744 107.956 29.312 111.484 29.312ZM111.412 19.184C113.164 19.184 114.292 20.264 114.292 21.896H108.34C108.628 20.12 109.684 19.184 111.412 19.184ZM126.979 17.096C126.499 16.976 126.091 16.928 125.683 16.928C124.099 16.928 122.971 17.72 122.467 18.896L122.299 17.168H119.539V29H122.467V23.24C122.467 20.936 123.787 19.808 125.899 19.808H126.979V17.096Z" fill="black"/>
<defs>
<clipPath id="clip0_7553_8324">
<rect width="40" height="40" fill="white" transform="translate(0.996094)"/>
</clipPath>
</defs>
</svg>
