<svg width="164" height="56" viewBox="0 0 164 56" fill="none" xmlns="http://www.w3.org/2000/svg">
<path d="M72 16H92" stroke="#757883" stroke-width="2" stroke-linecap="round" stroke-linejoin="round"/>
<path d="M51.1402 45.262C51.1402 47.67 52.7082 49.168 55.1862 49.168C57.6782 49.168 59.2462 47.656 59.2462 45.262V38.766H57.4542V45.15C57.4542 46.606 56.6422 47.432 55.1862 47.432C53.7302 47.432 52.9322 46.62 52.9322 45.15V38.766H51.1402V45.262ZM62.9064 49V45.276C62.9064 44.156 63.5504 43.428 64.6004 43.428C65.4824 43.428 66.0564 43.988 66.0564 45.15V49H67.7644V44.744C67.7644 42.952 66.8684 41.874 65.1324 41.874C64.1944 41.874 63.3544 42.28 62.9204 42.98L62.7804 42.084H61.1984V49H62.9064ZM69.0365 45.528C69.0365 47.726 70.4085 49.182 72.5085 49.182C74.3145 49.182 75.6585 48.076 75.8685 46.466H74.1465C73.9645 47.222 73.3625 47.642 72.5085 47.642C71.4165 47.642 70.7445 46.83 70.7445 45.528C70.7445 44.226 71.4725 43.4 72.5645 43.4C73.3765 43.4 73.9505 43.806 74.1465 44.59H75.8545C75.6725 42.924 74.3845 41.874 72.4945 41.874C70.4505 41.874 69.0365 43.386 69.0365 45.528ZM80.2338 49.182C82.0398 49.182 83.2998 48.272 83.5938 46.76H82.0118C81.8158 47.418 81.1998 47.782 80.2618 47.782C79.1278 47.782 78.4838 47.166 78.3578 45.948L83.5658 45.934V45.416C83.5658 43.26 82.2498 41.874 80.1778 41.874C78.1478 41.874 76.7338 43.372 76.7338 45.542C76.7338 47.684 78.1758 49.182 80.2338 49.182ZM80.1918 43.274C81.2138 43.274 81.8718 43.904 81.8718 44.856H78.3998C78.5678 43.82 79.1838 43.274 80.1918 43.274ZM89.2728 42.056C88.9928 41.986 88.7548 41.958 88.5168 41.958C87.5928 41.958 86.9348 42.42 86.6408 43.106L86.5428 42.098H84.9328V49H86.6408V45.64C86.6408 44.296 87.4108 43.638 88.6428 43.638H89.2728V42.056ZM93.0543 49V43.512H94.3983V42.084H93.0543V39.928H91.3463V42.084H90.0163V43.512H91.3463V49H93.0543ZM97.4771 49.182C98.5551 49.182 99.4931 48.692 99.7871 47.978L99.9131 49H101.411V44.8C101.411 42.882 100.263 41.874 98.4011 41.874C96.5251 41.874 95.2931 42.854 95.2931 44.352H96.7491C96.7491 43.624 97.3091 43.204 98.3171 43.204C99.1851 43.204 99.7451 43.582 99.7451 44.52V44.674L97.6731 44.828C96.0351 44.954 95.1111 45.752 95.1111 47.026C95.1111 48.328 96.0071 49.182 97.4771 49.182ZM98.0371 47.894C97.2671 47.894 96.8471 47.586 96.8471 46.956C96.8471 46.396 97.2531 46.046 98.3171 45.948L99.7591 45.836V46.2C99.7591 47.264 99.0871 47.894 98.0371 47.894ZM103.943 40.698C104.503 40.698 104.965 40.236 104.965 39.662C104.965 39.088 104.503 38.64 103.943 38.64C103.355 38.64 102.893 39.088 102.893 39.662C102.893 40.236 103.355 40.698 103.943 40.698ZM103.089 49H104.797V42.084H103.089V49ZM108.27 49V45.276C108.27 44.156 108.914 43.428 109.964 43.428C110.846 43.428 111.42 43.988 111.42 45.15V49H113.128V44.744C113.128 42.952 112.232 41.874 110.496 41.874C109.558 41.874 108.718 42.28 108.284 42.98L108.144 42.084H106.562V49H108.27Z" fill="black"/>
</svg>
