<svg width="164" height="56" viewBox="0 0 164 56" fill="none" xmlns="http://www.w3.org/2000/svg">
<path d="M66.2 19.6422C65.8686 20.084 65.9582 20.7108 66.4 21.0422C66.8418 21.3736 67.4686 21.284 67.8 20.8422L66.2 19.6422ZM73 12.2422L73.8 11.6422C73.6111 11.3904 73.3148 11.2422 73 11.2422C72.6852 11.2422 72.3889 11.3904 72.2 11.6422L73 12.2422ZM79 20.2422L78.2 20.8422C78.3889 21.094 78.6852 21.2422 79 21.2422C79.3148 21.2422 79.6111 21.094 79.8 20.8422L79 20.2422ZM85 12.2422L85.8 11.6422C85.6111 11.3904 85.3148 11.2422 85 11.2422C84.6852 11.2422 84.3889 11.3904 84.2 11.6422L85 12.2422ZM91 20.2422L90.2 20.8422C90.3889 21.094 90.6852 21.2422 91 21.2422C91.3148 21.2422 91.6111 21.094 91.8 20.8422L91 20.2422ZM97.8 12.8422C98.1314 12.4004 98.0418 11.7736 97.6 11.4422C97.1582 11.1108 96.5314 11.2004 96.2 11.6422L97.8 12.8422ZM67.8 20.8422L73.8 12.8422L72.2 11.6422L66.2 19.6422L67.8 20.8422ZM72.2 12.8422L78.2 20.8422L79.8 19.6422L73.8 11.6422L72.2 12.8422ZM79.8 20.8422L85.8 12.8422L84.2 11.6422L78.2 19.6422L79.8 20.8422ZM84.2 12.8422L90.2 20.8422L91.8 19.6422L85.8 11.6422L84.2 12.8422ZM91.8 20.8422L97.8 12.8422L96.2 11.6422L90.2 19.6422L91.8 20.8422Z" fill="#6237DE"/>
<path d="M57.9582 49V45.178H60.1562L61.8922 49H63.8522L61.9062 44.8C63.1102 44.31 63.7542 43.33 63.7542 41.958C63.7542 39.942 62.3962 38.766 60.0722 38.766H56.1662V49H57.9582ZM57.9582 40.362H60.0722C61.2062 40.362 61.8782 40.936 61.8782 41.958C61.8782 42.994 61.2062 43.596 60.0722 43.596H57.9582V40.362ZM67.0777 49.182C68.1557 49.182 69.0937 48.692 69.3877 47.978L69.5137 49H71.0117V44.8C71.0117 42.882 69.8637 41.874 68.0017 41.874C66.1257 41.874 64.8937 42.854 64.8937 44.352H66.3497C66.3497 43.624 66.9097 43.204 67.9177 43.204C68.7857 43.204 69.3457 43.582 69.3457 44.52V44.674L67.2737 44.828C65.6357 44.954 64.7117 45.752 64.7117 47.026C64.7117 48.328 65.6077 49.182 67.0777 49.182ZM67.6377 47.894C66.8677 47.894 66.4477 47.586 66.4477 46.956C66.4477 46.396 66.8537 46.046 67.9177 45.948L69.3597 45.836V46.2C69.3597 47.264 68.6877 47.894 67.6377 47.894ZM74.3976 49V45.276C74.3976 44.156 75.0416 43.428 76.0916 43.428C76.9736 43.428 77.5476 43.988 77.5476 45.15V49H79.2556V44.744C79.2556 42.952 78.3596 41.874 76.6236 41.874C75.6856 41.874 74.8456 42.28 74.4116 42.98L74.2716 42.084H72.6896V49H74.3976ZM80.5418 45.388C80.5418 47.39 81.8298 48.86 83.7898 48.86C84.7838 48.86 85.6378 48.454 86.0718 47.81V48.958C86.0718 50.106 85.3158 50.848 84.1398 50.848C83.0898 50.848 82.4038 50.316 82.2918 49.42H80.5838C80.7938 51.268 82.1518 52.402 84.1398 52.402C86.3798 52.402 87.7658 50.96 87.7658 48.65V42.084H86.1838L86.0858 43.036C85.6798 42.294 84.8678 41.86 83.8318 41.86C81.8578 41.86 80.5418 43.372 80.5418 45.388ZM82.2638 45.346C82.2638 44.212 82.9918 43.358 84.1258 43.358C85.3158 43.358 86.0298 44.17 86.0298 45.346C86.0298 46.55 85.3018 47.376 84.1258 47.376C83.0058 47.376 82.2638 46.508 82.2638 45.346ZM90.3874 40.698C90.9474 40.698 91.4094 40.236 91.4094 39.662C91.4094 39.088 90.9474 38.64 90.3874 38.64C89.7994 38.64 89.3374 39.088 89.3374 39.662C89.3374 40.236 89.7994 40.698 90.3874 40.698ZM89.5334 49H91.2414V42.084H89.5334V49ZM94.714 49V45.276C94.714 44.156 95.358 43.428 96.408 43.428C97.29 43.428 97.864 43.988 97.864 45.15V49H99.572V44.744C99.572 42.952 98.676 41.874 96.94 41.874C96.002 41.874 95.162 42.28 94.728 42.98L94.588 42.084H93.006V49H94.714ZM100.858 45.388C100.858 47.39 102.146 48.86 104.106 48.86C105.1 48.86 105.954 48.454 106.388 47.81V48.958C106.388 50.106 105.632 50.848 104.456 50.848C103.406 50.848 102.72 50.316 102.608 49.42H100.9C101.11 51.268 102.468 52.402 104.456 52.402C106.696 52.402 108.082 50.96 108.082 48.65V42.084H106.5L106.402 43.036C105.996 42.294 105.184 41.86 104.148 41.86C102.174 41.86 100.858 43.372 100.858 45.388ZM102.58 45.346C102.58 44.212 103.308 43.358 104.442 43.358C105.632 43.358 106.346 44.17 106.346 45.346C106.346 46.55 105.618 47.376 104.442 47.376C103.322 47.376 102.58 46.508 102.58 45.346Z" fill="black"/>
</svg>
