<svg width="24" height="24" viewBox="0 0 24 24" fill="none" xmlns="http://www.w3.org/2000/svg">
<path d="M17.3934 4.57598C15.7259 3.36446 13.6991 2.74963 11.6395 2.83055C9.57992 2.91147 7.60756 3.68343 6.04024 5.02205C4.47292 6.36067 3.40191 8.18798 2.9998 10.2095C2.59769 12.2311 2.88789 14.3292 3.82364 16.1657C4.75939 18.0022 6.28619 19.4702 8.15802 20.3331C10.0298 21.196 12.1377 21.4036 14.1419 20.9225C16.1461 20.4413 17.93 19.2994 19.206 17.6807C20.188 16.4351 20.8252 14.9631 21.0668 13.4115H18.5552C18.3412 14.4051 17.9028 15.3433 17.2659 16.1512C16.3334 17.3341 15.0298 18.1686 13.5652 18.5202C12.1006 18.8718 10.5602 18.7201 9.19233 18.0895C7.82445 17.4589 6.70871 16.3861 6.0249 15.0441C5.34108 13.702 5.12901 12.1688 5.42286 10.6915C5.71672 9.21423 6.49937 7.87888 7.64472 6.90066C8.79007 5.92244 10.2314 5.35831 11.7365 5.29918C13.2416 5.24004 14.7227 5.68934 15.9413 6.57469L14.2817 8.85892C13.5762 8.34635 12.7187 8.08623 11.8473 8.12047C10.976 8.1547 10.1415 8.4813 9.47842 9.04764C8.81532 9.61398 8.3622 10.3871 8.19208 11.2423C8.02196 12.0976 8.14473 12.9853 8.54063 13.7623C8.93652 14.5392 9.58247 15.1603 10.3744 15.5254C11.1663 15.8905 12.0581 15.9783 12.906 15.7747C13.754 15.5712 14.5087 15.0881 15.0486 14.4032C15.2873 14.1004 15.4779 13.7658 15.6162 13.4115H11.9997V10.588H24C24 10.588 23.9993 11.4867 23.9162 13.4115C23.833 15.3362 22.7987 17.684 21.4233 19.4287C19.7547 21.5454 17.4219 23.0387 14.801 23.6679C12.1801 24.2971 9.42373 24.0257 6.97595 22.8972C4.52817 21.7688 2.53158 19.8491 1.30791 17.4475C0.0842372 15.0459 -0.295253 12.3023 0.230586 9.65871C0.756426 7.01513 2.15697 4.62557 4.20654 2.87507C6.25612 1.12457 8.83535 0.115077 11.5286 0.00925634C14.2219 -0.0965638 16.8724 0.707452 19.053 2.29175L17.3934 4.57598Z" fill="url(#paint0_linear_3188_35610)"/>
<defs>
<linearGradient id="paint0_linear_3188_35610" x1="7.25418" y1="1.33932" x2="14.1373" y2="23.9815" gradientUnits="userSpaceOnUse">
<stop stop-color="#6B38FD"/>
<stop offset="1" stop-color="#1302DE"/>
</linearGradient>
</defs>
</svg>
