<svg width="168" height="32" viewBox="0 0 168 32" fill="none" xmlns="http://www.w3.org/2000/svg">
<path d="M0.936 11.352C0.936 14.04 2.496 15.744 5.472 16.392L8.256 17.016C9.696 17.328 10.296 18.024 10.296 19.2C10.296 20.664 9 21.552 6.96 21.552C4.992 21.552 3.792 20.664 3.768 19.176H0.696C0.768 22.32 3.216 24.312 6.96 24.312C10.824 24.312 13.368 22.2 13.368 18.936C13.368 16.32 11.904 14.784 8.904 14.136L6.144 13.536C4.68 13.2 4.008 12.504 4.008 11.256C4.008 9.792 5.232 8.88 7.128 8.88C8.856 8.88 9.936 9.768 10.008 11.28H13.08C12.984 8.112 10.728 6.144 7.176 6.144C3.48 6.144 0.936 8.28 0.936 11.352ZM15.0191 18.048C15.0191 21.744 17.6831 24.288 21.3551 24.288C25.0271 24.288 27.6911 21.744 27.6911 18.048C27.6911 14.352 25.0271 11.808 21.3551 11.808C17.6831 11.808 15.0191 14.352 15.0191 18.048ZM17.9471 18.048C17.9471 15.888 19.3391 14.424 21.3551 14.424C23.3711 14.424 24.7631 15.888 24.7631 18.048C24.7631 20.208 23.3711 21.672 21.3551 21.672C19.3391 21.672 17.9471 20.208 17.9471 18.048ZM32.964 24V6.144H30.06V24H32.964ZM44.0754 12.144V18.36C44.0754 20.616 43.1874 21.696 41.3394 21.696C39.7074 21.696 38.8194 20.784 38.8194 18.528V12.144H35.8914V19.56C35.8914 22.464 37.4994 24.312 40.2354 24.312C41.8194 24.312 43.3554 23.544 44.0754 22.416L44.2914 24H47.0034V12.144H44.0754ZM54.0596 24V14.592H56.3636V12.144H54.0596V8.448H51.1316V12.144H48.8516V14.592H51.1316V24H54.0596ZM59.6479 9.768C60.6079 9.768 61.3999 8.976 61.3999 7.992C61.3999 7.008 60.6079 6.24 59.6479 6.24C58.6399 6.24 57.8479 7.008 57.8479 7.992C57.8479 8.976 58.6399 9.768 59.6479 9.768ZM58.1839 24H61.1119V12.144H58.1839V24ZM63.441 18.048C63.441 21.744 66.105 24.288 69.777 24.288C73.449 24.288 76.113 21.744 76.113 18.048C76.113 14.352 73.449 11.808 69.777 11.808C66.105 11.808 63.441 14.352 63.441 18.048ZM66.369 18.048C66.369 15.888 67.761 14.424 69.777 14.424C71.793 14.424 73.185 15.888 73.185 18.048C73.185 20.208 71.793 21.672 69.777 21.672C67.761 21.672 66.369 20.208 66.369 18.048ZM81.3619 24V17.616C81.3619 15.696 82.4659 14.448 84.2659 14.448C85.7779 14.448 86.7619 15.408 86.7619 17.4V24H89.6899V16.704C89.6899 13.632 88.1539 11.784 85.1779 11.784C83.5699 11.784 82.1299 12.48 81.3859 13.68L81.1459 12.144H78.4339V24H81.3619ZM91.5141 20.4C91.5141 22.728 93.3861 24.312 96.3381 24.312C99.2661 24.312 101.306 22.824 101.306 20.424C101.306 18.6 100.298 17.688 98.3061 17.232L96.1701 16.728C95.1621 16.488 94.6341 16.056 94.6341 15.384C94.6341 14.496 95.3061 13.968 96.4581 13.968C97.5861 13.968 98.2581 14.616 98.2821 15.624H101.066C101.042 13.32 99.2421 11.784 96.5781 11.784C93.8421 11.784 91.8741 13.176 91.8741 15.504C91.8741 17.4 92.9061 18.408 95.0421 18.888L97.1781 19.392C98.2341 19.632 98.5461 20.064 98.5461 20.664C98.5461 21.528 97.8021 22.08 96.4341 22.08C95.0901 22.08 94.3221 21.432 94.2981 20.4H91.5141Z" fill="black"/>
<path d="M130 10L135.657 15.6569L130 21.3137L130 15.6569L130 10Z" fill="black"/>
<path d="M145.657 10L151.314 15.6569L145.657 21.3137L145.657 15.6569L145.657 10Z" fill="black"/>
<path d="M161.657 10L167.314 15.6569L161.657 21.3137L161.657 15.6569L161.657 10Z" fill="black"/>
</svg>
