<svg width="72" height="74" viewBox="0 0 72 74" fill="none" xmlns="http://www.w3.org/2000/svg">
<path d="M63 59C63 60.6569 61.6569 62 60 62L5 62C3.34315 62 2 60.6568 2 59L2 13C2 11.3431 3.34315 9.99999 5 9.99999L60 10C61.6569 10 63 11.3431 63 13L63 59Z" stroke="black" stroke-width="2.5"/>
<path d="M8 30H19.4844" stroke="black" stroke-width="2.5"/>
<path d="M8 35.4473H28.7812" stroke="black" stroke-width="2.5"/>
<path d="M14.4923 11.8323C14.1756 11.5175 13.9044 11.2365 13.6819 11C13.9044 10.7635 14.1756 10.4825 14.4923 10.1677C15.4976 9.16833 16.953 7.83532 18.7487 6.50418C22.3678 3.82136 27.2292 1.25 32.5 1.25C37.7708 1.25 42.6321 3.82136 46.2513 6.50419C48.047 7.83532 49.5024 9.16834 50.5077 10.1677C50.8244 10.4825 51.0956 10.7635 51.3181 11C51.0956 11.2365 50.8244 11.5175 50.5077 11.8323C49.5024 12.8317 48.047 14.1647 46.2513 15.4958C42.6321 18.1786 37.7708 20.75 32.5 20.75C27.2292 20.75 22.3678 18.1786 18.7487 15.4958C16.953 14.1647 15.4976 12.8317 14.4923 11.8323Z" fill="white" stroke="black" stroke-width="2.5"/>
<path d="M42.1841 11C42.1841 16.392 37.8415 20.75 32.5007 20.75C27.1599 20.75 22.8174 16.3919 22.8174 11C22.8174 5.60805 27.1599 1.25 32.5007 1.25C37.8415 1.25 42.1841 5.60805 42.1841 11Z" fill="#51D9B8" stroke="black" stroke-width="2.5"/>
<path d="M56 33C56 29.6863 58.6863 27 62 27H72V74H56V33Z" fill="#6237DE"/>
<path d="M10 59C10 55.6863 12.6863 53 16 53H26V74H10V59Z" fill="#51D9B8"/>
<path d="M33.25 46C33.25 43.3766 35.3766 41.25 38 41.25H41H48.75V72.75H33.25V46Z" fill="white" stroke="black" stroke-width="2.5"/>
</svg>
