<svg width="40" height="40" viewBox="0 0 40 40" fill="none" xmlns="http://www.w3.org/2000/svg">
<path fill-rule="evenodd" clip-rule="evenodd" d="M18.8787 13.2929C18.4882 13.6834 18.4882 14.3166 18.8787 14.7071L23.1716 19H14C13.4477 19 13 19.4477 13 20C13 20.5523 13.4477 21 14 21H23.1716L18.8787 25.2929C18.4882 25.6834 18.4882 26.3166 18.8787 26.7071C19.2692 27.0976 19.9024 27.0976 20.2929 26.7071L27 20L20.2929 13.2929C19.9024 12.9024 19.2692 12.9024 18.8787 13.2929Z" fill="#6237DE"/>
<path d="M0 0V-1H-1V0H0ZM40 0H41V-1H40V0ZM40 40V41H41V40H40ZM0 40H-1V41H0V40ZM0 1H40V-1H0V1ZM39 0V40H41V0H39ZM40 39H0V41H40V39ZM1 40V0H-1V40H1Z" fill="#6237DE"/>
</svg>
