<svg width="164" height="56" viewBox="0 0 164 56" fill="none" xmlns="http://www.w3.org/2000/svg">
<path d="M67.9599 11.3734C67.5694 10.9829 67.5694 10.3498 67.9599 9.95923C68.3504 9.56871 68.9836 9.56871 69.3741 9.95923L67.9599 11.3734ZM76.667 18.6663L77.3741 19.3734C76.9836 19.764 76.3504 19.764 75.9599 19.3734L76.667 18.6663ZM84.667 10.6663L83.9599 9.95923C84.3504 9.56871 84.9836 9.56871 85.3741 9.95923L84.667 10.6663ZM95.3337 21.333H96.3337C96.3337 21.8853 95.8859 22.333 95.3337 22.333V21.333ZM90.0003 22.333C89.448 22.333 89.0003 21.8853 89.0003 21.333C89.0003 20.7807 89.448 20.333 90.0003 20.333V22.333ZM94.3337 15.9997C94.3337 15.4474 94.7814 14.9997 95.3337 14.9997C95.8859 14.9997 96.3337 15.4474 96.3337 15.9997H94.3337ZM69.3741 9.95923L77.3741 17.9592L75.9599 19.3734L67.9599 11.3734L69.3741 9.95923ZM75.9599 17.9592L83.9599 9.95923L85.3741 11.3734L77.3741 19.3734L75.9599 17.9592ZM85.3741 9.95923L96.0408 20.6259L94.6266 22.0401L83.9599 11.3734L85.3741 9.95923ZM95.3337 22.333H90.0003V20.333H95.3337V22.333ZM94.3337 21.333V15.9997H96.3337V21.333H94.3337Z" fill="#F65D53"/>
<path d="M67.9351 49C70.9031 49 72.9471 46.914 72.9471 43.904C72.9471 40.852 70.8611 38.766 67.8371 38.766H64.2531V49H67.9351ZM67.6691 40.418C69.7831 40.418 71.0571 41.734 71.0571 43.904C71.0571 46.032 69.8111 47.348 67.7671 47.348H66.0451V40.418H67.6691ZM73.9584 45.528C73.9584 47.684 75.5124 49.168 77.6544 49.168C79.7964 49.168 81.3504 47.684 81.3504 45.528C81.3504 43.372 79.7964 41.888 77.6544 41.888C75.5124 41.888 73.9584 43.372 73.9584 45.528ZM75.6664 45.528C75.6664 44.268 76.4784 43.414 77.6544 43.414C78.8304 43.414 79.6424 44.268 79.6424 45.528C79.6424 46.788 78.8304 47.642 77.6544 47.642C76.4784 47.642 75.6664 46.788 75.6664 45.528ZM83.8885 49H85.5545L86.5065 46.032C86.8565 44.898 86.9825 44.408 87.0525 44.086C87.1085 44.436 87.2625 45.094 87.5425 46.004L88.4945 49H90.0905L92.4845 42.084H90.6785L89.7545 45.052C89.6285 45.486 89.4045 46.312 89.2925 46.83C89.2085 46.368 88.9285 45.332 88.8445 45.052L87.9205 42.084H86.1845L85.2325 45.052C85.0085 45.738 84.8825 46.172 84.7565 46.844C84.6305 46.2 84.4905 45.598 84.3365 45.052L83.4265 42.084H81.6485L83.8885 49ZM95.2267 49V45.276C95.2267 44.156 95.8707 43.428 96.9207 43.428C97.8027 43.428 98.3767 43.988 98.3767 45.15V49H100.085V44.744C100.085 42.952 99.1887 41.874 97.4527 41.874C96.5147 41.874 95.6747 42.28 95.2407 42.98L95.1007 42.084H93.5187V49H95.2267Z" fill="black"/>
</svg>
