<svg width="596" height="288" viewBox="0 0 596 288" fill="none" xmlns="http://www.w3.org/2000/svg">
<g clip-path="url(#clip0_3362_34388)">
<path d="M0 0H596V288H0V0Z" fill="white"/>
<circle cx="34" cy="36" r="10" fill="#51D9B8"/>
<path d="M30 35.9997L32.5217 38.6663L38 33.333" stroke="white" stroke-width="2" stroke-linecap="round"/>
<path d="M57.6898 41.154C59.8458 41.154 61.5958 39.88 62.0578 37.99H60.9798C60.5458 39.334 59.2858 40.188 57.7038 40.188C55.5058 40.188 54.0358 38.508 54.0358 35.988C54.0358 33.454 55.5058 31.774 57.7038 31.774C59.2718 31.774 60.5038 32.656 60.9238 34.098H62.0018C61.5958 32.11 59.9018 30.808 57.7458 30.808C54.9178 30.808 52.9858 32.908 52.9858 35.988C52.9858 39.068 54.8898 41.154 57.6898 41.154ZM63.115 37.612C63.115 39.67 64.571 41.168 66.559 41.168C68.547 41.168 70.003 39.67 70.003 37.612C70.003 35.54 68.547 34.042 66.559 34.042C64.571 34.042 63.115 35.54 63.115 37.612ZM64.095 37.598C64.095 36.03 65.103 34.91 66.559 34.91C68.001 34.91 69.023 36.03 69.023 37.598C69.023 39.194 68.001 40.3 66.559 40.3C65.103 40.3 64.095 39.194 64.095 37.598ZM75.09 34.14C74.852 34.084 74.67 34.07 74.46 34.07C73.508 34.07 72.794 34.546 72.528 35.274L72.458 34.224H71.548V41H72.514V37.136C72.514 35.848 73.312 35.008 74.558 35.008H75.09V34.14ZM79.9162 34.14C79.6782 34.084 79.4962 34.07 79.2862 34.07C78.3342 34.07 77.6202 34.546 77.3542 35.274L77.2842 34.224H76.3742V41H77.3402V37.136C77.3402 35.848 78.1382 35.008 79.3842 35.008H79.9162V34.14ZM83.7826 41.168C85.3786 41.168 86.4286 40.398 86.7926 38.97H85.8686C85.6166 39.866 84.9026 40.342 83.7966 40.342C82.3406 40.342 81.4726 39.39 81.4026 37.738H86.7926V37.262C86.7926 35.344 85.5466 34.042 83.7126 34.042C81.7806 34.042 80.4646 35.498 80.4646 37.612C80.4646 39.74 81.7946 41.168 83.7826 41.168ZM83.7126 34.868C84.9866 34.868 85.8266 35.736 85.8266 37.038H81.4306C81.5986 35.708 82.4386 34.868 83.7126 34.868ZM87.8611 37.626C87.8611 39.754 89.1631 41.168 91.0811 41.168C92.6211 41.168 93.8251 40.258 94.1471 38.872H93.1671C92.9011 39.74 92.0891 40.3 91.0811 40.3C89.7091 40.3 88.8131 39.222 88.8131 37.612C88.8131 35.946 89.7791 34.896 91.1511 34.896C92.0891 34.896 92.9011 35.414 93.1531 36.352H94.1191C93.8531 34.952 92.7051 34.042 91.1371 34.042C89.1631 34.042 87.8611 35.498 87.8611 37.626ZM97.1645 41V35.036H98.5225V34.224H97.1645V32.082H96.2125V34.224H94.8545V35.036H96.2125V41H97.1645ZM107.695 37.318C109.613 37.318 110.845 35.946 110.845 34.126C110.845 32.236 109.627 30.976 107.695 30.976H103.873V41H104.881V37.318H107.695ZM107.555 31.886C108.941 31.886 109.795 32.726 109.795 34.112C109.795 35.484 108.955 36.408 107.499 36.408H104.881V31.886H107.555ZM115.805 34.14C115.567 34.084 115.385 34.07 115.175 34.07C114.223 34.07 113.509 34.546 113.243 35.274L113.173 34.224H112.263V41H113.229V37.136C113.229 35.848 114.027 35.008 115.273 35.008H115.805V34.14ZM119.671 41.168C121.267 41.168 122.317 40.398 122.681 38.97H121.757C121.505 39.866 120.791 40.342 119.685 40.342C118.229 40.342 117.361 39.39 117.291 37.738H122.681V37.262C122.681 35.344 121.435 34.042 119.601 34.042C117.669 34.042 116.353 35.498 116.353 37.612C116.353 39.74 117.683 41.168 119.671 41.168ZM119.601 34.868C120.875 34.868 121.715 35.736 121.715 37.038H117.319C117.487 35.708 118.327 34.868 119.601 34.868ZM126.886 41.168C128.02 41.168 128.972 40.664 129.448 39.614L129.546 41H130.386V30.794H129.42V35.512C128.944 34.532 128.048 34.042 126.928 34.042C124.912 34.042 123.75 35.582 123.75 37.626C123.75 39.656 124.912 41.168 126.886 41.168ZM127.054 40.286C125.584 40.286 124.73 39.166 124.73 37.598C124.73 36.044 125.584 34.91 127.054 34.91C128.538 34.91 129.406 36.044 129.406 37.598C129.406 39.166 128.538 40.286 127.054 40.286ZM132.878 32.362C133.27 32.362 133.606 32.04 133.606 31.648C133.606 31.256 133.27 30.92 132.878 30.92C132.486 30.92 132.164 31.256 132.164 31.648C132.164 32.04 132.486 32.362 132.878 32.362ZM132.402 41H133.368V34.224H132.402V41ZM134.906 37.626C134.906 39.754 136.208 41.168 138.126 41.168C139.666 41.168 140.87 40.258 141.192 38.872H140.212C139.946 39.74 139.134 40.3 138.126 40.3C136.754 40.3 135.858 39.222 135.858 37.612C135.858 35.946 136.824 34.896 138.196 34.896C139.134 34.896 139.946 35.414 140.198 36.352H141.164C140.898 34.952 139.75 34.042 138.182 34.042C136.208 34.042 134.906 35.498 134.906 37.626ZM144.209 41V35.036H145.567V34.224H144.209V32.082H143.257V34.224H141.899V35.036H143.257V41H144.209ZM147.301 32.362C147.693 32.362 148.029 32.04 148.029 31.648C148.029 31.256 147.693 30.92 147.301 30.92C146.909 30.92 146.587 31.256 146.587 31.648C146.587 32.04 146.909 32.362 147.301 32.362ZM146.825 41H147.791V34.224H146.825V41ZM149.33 37.612C149.33 39.67 150.786 41.168 152.774 41.168C154.762 41.168 156.218 39.67 156.218 37.612C156.218 35.54 154.762 34.042 152.774 34.042C150.786 34.042 149.33 35.54 149.33 37.612ZM150.31 37.598C150.31 36.03 151.318 34.91 152.774 34.91C154.216 34.91 155.238 36.03 155.238 37.598C155.238 39.194 154.216 40.3 152.774 40.3C151.318 40.3 150.31 39.194 150.31 37.598ZM158.729 41V37.458C158.729 35.932 159.513 34.924 160.899 34.924C162.019 34.924 162.733 35.484 162.733 37.066V41H163.699V36.856C163.699 35.148 162.929 34.042 161.067 34.042C160.087 34.042 159.191 34.532 158.743 35.4L158.603 34.224H157.763V41H158.729Z" fill="black"/>
<path d="M231.226 30.976H230.218V41H231.226V30.976ZM234.419 41V37.458C234.419 35.932 235.203 34.924 236.589 34.924C237.709 34.924 238.423 35.484 238.423 37.066V41H239.389V36.856C239.389 35.148 238.619 34.042 236.757 34.042C235.777 34.042 234.881 34.532 234.433 35.4L234.293 34.224H233.453V41H234.419ZM240.839 37.626C240.839 39.754 242.141 41.168 244.059 41.168C245.599 41.168 246.803 40.258 247.125 38.872H246.145C245.879 39.74 245.067 40.3 244.059 40.3C242.687 40.3 241.791 39.222 241.791 37.612C241.791 35.946 242.757 34.896 244.129 34.896C245.067 34.896 245.879 35.414 246.131 36.352H247.097C246.831 34.952 245.683 34.042 244.115 34.042C242.141 34.042 240.839 35.498 240.839 37.626ZM248.112 37.612C248.112 39.67 249.568 41.168 251.556 41.168C253.544 41.168 255 39.67 255 37.612C255 35.54 253.544 34.042 251.556 34.042C249.568 34.042 248.112 35.54 248.112 37.612ZM249.092 37.598C249.092 36.03 250.1 34.91 251.556 34.91C252.998 34.91 254.02 36.03 254.02 37.598C254.02 39.194 252.998 40.3 251.556 40.3C250.1 40.3 249.092 39.194 249.092 37.598ZM260.087 34.14C259.849 34.084 259.667 34.07 259.457 34.07C258.505 34.07 257.791 34.546 257.525 35.274L257.455 34.224H256.545V41H257.511V37.136C257.511 35.848 258.309 35.008 259.555 35.008H260.087V34.14ZM264.913 34.14C264.675 34.084 264.493 34.07 264.283 34.07C263.331 34.07 262.617 34.546 262.351 35.274L262.281 34.224H261.371V41H262.337V37.136C262.337 35.848 263.135 35.008 264.381 35.008H264.913V34.14ZM268.78 41.168C270.376 41.168 271.426 40.398 271.79 38.97H270.866C270.614 39.866 269.9 40.342 268.794 40.342C267.338 40.342 266.47 39.39 266.4 37.738H271.79V37.262C271.79 35.344 270.544 34.042 268.71 34.042C266.778 34.042 265.462 35.498 265.462 37.612C265.462 39.74 266.792 41.168 268.78 41.168ZM268.71 34.868C269.984 34.868 270.824 35.736 270.824 37.038H266.428C266.596 35.708 267.436 34.868 268.71 34.868ZM272.858 37.626C272.858 39.754 274.16 41.168 276.078 41.168C277.618 41.168 278.822 40.258 279.144 38.872H278.164C277.898 39.74 277.086 40.3 276.078 40.3C274.706 40.3 273.81 39.222 273.81 37.612C273.81 35.946 274.776 34.896 276.148 34.896C277.086 34.896 277.898 35.414 278.15 36.352H279.116C278.85 34.952 277.702 34.042 276.134 34.042C274.16 34.042 272.858 35.498 272.858 37.626ZM282.162 41V35.036H283.52V34.224H282.162V32.082H281.21V34.224H279.852V35.036H281.21V41H282.162ZM292.692 37.318C294.61 37.318 295.842 35.946 295.842 34.126C295.842 32.236 294.624 30.976 292.692 30.976H288.87V41H289.878V37.318H292.692ZM292.552 31.886C293.938 31.886 294.792 32.726 294.792 34.112C294.792 35.484 293.952 36.408 292.496 36.408H289.878V31.886H292.552ZM300.802 34.14C300.564 34.084 300.382 34.07 300.172 34.07C299.22 34.07 298.506 34.546 298.24 35.274L298.17 34.224H297.26V41H298.226V37.136C298.226 35.848 299.024 35.008 300.27 35.008H300.802V34.14ZM304.668 41.168C306.264 41.168 307.314 40.398 307.678 38.97H306.754C306.502 39.866 305.788 40.342 304.682 40.342C303.226 40.342 302.358 39.39 302.288 37.738H307.678V37.262C307.678 35.344 306.432 34.042 304.598 34.042C302.666 34.042 301.35 35.498 301.35 37.612C301.35 39.74 302.68 41.168 304.668 41.168ZM304.598 34.868C305.872 34.868 306.712 35.736 306.712 37.038H302.316C302.484 35.708 303.324 34.868 304.598 34.868ZM311.883 41.168C313.017 41.168 313.969 40.664 314.445 39.614L314.543 41H315.383V30.794H314.417V35.512C313.941 34.532 313.045 34.042 311.925 34.042C309.909 34.042 308.747 35.582 308.747 37.626C308.747 39.656 309.909 41.168 311.883 41.168ZM312.051 40.286C310.581 40.286 309.727 39.166 309.727 37.598C309.727 36.044 310.581 34.91 312.051 34.91C313.535 34.91 314.403 36.044 314.403 37.598C314.403 39.166 313.535 40.286 312.051 40.286ZM317.875 32.362C318.267 32.362 318.603 32.04 318.603 31.648C318.603 31.256 318.267 30.92 317.875 30.92C317.483 30.92 317.161 31.256 317.161 31.648C317.161 32.04 317.483 32.362 317.875 32.362ZM317.399 41H318.365V34.224H317.399V41ZM319.903 37.626C319.903 39.754 321.205 41.168 323.123 41.168C324.663 41.168 325.867 40.258 326.189 38.872H325.209C324.943 39.74 324.131 40.3 323.123 40.3C321.751 40.3 320.855 39.222 320.855 37.612C320.855 35.946 321.821 34.896 323.193 34.896C324.131 34.896 324.943 35.414 325.195 36.352H326.161C325.895 34.952 324.747 34.042 323.179 34.042C321.205 34.042 319.903 35.498 319.903 37.626ZM329.207 41V35.036H330.565V34.224H329.207V32.082H328.255V34.224H326.897V35.036H328.255V41H329.207ZM332.298 32.362C332.69 32.362 333.026 32.04 333.026 31.648C333.026 31.256 332.69 30.92 332.298 30.92C331.906 30.92 331.584 31.256 331.584 31.648C331.584 32.04 331.906 32.362 332.298 32.362ZM331.822 41H332.788V34.224H331.822V41ZM334.327 37.612C334.327 39.67 335.783 41.168 337.771 41.168C339.759 41.168 341.215 39.67 341.215 37.612C341.215 35.54 339.759 34.042 337.771 34.042C335.783 34.042 334.327 35.54 334.327 37.612ZM335.307 37.598C335.307 36.03 336.315 34.91 337.771 34.91C339.213 34.91 340.235 36.03 340.235 37.598C340.235 39.194 339.213 40.3 337.771 40.3C336.315 40.3 335.307 39.194 335.307 37.598ZM343.726 41V37.458C343.726 35.932 344.51 34.924 345.896 34.924C347.016 34.924 347.73 35.484 347.73 37.066V41H348.696V36.856C348.696 35.148 347.926 34.042 346.064 34.042C345.084 34.042 344.188 34.532 343.74 35.4L343.6 34.224H342.76V41H343.726Z" fill="#3C3D40"/>
<circle cx="209" cy="36" r="10" fill="#F65D53"/>
<path fill-rule="evenodd" clip-rule="evenodd" d="M211.628 31.9599C212.019 31.5694 212.652 31.5694 213.043 31.9599C213.433 32.3504 213.433 32.9836 213.043 33.3741L210.416 36.0008L213.043 38.6281C213.434 39.0186 213.434 39.6518 213.043 40.0423C212.653 40.4328 212.019 40.4328 211.629 40.0423L209.002 37.4151L206.375 40.0416C205.985 40.4322 205.351 40.4322 204.961 40.0416C204.57 39.6511 204.57 39.0179 204.961 38.6274L207.587 36.0008L204.961 33.3748C204.571 32.9842 204.571 32.3511 204.961 31.9605C205.352 31.57 205.985 31.57 206.376 31.9605L209.002 34.5866L211.628 31.9599Z" fill="white"/>
<circle cx="392" cy="36" r="10" fill="#FFD761"/>
<path fill-rule="evenodd" clip-rule="evenodd" d="M387 35.999C387 35.4467 387.448 34.999 388 34.999L395.999 34.999C396.551 34.999 396.999 35.4467 396.999 35.999C396.999 36.5513 396.551 36.999 395.999 36.999L388 36.999C387.448 36.999 387 36.5513 387 35.999Z" fill="white"/>
<path d="M412.226 41V32.656L417.756 41H418.75V30.976H417.756V39.32L412.24 30.976H411.218V41H412.226ZM420.512 37.612C420.512 39.67 421.968 41.168 423.956 41.168C425.944 41.168 427.4 39.67 427.4 37.612C427.4 35.54 425.944 34.042 423.956 34.042C421.968 34.042 420.512 35.54 420.512 37.612ZM421.492 37.598C421.492 36.03 422.5 34.91 423.956 34.91C425.398 34.91 426.42 36.03 426.42 37.598C426.42 39.194 425.398 40.3 423.956 40.3C422.5 40.3 421.492 39.194 421.492 37.598ZM430.431 41V35.036H431.789V34.224H430.431V32.082H429.479V34.224H428.121V35.036H429.479V41H430.431ZM441.228 41.154C443.384 41.154 445.134 39.88 445.596 37.99H444.518C444.084 39.334 442.824 40.188 441.242 40.188C439.044 40.188 437.574 38.508 437.574 35.988C437.574 33.454 439.044 31.774 441.242 31.774C442.81 31.774 444.042 32.656 444.462 34.098H445.54C445.134 32.11 443.44 30.808 441.284 30.808C438.456 30.808 436.524 32.908 436.524 35.988C436.524 39.068 438.428 41.154 441.228 41.154ZM446.653 37.612C446.653 39.67 448.109 41.168 450.097 41.168C452.085 41.168 453.541 39.67 453.541 37.612C453.541 35.54 452.085 34.042 450.097 34.042C448.109 34.042 446.653 35.54 446.653 37.612ZM447.633 37.598C447.633 36.03 448.641 34.91 450.097 34.91C451.539 34.91 452.561 36.03 452.561 37.598C452.561 39.194 451.539 40.3 450.097 40.3C448.641 40.3 447.633 39.194 447.633 37.598ZM456.052 41V37.458C456.052 35.932 456.836 34.924 458.222 34.924C459.342 34.924 460.056 35.484 460.056 37.066V41H461.022V36.856C461.022 35.148 460.252 34.042 458.39 34.042C457.41 34.042 456.514 34.532 456.066 35.4L455.926 34.224H455.086V41H456.052ZM462.191 34.224V35.036H463.227V41H464.193V35.036H465.789V34.224H464.193V32.908C464.193 32.11 464.417 31.676 465.271 31.676H465.845V30.85C465.621 30.808 465.341 30.794 465.103 30.794C464.067 30.794 463.227 31.382 463.227 32.908V34.224H462.191ZM467.58 32.362C467.972 32.362 468.308 32.04 468.308 31.648C468.308 31.256 467.972 30.92 467.58 30.92C467.188 30.92 466.866 31.256 466.866 31.648C466.866 32.04 467.188 32.362 467.58 32.362ZM467.104 41H468.07V34.224H467.104V41ZM472.744 41.168C473.878 41.168 474.83 40.664 475.306 39.614L475.404 41H476.244V30.794H475.278V35.512C474.802 34.532 473.906 34.042 472.786 34.042C470.77 34.042 469.608 35.582 469.608 37.626C469.608 39.656 470.77 41.168 472.744 41.168ZM472.912 40.286C471.442 40.286 470.588 39.166 470.588 37.598C470.588 36.044 471.442 34.91 472.912 34.91C474.396 34.91 475.264 36.044 475.264 37.598C475.264 39.166 474.396 40.286 472.912 40.286ZM481.102 41.168C482.698 41.168 483.748 40.398 484.112 38.97H483.188C482.936 39.866 482.222 40.342 481.116 40.342C479.66 40.342 478.792 39.39 478.722 37.738H484.112V37.262C484.112 35.344 482.866 34.042 481.032 34.042C479.1 34.042 477.784 35.498 477.784 37.612C477.784 39.74 479.114 41.168 481.102 41.168ZM481.032 34.868C482.306 34.868 483.146 35.736 483.146 37.038H478.75C478.918 35.708 479.758 34.868 481.032 34.868ZM486.622 41V37.458C486.622 35.932 487.406 34.924 488.792 34.924C489.912 34.924 490.626 35.484 490.626 37.066V41H491.592V36.856C491.592 35.148 490.822 34.042 488.96 34.042C487.98 34.042 487.084 34.532 486.636 35.4L486.496 34.224H485.656V41H486.622ZM495.072 41V35.036H496.43V34.224H495.072V32.082H494.12V34.224H492.762V35.036H494.12V41H495.072ZM507.787 41V40.076H502.789V36.422H507.311V35.512H502.789V31.9H507.773V30.976H501.781V41H507.787ZM510.589 41V37.458C510.589 35.932 511.373 34.924 512.759 34.924C513.879 34.924 514.593 35.484 514.593 37.066V41H515.559V36.856C515.559 35.148 514.789 34.042 512.927 34.042C511.947 34.042 511.051 34.532 510.603 35.4L510.463 34.224H509.623V41H510.589ZM517.009 37.612C517.009 39.67 518.465 41.168 520.453 41.168C522.441 41.168 523.897 39.67 523.897 37.612C523.897 35.54 522.441 34.042 520.453 34.042C518.465 34.042 517.009 35.54 517.009 37.612ZM517.989 37.598C517.989 36.03 518.997 34.91 520.453 34.91C521.895 34.91 522.917 36.03 522.917 37.598C522.917 39.194 521.895 40.3 520.453 40.3C518.997 40.3 517.989 39.194 517.989 37.598ZM530.038 34.224V37.822C530.038 39.432 529.268 40.3 527.966 40.3C526.888 40.3 526.174 39.726 526.174 38.116V34.21H525.194V38.424C525.194 40.076 526.062 41.168 527.658 41.168C528.722 41.168 529.66 40.636 530.038 39.852L530.164 41H531.004V34.224H530.038ZM532.554 37.416C532.554 39.264 533.73 40.79 535.662 40.79C536.824 40.79 537.762 40.23 538.224 39.278V40.888C538.224 42.302 537.3 43.24 535.914 43.24C534.696 43.24 533.856 42.596 533.646 41.504H532.68C532.946 43.142 534.164 44.122 535.9 44.122C537.888 44.122 539.176 42.806 539.176 40.79V34.224H538.336L538.238 35.582C537.804 34.588 536.908 34.042 535.732 34.042C533.744 34.042 532.554 35.568 532.554 37.416ZM533.52 37.402C533.52 36.03 534.36 34.896 535.816 34.896C537.3 34.896 538.14 35.96 538.14 37.402C538.14 38.858 537.272 39.922 535.802 39.922C534.374 39.922 533.52 38.788 533.52 37.402ZM542.158 40.986V37.304C542.158 36.002 542.914 34.924 544.37 34.924C545.42 34.924 546.162 35.484 546.162 37.066V41H547.128V36.856C547.128 35.148 546.33 34.042 544.552 34.042C543.418 34.042 542.592 34.588 542.158 35.4V30.794H541.192V40.986H542.158Z" fill="#3C3D40"/>
<rect x="24" y="72" width="1216" height="136" rx="4" fill="white"/>
<path d="M27.048 86.188H27.684V85.132C29.256 85.012 30.252 84.088 30.252 82.708C30.252 81.556 29.568 80.8 28.212 80.464L27.684 80.332V77.032C28.608 77.128 29.16 77.656 29.244 78.556H30.108C29.988 77.2 29.076 76.36 27.684 76.264V75.22H27.048V76.264C25.524 76.384 24.528 77.308 24.528 78.64C24.528 79.816 25.236 80.572 26.58 80.896L27.048 81.016V84.352C26.016 84.268 25.356 83.704 25.308 82.864H24.42C24.516 84.184 25.536 85.048 27.048 85.132V86.188ZM26.736 80.104C25.824 79.876 25.38 79.384 25.38 78.628C25.38 77.752 26.028 77.152 27.048 77.044V80.176L26.736 80.104ZM28.032 81.256C28.956 81.472 29.4 81.976 29.4 82.756C29.4 83.644 28.74 84.244 27.684 84.352V81.172L28.032 81.256ZM37.6017 83.176V82.408H36.5937V76.408H35.4417L31.2417 82.408V83.176H35.7537V85H36.5937V83.176H37.6017ZM32.1777 82.408L35.7537 77.296V82.408H32.1777ZM41.5777 85.144C43.3777 85.144 44.6017 83.92 44.6017 82.192C44.6017 80.584 43.4977 79.3 41.7097 79.3C41.0377 79.3 40.4137 79.516 39.9337 79.9L40.5817 77.2H44.1097V76.408H39.9577L38.9257 80.728L39.6097 80.944C40.0777 80.428 40.7977 80.068 41.5897 80.068C42.9457 80.068 43.7257 81.016 43.7257 82.216C43.7257 83.488 42.8857 84.352 41.5897 84.352C40.3657 84.352 39.6097 83.608 39.6097 82.372H38.7457C38.7457 84.064 39.8497 85.144 41.5777 85.144ZM46.8218 85V83.26L47.9498 82.096L49.7978 85H50.7578L48.5138 81.508L50.7458 79.192H49.7018L46.8218 82.192V76.252H45.9938V85H46.8218Z" fill="#7D838D"/>
<path opacity="0.6" d="M72 80L572 80" stroke="#E3E7ED" stroke-linecap="round" stroke-linejoin="round"/>
<path d="M27.048 126.188H27.684V125.132C29.256 125.012 30.252 124.088 30.252 122.708C30.252 121.556 29.568 120.8 28.212 120.464L27.684 120.332V117.032C28.608 117.128 29.16 117.656 29.244 118.556H30.108C29.988 117.2 29.076 116.36 27.684 116.264V115.22H27.048V116.264C25.524 116.384 24.528 117.308 24.528 118.64C24.528 119.816 25.236 120.572 26.58 120.896L27.048 121.016V124.352C26.016 124.268 25.356 123.704 25.308 122.864H24.42C24.516 124.184 25.536 125.048 27.048 125.132V126.188ZM26.736 120.104C25.824 119.876 25.38 119.384 25.38 118.628C25.38 117.752 26.028 117.152 27.048 117.044V120.176L26.736 120.104ZM28.032 121.256C28.956 121.472 29.4 121.976 29.4 122.756C29.4 123.644 28.74 124.244 27.684 124.352V121.172L28.032 121.256ZM37.6017 123.176V122.408H36.5937V116.408H35.4417L31.2417 122.408V123.176H35.7537V125H36.5937V123.176H37.6017ZM32.1777 122.408L35.7537 117.296V122.408H32.1777ZM44.9377 123.176V122.408H43.9297V116.408H42.7777L38.5777 122.408V123.176H43.0897V125H43.9297V123.176H44.9377ZM39.5137 122.408L43.0897 117.296V122.408H39.5137ZM47.3491 125V123.26L48.4771 122.096L50.3251 125H51.2851L49.0411 121.508L51.2731 119.192H50.2291L47.3491 122.192V116.252H46.5211V125H47.3491Z" fill="#7D838D"/>
<path opacity="0.6" d="M72 120L572 120" stroke="#E3E7ED" stroke-linecap="round" stroke-linejoin="round"/>
<path d="M27.048 166.188H27.684V165.132C29.256 165.012 30.252 164.088 30.252 162.708C30.252 161.556 29.568 160.8 28.212 160.464L27.684 160.332V157.032C28.608 157.128 29.16 157.656 29.244 158.556H30.108C29.988 157.2 29.076 156.36 27.684 156.264V155.22H27.048V156.264C25.524 156.384 24.528 157.308 24.528 158.64C24.528 159.816 25.236 160.572 26.58 160.896L27.048 161.016V164.352C26.016 164.268 25.356 163.704 25.308 162.864H24.42C24.516 164.184 25.536 165.048 27.048 165.132V166.188ZM26.736 160.104C25.824 159.876 25.38 159.384 25.38 158.628C25.38 157.752 26.028 157.152 27.048 157.044V160.176L26.736 160.104ZM28.032 161.256C28.956 161.472 29.4 161.976 29.4 162.756C29.4 163.644 28.74 164.244 27.684 164.352V161.172L28.032 161.256ZM37.6017 163.176V162.408H36.5937V156.408H35.4417L31.2417 162.408V163.176H35.7537V165H36.5937V163.176H37.6017ZM32.1777 162.408L35.7537 157.296V162.408H32.1777ZM41.2508 160.392C42.7868 160.392 43.6268 161.124 43.6268 162.3C43.6268 163.548 42.7988 164.364 41.5148 164.364C40.3028 164.364 39.5348 163.62 39.5348 162.384H38.6828C38.6828 164.1 39.8228 165.144 41.5148 165.144C43.2548 165.144 44.5028 164.028 44.5028 162.324C44.5028 160.764 43.3508 159.744 41.7428 159.66L44.3108 157.104V156.408H39.1028V157.176H43.2188L40.5668 159.792V160.392H41.2508ZM46.7632 165V163.26L47.8912 162.096L49.7392 165H50.6992L48.4552 161.508L50.6872 159.192H49.6432L46.7632 162.192V156.252H45.9352V165H46.7632Z" fill="#7D838D"/>
<path opacity="0.6" d="M72 160L572 160" stroke="#E3E7ED" stroke-linecap="round" stroke-linejoin="round"/>
<path d="M27.048 206.188H27.684V205.132C29.256 205.012 30.252 204.088 30.252 202.708C30.252 201.556 29.568 200.8 28.212 200.464L27.684 200.332V197.032C28.608 197.128 29.16 197.656 29.244 198.556H30.108C29.988 197.2 29.076 196.36 27.684 196.264V195.22H27.048V196.264C25.524 196.384 24.528 197.308 24.528 198.64C24.528 199.816 25.236 200.572 26.58 200.896L27.048 201.016V204.352C26.016 204.268 25.356 203.704 25.308 202.864H24.42C24.516 204.184 25.536 205.048 27.048 205.132V206.188ZM26.736 200.104C25.824 199.876 25.38 199.384 25.38 198.628C25.38 197.752 26.028 197.152 27.048 197.044V200.176L26.736 200.104ZM28.032 201.256C28.956 201.472 29.4 201.976 29.4 202.756C29.4 203.644 28.74 204.244 27.684 204.352V201.172L28.032 201.256ZM37.6017 203.176V202.408H36.5937V196.408H35.4417L31.2417 202.408V203.176H35.7537V205H36.5937V203.176H37.6017ZM32.1777 202.408L35.7537 197.296V202.408H32.1777ZM44.1493 205V204.196H39.8173L41.8213 202.444C43.5373 200.944 44.1013 200.116 44.1013 198.868C44.1013 197.296 43.0213 196.252 41.4013 196.252C39.7093 196.252 38.5693 197.44 38.5213 199.24H39.3853C39.4213 197.908 40.2013 197.044 41.3893 197.044C42.5293 197.044 43.2253 197.752 43.2253 198.916C43.2253 199.936 42.8173 200.536 41.2333 201.916L38.4853 204.316V205H44.1493ZM46.4116 205V203.26L47.5396 202.096L49.3876 205H50.3476L48.1036 201.508L50.3356 199.192H49.2916L46.4116 202.192V196.252H45.5836V205H46.4116Z" fill="#7D838D"/>
<path opacity="0.6" d="M72 200L570 200" stroke="#E3E7ED" stroke-linecap="round" stroke-linejoin="round"/>
<path d="M24 232H572" stroke="#BCC4CF" stroke-linecap="round" stroke-linejoin="round"/>
<rect x="122" y="232" width="3" height="8" fill="#BCC4CF"/>
<rect x="313" y="232" width="3" height="8" fill="#BCC4CF"/>
<rect x="504" y="232" width="3" height="8" fill="#BCC4CF"/>
<path d="M83.883 257.22V256.44H80.367V253.2H84.567V252.408H79.503V261H80.367V257.22H83.883ZM87.8176 261.144C89.1856 261.144 90.0856 260.484 90.3976 259.26H89.6056C89.3896 260.028 88.7776 260.436 87.8296 260.436C86.5816 260.436 85.8376 259.62 85.7776 258.204H90.3976V257.796C90.3976 256.152 89.3296 255.036 87.7576 255.036C86.1016 255.036 84.9736 256.284 84.9736 258.096C84.9736 259.92 86.1136 261.144 87.8176 261.144ZM87.7576 255.744C88.8496 255.744 89.5696 256.488 89.5696 257.604H85.8016C85.9456 256.464 86.6656 255.744 87.7576 255.744ZM92.4414 261L92.5254 259.812C92.9334 260.712 93.7374 261.144 94.7094 261.144C96.4014 261.144 97.4094 259.848 97.4094 258.108C97.4094 256.356 96.4254 255.036 94.7334 255.036C93.7494 255.036 92.9574 255.468 92.5494 256.32V252.252H91.7214V261H92.4414ZM92.5614 258.084C92.5614 256.752 93.3054 255.78 94.5774 255.78C95.8374 255.78 96.5694 256.752 96.5694 258.084C96.5694 259.428 95.8374 260.388 94.5774 260.388C93.3054 260.388 92.5614 259.428 92.5614 258.084ZM103.365 253.188V261H104.193V252.408H101.613V253.188H103.365ZM108.658 261.144C110.458 261.144 111.682 259.92 111.682 258.192C111.682 256.584 110.578 255.3 108.79 255.3C108.118 255.3 107.494 255.516 107.014 255.9L107.662 253.2H111.19V252.408H107.038L106.006 256.728L106.69 256.944C107.158 256.428 107.878 256.068 108.67 256.068C110.026 256.068 110.806 257.016 110.806 258.216C110.806 259.488 109.966 260.352 108.67 260.352C107.446 260.352 106.69 259.608 106.69 258.372H105.826C105.826 260.064 106.93 261.144 108.658 261.144ZM114.185 260.592C114.185 259.992 113.813 259.644 113.381 259.644C112.961 259.644 112.673 259.944 112.673 260.364C112.673 260.772 112.961 261.012 113.297 261.012C113.441 261.012 113.537 260.976 113.609 260.928C113.609 261.264 113.297 261.576 112.865 261.648V262.092C113.609 261.984 114.185 261.336 114.185 260.592ZM120.498 253.188V261H121.326V252.408H118.746V253.188H120.498ZM128.538 261V260.196H124.206L126.21 258.444C127.926 256.944 128.49 256.116 128.49 254.868C128.49 253.296 127.41 252.252 125.79 252.252C124.098 252.252 122.958 253.44 122.91 255.24H123.774C123.81 253.908 124.59 253.044 125.778 253.044C126.918 253.044 127.614 253.752 127.614 254.916C127.614 255.936 127.206 256.536 125.622 257.916L122.874 260.316V261H128.538ZM130.764 256.536C131.172 256.536 131.52 256.188 131.52 255.792C131.52 255.384 131.172 255.048 130.764 255.048C130.356 255.048 130.008 255.384 130.008 255.792C130.008 256.188 130.356 256.536 130.764 256.536ZM130.764 261.132C131.172 261.132 131.52 260.796 131.52 260.4C131.52 259.992 131.172 259.644 130.764 259.644C130.356 259.644 130.008 259.992 130.008 260.4C130.008 260.796 130.356 261.132 130.764 261.132ZM133.119 256.704C133.119 259.38 134.403 261.156 136.563 261.156C138.711 261.156 139.995 259.38 139.995 256.704C139.995 254.04 138.687 252.24 136.563 252.24C134.427 252.24 133.119 254.04 133.119 256.704ZM133.971 256.704C133.971 254.46 134.919 253.032 136.563 253.032C138.207 253.032 139.155 254.46 139.155 256.704C139.155 258.936 138.207 260.376 136.563 260.376C134.919 260.376 133.971 258.936 133.971 256.704ZM141.31 256.704C141.31 259.38 142.594 261.156 144.754 261.156C146.902 261.156 148.186 259.38 148.186 256.704C148.186 254.04 146.878 252.24 144.754 252.24C142.618 252.24 141.31 254.04 141.31 256.704ZM142.162 256.704C142.162 254.46 143.11 253.032 144.754 253.032C146.398 253.032 147.346 254.46 147.346 256.704C147.346 258.936 146.398 260.376 144.754 260.376C143.11 260.376 142.162 258.936 142.162 256.704ZM154.702 261.144C155.686 261.144 156.478 260.712 156.838 259.98L156.946 261H157.642V257.244C157.642 255.708 156.658 255.036 155.314 255.036C153.886 255.036 152.926 255.792 152.926 256.968H153.682C153.682 256.188 154.282 255.732 155.29 255.732C156.142 255.732 156.826 256.092 156.826 257.232V257.424L154.906 257.58C153.55 257.688 152.734 258.36 152.734 259.428C152.734 260.448 153.466 261.144 154.702 261.144ZM154.894 260.472C154.102 260.472 153.574 260.112 153.574 259.404C153.574 258.756 154.018 258.276 155.11 258.18L156.826 258.048V258.36C156.826 259.62 156.118 260.472 154.894 260.472ZM160.131 261V257.4C160.131 256.512 160.719 255.792 161.691 255.792C162.567 255.792 163.131 256.368 163.131 257.352V261H163.947V257.412C163.947 256.512 164.523 255.78 165.495 255.78C166.383 255.78 166.935 256.368 166.935 257.364V261H167.739V257.196C167.739 255.852 166.911 255.036 165.651 255.036C164.715 255.036 164.007 255.516 163.743 256.272C163.467 255.516 162.783 255.036 161.871 255.036C161.055 255.036 160.407 255.408 160.119 256.02L160.023 255.192H159.303V261H160.131Z" fill="#7D838D"/>
<path d="M272.791 257.22V256.44H269.275V253.2H273.475V252.408H268.411V261H269.275V257.22H272.791ZM276.726 261.144C278.094 261.144 278.994 260.484 279.306 259.26H278.514C278.298 260.028 277.686 260.436 276.738 260.436C275.49 260.436 274.746 259.62 274.686 258.204H279.306V257.796C279.306 256.152 278.238 255.036 276.666 255.036C275.01 255.036 273.882 256.284 273.882 258.096C273.882 259.92 275.022 261.144 276.726 261.144ZM276.666 255.744C277.758 255.744 278.478 256.488 278.478 257.604H274.71C274.854 256.464 275.574 255.744 276.666 255.744ZM281.35 261L281.434 259.812C281.842 260.712 282.646 261.144 283.618 261.144C285.31 261.144 286.318 259.848 286.318 258.108C286.318 256.356 285.334 255.036 283.642 255.036C282.658 255.036 281.866 255.468 281.458 256.32V252.252H280.63V261H281.35ZM281.47 258.084C281.47 256.752 282.214 255.78 283.486 255.78C284.746 255.78 285.478 256.752 285.478 258.084C285.478 259.428 284.746 260.388 283.486 260.388C282.214 260.388 281.47 259.428 281.47 258.084ZM292.274 253.188V261H293.102V252.408H290.522V253.188H292.274ZM297.566 261.144C299.366 261.144 300.59 259.92 300.59 258.192C300.59 256.584 299.486 255.3 297.698 255.3C297.026 255.3 296.402 255.516 295.922 255.9L296.57 253.2H300.098V252.408H295.946L294.914 256.728L295.598 256.944C296.066 256.428 296.786 256.068 297.578 256.068C298.934 256.068 299.714 257.016 299.714 258.216C299.714 259.488 298.874 260.352 297.578 260.352C296.354 260.352 295.598 259.608 295.598 258.372H294.734C294.734 260.064 295.838 261.144 297.566 261.144ZM303.094 260.592C303.094 259.992 302.722 259.644 302.29 259.644C301.87 259.644 301.582 259.944 301.582 260.364C301.582 260.772 301.87 261.012 302.206 261.012C302.35 261.012 302.446 260.976 302.518 260.928C302.518 261.264 302.206 261.576 301.774 261.648V262.092C302.518 261.984 303.094 261.336 303.094 260.592ZM307.894 256.704C307.894 259.38 309.178 261.156 311.338 261.156C313.486 261.156 314.77 259.38 314.77 256.704C314.77 254.04 313.462 252.24 311.338 252.24C309.202 252.24 307.894 254.04 307.894 256.704ZM308.746 256.704C308.746 254.46 309.694 253.032 311.338 253.032C312.982 253.032 313.93 254.46 313.93 256.704C313.93 258.936 312.982 260.376 311.338 260.376C309.694 260.376 308.746 258.936 308.746 256.704ZM321.63 261V260.196H317.298L319.302 258.444C321.018 256.944 321.582 256.116 321.582 254.868C321.582 253.296 320.502 252.252 318.882 252.252C317.19 252.252 316.05 253.44 316.002 255.24H316.866C316.902 253.908 317.682 253.044 318.87 253.044C320.01 253.044 320.706 253.752 320.706 254.916C320.706 255.936 320.298 256.536 318.714 257.916L315.966 260.316V261H321.63ZM323.856 256.536C324.264 256.536 324.612 256.188 324.612 255.792C324.612 255.384 324.264 255.048 323.856 255.048C323.448 255.048 323.1 255.384 323.1 255.792C323.1 256.188 323.448 256.536 323.856 256.536ZM323.856 261.132C324.264 261.132 324.612 260.796 324.612 260.4C324.612 259.992 324.264 259.644 323.856 259.644C323.448 259.644 323.1 259.992 323.1 260.4C323.1 260.796 323.448 261.132 323.856 261.132ZM326.211 256.704C326.211 259.38 327.495 261.156 329.655 261.156C331.803 261.156 333.087 259.38 333.087 256.704C333.087 254.04 331.779 252.24 329.655 252.24C327.519 252.24 326.211 254.04 326.211 256.704ZM327.063 256.704C327.063 254.46 328.011 253.032 329.655 253.032C331.299 253.032 332.247 254.46 332.247 256.704C332.247 258.936 331.299 260.376 329.655 260.376C328.011 260.376 327.063 258.936 327.063 256.704ZM334.402 256.704C334.402 259.38 335.686 261.156 337.846 261.156C339.994 261.156 341.278 259.38 341.278 256.704C341.278 254.04 339.97 252.24 337.846 252.24C335.71 252.24 334.402 254.04 334.402 256.704ZM335.254 256.704C335.254 254.46 336.202 253.032 337.846 253.032C339.49 253.032 340.438 254.46 340.438 256.704C340.438 258.936 339.49 260.376 337.846 260.376C336.202 260.376 335.254 258.936 335.254 256.704ZM347.794 261.144C348.778 261.144 349.57 260.712 349.93 259.98L350.038 261H350.734V257.244C350.734 255.708 349.75 255.036 348.406 255.036C346.978 255.036 346.018 255.792 346.018 256.968H346.774C346.774 256.188 347.374 255.732 348.382 255.732C349.234 255.732 349.918 256.092 349.918 257.232V257.424L347.998 257.58C346.642 257.688 345.826 258.36 345.826 259.428C345.826 260.448 346.558 261.144 347.794 261.144ZM347.986 260.472C347.194 260.472 346.666 260.112 346.666 259.404C346.666 258.756 347.11 258.276 348.202 258.18L349.918 258.048V258.36C349.918 259.62 349.21 260.472 347.986 260.472ZM353.223 261V257.4C353.223 256.512 353.811 255.792 354.783 255.792C355.659 255.792 356.223 256.368 356.223 257.352V261H357.039V257.412C357.039 256.512 357.615 255.78 358.587 255.78C359.475 255.78 360.027 256.368 360.027 257.364V261H360.831V257.196C360.831 255.852 360.003 255.036 358.743 255.036C357.807 255.036 357.099 255.516 356.835 256.272C356.559 255.516 355.875 255.036 354.963 255.036C354.147 255.036 353.499 255.408 353.211 256.02L353.115 255.192H352.395V261H353.223Z" fill="#7D838D"/>
<path d="M462.899 257.22V256.44H459.383V253.2H463.583V252.408H458.519V261H459.383V257.22H462.899ZM466.833 261.144C468.201 261.144 469.101 260.484 469.413 259.26H468.621C468.405 260.028 467.793 260.436 466.845 260.436C465.597 260.436 464.853 259.62 464.793 258.204H469.413V257.796C469.413 256.152 468.345 255.036 466.773 255.036C465.117 255.036 463.989 256.284 463.989 258.096C463.989 259.92 465.129 261.144 466.833 261.144ZM466.773 255.744C467.865 255.744 468.585 256.488 468.585 257.604H464.817C464.961 256.464 465.681 255.744 466.773 255.744ZM471.457 261L471.541 259.812C471.949 260.712 472.753 261.144 473.725 261.144C475.417 261.144 476.425 259.848 476.425 258.108C476.425 256.356 475.441 255.036 473.749 255.036C472.765 255.036 471.973 255.468 471.565 256.32V252.252H470.737V261H471.457ZM471.577 258.084C471.577 256.752 472.321 255.78 473.593 255.78C474.853 255.78 475.585 256.752 475.585 258.084C475.585 259.428 474.853 260.388 473.593 260.388C472.321 260.388 471.577 259.428 471.577 258.084ZM482.381 253.188V261H483.209V252.408H480.629V253.188H482.381ZM487.673 261.144C489.473 261.144 490.697 259.92 490.697 258.192C490.697 256.584 489.593 255.3 487.805 255.3C487.133 255.3 486.509 255.516 486.029 255.9L486.677 253.2H490.205V252.408H486.053L485.021 256.728L485.705 256.944C486.173 256.428 486.893 256.068 487.685 256.068C489.041 256.068 489.821 257.016 489.821 258.216C489.821 259.488 488.981 260.352 487.685 260.352C486.461 260.352 485.705 259.608 485.705 258.372H484.841C484.841 260.064 485.945 261.144 487.673 261.144ZM493.201 260.592C493.201 259.992 492.829 259.644 492.397 259.644C491.977 259.644 491.689 259.944 491.689 260.364C491.689 260.772 491.977 261.012 492.313 261.012C492.457 261.012 492.553 260.976 492.625 260.928C492.625 261.264 492.313 261.576 491.881 261.648V262.092C492.625 261.984 493.201 261.336 493.201 260.592ZM498.002 256.704C498.002 259.38 499.286 261.156 501.446 261.156C503.594 261.156 504.878 259.38 504.878 256.704C504.878 254.04 503.57 252.24 501.446 252.24C499.31 252.24 498.002 254.04 498.002 256.704ZM498.854 256.704C498.854 254.46 499.802 253.032 501.446 253.032C503.09 253.032 504.038 254.46 504.038 256.704C504.038 258.936 503.09 260.376 501.446 260.376C499.802 260.376 498.854 258.936 498.854 256.704ZM512.373 259.176V258.408H511.365V252.408H510.213L506.013 258.408V259.176H510.525V261H511.365V259.176H512.373ZM506.949 258.408L510.525 253.296V258.408H506.949ZM514.749 256.536C515.157 256.536 515.505 256.188 515.505 255.792C515.505 255.384 515.157 255.048 514.749 255.048C514.341 255.048 513.993 255.384 513.993 255.792C513.993 256.188 514.341 256.536 514.749 256.536ZM514.749 261.132C515.157 261.132 515.505 260.796 515.505 260.4C515.505 259.992 515.157 259.644 514.749 259.644C514.341 259.644 513.993 259.992 513.993 260.4C513.993 260.796 514.341 261.132 514.749 261.132ZM517.103 256.704C517.103 259.38 518.387 261.156 520.547 261.156C522.695 261.156 523.979 259.38 523.979 256.704C523.979 254.04 522.671 252.24 520.547 252.24C518.411 252.24 517.103 254.04 517.103 256.704ZM517.955 256.704C517.955 254.46 518.903 253.032 520.547 253.032C522.191 253.032 523.139 254.46 523.139 256.704C523.139 258.936 522.191 260.376 520.547 260.376C518.903 260.376 517.955 258.936 517.955 256.704ZM525.295 256.704C525.295 259.38 526.579 261.156 528.739 261.156C530.887 261.156 532.171 259.38 532.171 256.704C532.171 254.04 530.863 252.24 528.739 252.24C526.603 252.24 525.295 254.04 525.295 256.704ZM526.147 256.704C526.147 254.46 527.095 253.032 528.739 253.032C530.383 253.032 531.331 254.46 531.331 256.704C531.331 258.936 530.383 260.376 528.739 260.376C527.095 260.376 526.147 258.936 526.147 256.704ZM538.686 261.144C539.67 261.144 540.462 260.712 540.822 259.98L540.93 261H541.626V257.244C541.626 255.708 540.642 255.036 539.298 255.036C537.87 255.036 536.91 255.792 536.91 256.968H537.666C537.666 256.188 538.266 255.732 539.274 255.732C540.126 255.732 540.81 256.092 540.81 257.232V257.424L538.89 257.58C537.534 257.688 536.718 258.36 536.718 259.428C536.718 260.448 537.45 261.144 538.686 261.144ZM538.878 260.472C538.086 260.472 537.558 260.112 537.558 259.404C537.558 258.756 538.002 258.276 539.094 258.18L540.81 258.048V258.36C540.81 259.62 540.102 260.472 538.878 260.472ZM544.116 261V257.4C544.116 256.512 544.704 255.792 545.676 255.792C546.552 255.792 547.116 256.368 547.116 257.352V261H547.932V257.412C547.932 256.512 548.508 255.78 549.48 255.78C550.368 255.78 550.92 256.368 550.92 257.364V261H551.724V257.196C551.724 255.852 550.896 255.036 549.636 255.036C548.7 255.036 547.992 255.516 547.728 256.272C547.452 255.516 546.768 255.036 545.856 255.036C545.04 255.036 544.392 255.408 544.104 256.02L544.008 255.192H543.288V261H544.116Z" fill="#7D838D"/>
<g clip-path="url(#clip1_3362_34388)">
<path d="M68 150L257.803 122L471.632 169L644.617 114H771.953L889.679 97H995.392L1127.53 65H1190" stroke="#6237DE" stroke-width="2"/>
<path d="M257.803 122L68 150V232H1190V65H1127.53L995.392 97H889.679L771.953 114H644.617L471.632 169L257.803 122Z" fill="url(#paint0_linear_3362_34388)" fill-opacity="0.13"/>
<circle cx="113" cy="143" r="12" fill="#51D9B8"/>
<path d="M109 143L111.522 145.666L117 140.333" stroke="white" stroke-width="2" stroke-linecap="round"/>
<circle cx="178" cy="134" r="12" fill="#F65D53"/>
<path fill-rule="evenodd" clip-rule="evenodd" d="M180.628 129.96C181.019 129.569 181.652 129.569 182.043 129.96C182.433 130.35 182.433 130.984 182.043 131.374L179.416 134.001L182.043 136.628C182.434 137.019 182.434 137.652 182.043 138.042C181.653 138.433 181.019 138.433 180.629 138.042L178.002 135.415L175.375 138.042C174.985 138.432 174.351 138.432 173.961 138.042C173.57 137.651 173.57 137.018 173.961 136.627L176.587 134.001L173.961 131.375C173.571 130.984 173.571 130.351 173.961 129.961C174.352 129.57 174.985 129.57 175.376 129.961L178.002 132.587L180.628 129.96Z" fill="white"/>
<circle cx="255" cy="122" r="12" fill="#FFD761"/>
<path fill-rule="evenodd" clip-rule="evenodd" d="M250 121.999C250 121.447 250.448 120.999 251 120.999L258.999 120.999C259.551 120.999 259.999 121.447 259.999 121.999C259.999 122.551 259.551 122.999 258.999 122.999L251 122.999C250.448 122.999 250 122.551 250 121.999Z" fill="white"/>
<circle cx="323" cy="135" r="12" fill="#51D9B8"/>
<path d="M319 135L321.522 137.666L327 132.333" stroke="white" stroke-width="2" stroke-linecap="round"/>
<circle cx="471" cy="166" r="12" fill="#F65D53"/>
<path fill-rule="evenodd" clip-rule="evenodd" d="M473.628 161.96C474.019 161.569 474.652 161.569 475.043 161.96C475.433 162.35 475.433 162.984 475.043 163.374L472.416 166.001L475.043 168.628C475.434 169.019 475.434 169.652 475.043 170.042C474.653 170.433 474.019 170.433 473.629 170.042L471.002 167.415L468.375 170.042C467.985 170.432 467.351 170.432 466.961 170.042C466.57 169.651 466.57 169.018 466.961 168.627L469.587 166.001L466.961 163.375C466.571 162.984 466.571 162.351 466.961 161.961C467.352 161.57 467.985 161.57 468.376 161.961L471.002 164.587L473.628 161.96Z" fill="white"/>
</g>
</g>
<defs>
<linearGradient id="paint0_linear_3362_34388" x1="629" y1="48.5" x2="629" y2="202" gradientUnits="userSpaceOnUse">
<stop offset="0.0897477" stop-color="#6B38FD"/>
<stop offset="1" stop-color="#6B38FD" stop-opacity="0"/>
</linearGradient>
<clipPath id="clip0_3362_34388">
<rect width="596" height="288" fill="white"/>
</clipPath>
<clipPath id="clip1_3362_34388">
<rect width="500" height="178" fill="white" transform="translate(72 54)"/>
</clipPath>
</defs>
</svg>
