<svg width="1265" height="400" viewBox="0 0 1265 400" fill="none" xmlns="http://www.w3.org/2000/svg">
<g clip-path="url(#clip0_3362_34948)">
<path d="M0 0H1264V400H0V0Z" fill="white"/>
<path d="M24 344H1240" stroke="#BCC4CF" stroke-linecap="round" stroke-linejoin="round"/>
<path d="M73.6564 369.22V368.44H70.1404V365.2H74.3404V364.408H69.2764V373H70.1404V369.22H73.6564ZM77.591 373.144C78.959 373.144 79.859 372.484 80.171 371.26H79.379C79.163 372.028 78.551 372.436 77.603 372.436C76.355 372.436 75.611 371.62 75.551 370.204H80.171V369.796C80.171 368.152 79.103 367.036 77.531 367.036C75.875 367.036 74.747 368.284 74.747 370.096C74.747 371.92 75.887 373.144 77.591 373.144ZM77.531 367.744C78.623 367.744 79.343 368.488 79.343 369.604H75.575C75.719 368.464 76.439 367.744 77.531 367.744ZM82.2149 373L82.2989 371.812C82.7069 372.712 83.5109 373.144 84.4829 373.144C86.1749 373.144 87.1829 371.848 87.1829 370.108C87.1829 368.356 86.1989 367.036 84.5069 367.036C83.5229 367.036 82.7309 367.468 82.3229 368.32V364.252H81.4949V373H82.2149ZM82.3349 370.084C82.3349 368.752 83.0789 367.78 84.3509 367.78C85.6109 367.78 86.3429 368.752 86.3429 370.084C86.3429 371.428 85.6109 372.388 84.3509 372.388C83.0789 372.388 82.3349 371.428 82.3349 370.084ZM93.1388 365.188V373H93.9668V364.408H91.3868V365.188H93.1388ZM98.4312 373.144C100.231 373.144 101.455 371.92 101.455 370.192C101.455 368.584 100.351 367.3 98.5632 367.3C97.8912 367.3 97.2672 367.516 96.7872 367.9L97.4352 365.2H100.963V364.408H96.8112L95.7792 368.728L96.4632 368.944C96.9312 368.428 97.6512 368.068 98.4432 368.068C99.7992 368.068 100.579 369.016 100.579 370.216C100.579 371.488 99.7392 372.352 98.4432 372.352C97.2192 372.352 96.4632 371.608 96.4632 370.372H95.5992C95.5992 372.064 96.7032 373.144 98.4312 373.144ZM103.959 372.592C103.959 371.992 103.587 371.644 103.155 371.644C102.735 371.644 102.447 371.944 102.447 372.364C102.447 372.772 102.735 373.012 103.071 373.012C103.215 373.012 103.311 372.976 103.383 372.928C103.383 373.264 103.071 373.576 102.639 373.648V374.092C103.383 373.984 103.959 373.336 103.959 372.592ZM110.272 365.188V373H111.1V364.408H108.52V365.188H110.272ZM112.767 368.704C112.767 371.38 114.051 373.156 116.211 373.156C118.359 373.156 119.643 371.38 119.643 368.704C119.643 366.04 118.335 364.24 116.211 364.24C114.075 364.24 112.767 366.04 112.767 368.704ZM113.619 368.704C113.619 366.46 114.567 365.032 116.211 365.032C117.855 365.032 118.803 366.46 118.803 368.704C118.803 370.936 117.855 372.376 116.211 372.376C114.567 372.376 113.619 370.936 113.619 368.704ZM121.991 368.536C122.399 368.536 122.747 368.188 122.747 367.792C122.747 367.384 122.399 367.048 121.991 367.048C121.583 367.048 121.235 367.384 121.235 367.792C121.235 368.188 121.583 368.536 121.991 368.536ZM121.991 373.132C122.399 373.132 122.747 372.796 122.747 372.4C122.747 371.992 122.399 371.644 121.991 371.644C121.583 371.644 121.235 371.992 121.235 372.4C121.235 372.796 121.583 373.132 121.991 373.132ZM124.346 368.704C124.346 371.38 125.63 373.156 127.79 373.156C129.938 373.156 131.222 371.38 131.222 368.704C131.222 366.04 129.914 364.24 127.79 364.24C125.654 364.24 124.346 366.04 124.346 368.704ZM125.198 368.704C125.198 366.46 126.146 365.032 127.79 365.032C129.434 365.032 130.382 366.46 130.382 368.704C130.382 370.936 129.434 372.376 127.79 372.376C126.146 372.376 125.198 370.936 125.198 368.704ZM132.537 368.704C132.537 371.38 133.821 373.156 135.981 373.156C138.129 373.156 139.413 371.38 139.413 368.704C139.413 366.04 138.105 364.24 135.981 364.24C133.845 364.24 132.537 366.04 132.537 368.704ZM133.389 368.704C133.389 366.46 134.337 365.032 135.981 365.032C137.625 365.032 138.573 366.46 138.573 368.704C138.573 370.936 137.625 372.376 135.981 372.376C134.337 372.376 133.389 370.936 133.389 368.704ZM145.928 373.144C146.912 373.144 147.704 372.712 148.064 371.98L148.172 373H148.868V369.244C148.868 367.708 147.884 367.036 146.54 367.036C145.112 367.036 144.152 367.792 144.152 368.968H144.908C144.908 368.188 145.508 367.732 146.516 367.732C147.368 367.732 148.052 368.092 148.052 369.232V369.424L146.132 369.58C144.776 369.688 143.96 370.36 143.96 371.428C143.96 372.448 144.692 373.144 145.928 373.144ZM146.12 372.472C145.328 372.472 144.8 372.112 144.8 371.404C144.8 370.756 145.244 370.276 146.336 370.18L148.052 370.048V370.36C148.052 371.62 147.344 372.472 146.12 372.472ZM151.358 373V369.4C151.358 368.512 151.946 367.792 152.918 367.792C153.794 367.792 154.358 368.368 154.358 369.352V373H155.174V369.412C155.174 368.512 155.75 367.78 156.722 367.78C157.61 367.78 158.162 368.368 158.162 369.364V373H158.966V369.196C158.966 367.852 158.138 367.036 156.878 367.036C155.942 367.036 155.234 367.516 154.97 368.272C154.694 367.516 154.01 367.036 153.098 367.036C152.282 367.036 151.634 367.408 151.346 368.02L151.25 367.192H150.53V373H151.358Z" fill="#7D838D"/>
<rect x="113" y="344" width="3" height="8" fill="#BCC4CF"/>
<rect x="300" y="344" width="3" height="8" fill="#BCC4CF"/>
<path d="M261.883 369.22V368.44H258.367V365.2H262.567V364.408H257.503V373H258.367V369.22H261.883ZM265.818 373.144C267.186 373.144 268.086 372.484 268.398 371.26H267.606C267.39 372.028 266.778 372.436 265.83 372.436C264.582 372.436 263.838 371.62 263.778 370.204H268.398V369.796C268.398 368.152 267.33 367.036 265.758 367.036C264.102 367.036 262.974 368.284 262.974 370.096C262.974 371.92 264.114 373.144 265.818 373.144ZM265.758 367.744C266.85 367.744 267.57 368.488 267.57 369.604H263.802C263.946 368.464 264.666 367.744 265.758 367.744ZM270.441 373L270.525 371.812C270.933 372.712 271.737 373.144 272.709 373.144C274.401 373.144 275.409 371.848 275.409 370.108C275.409 368.356 274.425 367.036 272.733 367.036C271.749 367.036 270.957 367.468 270.549 368.32V364.252H269.721V373H270.441ZM270.561 370.084C270.561 368.752 271.305 367.78 272.577 367.78C273.837 367.78 274.569 368.752 274.569 370.084C274.569 371.428 273.837 372.388 272.577 372.388C271.305 372.388 270.561 371.428 270.561 370.084ZM281.365 365.188V373H282.193V364.408H279.613V365.188H281.365ZM286.658 373.144C288.458 373.144 289.682 371.92 289.682 370.192C289.682 368.584 288.578 367.3 286.79 367.3C286.118 367.3 285.494 367.516 285.014 367.9L285.662 365.2H289.19V364.408H285.038L284.006 368.728L284.69 368.944C285.158 368.428 285.878 368.068 286.67 368.068C288.026 368.068 288.806 369.016 288.806 370.216C288.806 371.488 287.966 372.352 286.67 372.352C285.446 372.352 284.69 371.608 284.69 370.372H283.826C283.826 372.064 284.93 373.144 286.658 373.144ZM292.185 372.592C292.185 371.992 291.813 371.644 291.381 371.644C290.961 371.644 290.673 371.944 290.673 372.364C290.673 372.772 290.961 373.012 291.297 373.012C291.441 373.012 291.537 372.976 291.609 372.928C291.609 373.264 291.297 373.576 290.865 373.648V374.092C291.609 373.984 292.185 373.336 292.185 372.592ZM298.498 365.188V373H299.326V364.408H296.746V365.188H298.498ZM306.538 373V372.196H302.206L304.21 370.444C305.926 368.944 306.49 368.116 306.49 366.868C306.49 365.296 305.41 364.252 303.79 364.252C302.098 364.252 300.958 365.44 300.91 367.24H301.774C301.81 365.908 302.59 365.044 303.778 365.044C304.918 365.044 305.614 365.752 305.614 366.916C305.614 367.936 305.206 368.536 303.622 369.916L300.874 372.316V373H306.538ZM308.764 368.536C309.172 368.536 309.52 368.188 309.52 367.792C309.52 367.384 309.172 367.048 308.764 367.048C308.356 367.048 308.008 367.384 308.008 367.792C308.008 368.188 308.356 368.536 308.764 368.536ZM308.764 373.132C309.172 373.132 309.52 372.796 309.52 372.4C309.52 371.992 309.172 371.644 308.764 371.644C308.356 371.644 308.008 371.992 308.008 372.4C308.008 372.796 308.356 373.132 308.764 373.132ZM311.119 368.704C311.119 371.38 312.403 373.156 314.563 373.156C316.711 373.156 317.995 371.38 317.995 368.704C317.995 366.04 316.687 364.24 314.563 364.24C312.427 364.24 311.119 366.04 311.119 368.704ZM311.971 368.704C311.971 366.46 312.919 365.032 314.563 365.032C316.207 365.032 317.155 366.46 317.155 368.704C317.155 370.936 316.207 372.376 314.563 372.376C312.919 372.376 311.971 370.936 311.971 368.704ZM319.31 368.704C319.31 371.38 320.594 373.156 322.754 373.156C324.902 373.156 326.186 371.38 326.186 368.704C326.186 366.04 324.878 364.24 322.754 364.24C320.618 364.24 319.31 366.04 319.31 368.704ZM320.162 368.704C320.162 366.46 321.11 365.032 322.754 365.032C324.398 365.032 325.346 366.46 325.346 368.704C325.346 370.936 324.398 372.376 322.754 372.376C321.11 372.376 320.162 370.936 320.162 368.704ZM332.702 373.144C333.686 373.144 334.478 372.712 334.838 371.98L334.946 373H335.642V369.244C335.642 367.708 334.658 367.036 333.314 367.036C331.886 367.036 330.926 367.792 330.926 368.968H331.682C331.682 368.188 332.282 367.732 333.29 367.732C334.142 367.732 334.826 368.092 334.826 369.232V369.424L332.906 369.58C331.55 369.688 330.734 370.36 330.734 371.428C330.734 372.448 331.466 373.144 332.702 373.144ZM332.894 372.472C332.102 372.472 331.574 372.112 331.574 371.404C331.574 370.756 332.018 370.276 333.11 370.18L334.826 370.048V370.36C334.826 371.62 334.118 372.472 332.894 372.472ZM338.131 373V369.4C338.131 368.512 338.719 367.792 339.691 367.792C340.567 367.792 341.131 368.368 341.131 369.352V373H341.947V369.412C341.947 368.512 342.523 367.78 343.495 367.78C344.383 367.78 344.935 368.368 344.935 369.364V373H345.739V369.196C345.739 367.852 344.911 367.036 343.651 367.036C342.715 367.036 342.007 367.516 341.743 368.272C341.467 367.516 340.783 367.036 339.871 367.036C339.055 367.036 338.407 367.408 338.119 368.02L338.023 367.192H337.303V373H338.131Z" fill="#7D838D"/>
<rect x="489" y="344" width="3" height="8" fill="#BCC4CF"/>
<path d="M448.791 369.22V368.44H445.275V365.2H449.475V364.408H444.411V373H445.275V369.22H448.791ZM452.726 373.144C454.094 373.144 454.994 372.484 455.306 371.26H454.514C454.298 372.028 453.686 372.436 452.738 372.436C451.49 372.436 450.746 371.62 450.686 370.204H455.306V369.796C455.306 368.152 454.238 367.036 452.666 367.036C451.01 367.036 449.882 368.284 449.882 370.096C449.882 371.92 451.022 373.144 452.726 373.144ZM452.666 367.744C453.758 367.744 454.478 368.488 454.478 369.604H450.71C450.854 368.464 451.574 367.744 452.666 367.744ZM457.35 373L457.434 371.812C457.842 372.712 458.646 373.144 459.618 373.144C461.31 373.144 462.318 371.848 462.318 370.108C462.318 368.356 461.334 367.036 459.642 367.036C458.658 367.036 457.866 367.468 457.458 368.32V364.252H456.63V373H457.35ZM457.47 370.084C457.47 368.752 458.214 367.78 459.486 367.78C460.746 367.78 461.478 368.752 461.478 370.084C461.478 371.428 460.746 372.388 459.486 372.388C458.214 372.388 457.47 371.428 457.47 370.084ZM468.274 365.188V373H469.102V364.408H466.522V365.188H468.274ZM473.566 373.144C475.366 373.144 476.59 371.92 476.59 370.192C476.59 368.584 475.486 367.3 473.698 367.3C473.026 367.3 472.402 367.516 471.922 367.9L472.57 365.2H476.098V364.408H471.946L470.914 368.728L471.598 368.944C472.066 368.428 472.786 368.068 473.578 368.068C474.934 368.068 475.714 369.016 475.714 370.216C475.714 371.488 474.874 372.352 473.578 372.352C472.354 372.352 471.598 371.608 471.598 370.372H470.734C470.734 372.064 471.838 373.144 473.566 373.144ZM479.094 372.592C479.094 371.992 478.722 371.644 478.29 371.644C477.87 371.644 477.582 371.944 477.582 372.364C477.582 372.772 477.87 373.012 478.206 373.012C478.35 373.012 478.446 372.976 478.518 372.928C478.518 373.264 478.206 373.576 477.774 373.648V374.092C478.518 373.984 479.094 373.336 479.094 372.592ZM483.894 368.704C483.894 371.38 485.178 373.156 487.338 373.156C489.486 373.156 490.77 371.38 490.77 368.704C490.77 366.04 489.462 364.24 487.338 364.24C485.202 364.24 483.894 366.04 483.894 368.704ZM484.746 368.704C484.746 366.46 485.694 365.032 487.338 365.032C488.982 365.032 489.93 366.46 489.93 368.704C489.93 370.936 488.982 372.376 487.338 372.376C485.694 372.376 484.746 370.936 484.746 368.704ZM497.63 373V372.196H493.298L495.302 370.444C497.018 368.944 497.582 368.116 497.582 366.868C497.582 365.296 496.502 364.252 494.882 364.252C493.19 364.252 492.05 365.44 492.002 367.24H492.866C492.902 365.908 493.682 365.044 494.87 365.044C496.01 365.044 496.706 365.752 496.706 366.916C496.706 367.936 496.298 368.536 494.714 369.916L491.966 372.316V373H497.63ZM499.856 368.536C500.264 368.536 500.612 368.188 500.612 367.792C500.612 367.384 500.264 367.048 499.856 367.048C499.448 367.048 499.1 367.384 499.1 367.792C499.1 368.188 499.448 368.536 499.856 368.536ZM499.856 373.132C500.264 373.132 500.612 372.796 500.612 372.4C500.612 371.992 500.264 371.644 499.856 371.644C499.448 371.644 499.1 371.992 499.1 372.4C499.1 372.796 499.448 373.132 499.856 373.132ZM502.211 368.704C502.211 371.38 503.495 373.156 505.655 373.156C507.803 373.156 509.087 371.38 509.087 368.704C509.087 366.04 507.779 364.24 505.655 364.24C503.519 364.24 502.211 366.04 502.211 368.704ZM503.063 368.704C503.063 366.46 504.011 365.032 505.655 365.032C507.299 365.032 508.247 366.46 508.247 368.704C508.247 370.936 507.299 372.376 505.655 372.376C504.011 372.376 503.063 370.936 503.063 368.704ZM510.402 368.704C510.402 371.38 511.686 373.156 513.846 373.156C515.994 373.156 517.278 371.38 517.278 368.704C517.278 366.04 515.97 364.24 513.846 364.24C511.71 364.24 510.402 366.04 510.402 368.704ZM511.254 368.704C511.254 366.46 512.202 365.032 513.846 365.032C515.49 365.032 516.438 366.46 516.438 368.704C516.438 370.936 515.49 372.376 513.846 372.376C512.202 372.376 511.254 370.936 511.254 368.704ZM523.794 373.144C524.778 373.144 525.57 372.712 525.93 371.98L526.038 373H526.734V369.244C526.734 367.708 525.75 367.036 524.406 367.036C522.978 367.036 522.018 367.792 522.018 368.968H522.774C522.774 368.188 523.374 367.732 524.382 367.732C525.234 367.732 525.918 368.092 525.918 369.232V369.424L523.998 369.58C522.642 369.688 521.826 370.36 521.826 371.428C521.826 372.448 522.558 373.144 523.794 373.144ZM523.986 372.472C523.194 372.472 522.666 372.112 522.666 371.404C522.666 370.756 523.11 370.276 524.202 370.18L525.918 370.048V370.36C525.918 371.62 525.21 372.472 523.986 372.472ZM529.223 373V369.4C529.223 368.512 529.811 367.792 530.783 367.792C531.659 367.792 532.223 368.368 532.223 369.352V373H533.039V369.412C533.039 368.512 533.615 367.78 534.587 367.78C535.475 367.78 536.027 368.368 536.027 369.364V373H536.831V369.196C536.831 367.852 536.003 367.036 534.743 367.036C533.807 367.036 533.099 367.516 532.835 368.272C532.559 367.516 531.875 367.036 530.963 367.036C530.147 367.036 529.499 367.408 529.211 368.02L529.115 367.192H528.395V373H529.223Z" fill="#7D838D"/>
<rect x="681" y="344" width="3" height="8" fill="#BCC4CF"/>
<path d="M639.899 369.22V368.44H636.383V365.2H640.583V364.408H635.519V373H636.383V369.22H639.899ZM643.833 373.144C645.201 373.144 646.101 372.484 646.413 371.26H645.621C645.405 372.028 644.793 372.436 643.845 372.436C642.597 372.436 641.853 371.62 641.793 370.204H646.413V369.796C646.413 368.152 645.345 367.036 643.773 367.036C642.117 367.036 640.989 368.284 640.989 370.096C640.989 371.92 642.129 373.144 643.833 373.144ZM643.773 367.744C644.865 367.744 645.585 368.488 645.585 369.604H641.817C641.961 368.464 642.681 367.744 643.773 367.744ZM648.457 373L648.541 371.812C648.949 372.712 649.753 373.144 650.725 373.144C652.417 373.144 653.425 371.848 653.425 370.108C653.425 368.356 652.441 367.036 650.749 367.036C649.765 367.036 648.973 367.468 648.565 368.32V364.252H647.737V373H648.457ZM648.577 370.084C648.577 368.752 649.321 367.78 650.593 367.78C651.853 367.78 652.585 368.752 652.585 370.084C652.585 371.428 651.853 372.388 650.593 372.388C649.321 372.388 648.577 371.428 648.577 370.084ZM659.381 365.188V373H660.209V364.408H657.629V365.188H659.381ZM664.673 373.144C666.473 373.144 667.697 371.92 667.697 370.192C667.697 368.584 666.593 367.3 664.805 367.3C664.133 367.3 663.509 367.516 663.029 367.9L663.677 365.2H667.205V364.408H663.053L662.021 368.728L662.705 368.944C663.173 368.428 663.893 368.068 664.685 368.068C666.041 368.068 666.821 369.016 666.821 370.216C666.821 371.488 665.981 372.352 664.685 372.352C663.461 372.352 662.705 371.608 662.705 370.372H661.841C661.841 372.064 662.945 373.144 664.673 373.144ZM670.201 372.592C670.201 371.992 669.829 371.644 669.397 371.644C668.977 371.644 668.689 371.944 668.689 372.364C668.689 372.772 668.977 373.012 669.313 373.012C669.457 373.012 669.553 372.976 669.625 372.928C669.625 373.264 669.313 373.576 668.881 373.648V374.092C669.625 373.984 670.201 373.336 670.201 372.592ZM675.002 368.704C675.002 371.38 676.286 373.156 678.446 373.156C680.594 373.156 681.878 371.38 681.878 368.704C681.878 366.04 680.57 364.24 678.446 364.24C676.31 364.24 675.002 366.04 675.002 368.704ZM675.854 368.704C675.854 366.46 676.802 365.032 678.446 365.032C680.09 365.032 681.038 366.46 681.038 368.704C681.038 370.936 680.09 372.376 678.446 372.376C676.802 372.376 675.854 370.936 675.854 368.704ZM689.373 371.176V370.408H688.365V364.408H687.213L683.013 370.408V371.176H687.525V373H688.365V371.176H689.373ZM683.949 370.408L687.525 365.296V370.408H683.949ZM691.749 368.536C692.157 368.536 692.505 368.188 692.505 367.792C692.505 367.384 692.157 367.048 691.749 367.048C691.341 367.048 690.993 367.384 690.993 367.792C690.993 368.188 691.341 368.536 691.749 368.536ZM691.749 373.132C692.157 373.132 692.505 372.796 692.505 372.4C692.505 371.992 692.157 371.644 691.749 371.644C691.341 371.644 690.993 371.992 690.993 372.4C690.993 372.796 691.341 373.132 691.749 373.132ZM694.103 368.704C694.103 371.38 695.387 373.156 697.547 373.156C699.695 373.156 700.979 371.38 700.979 368.704C700.979 366.04 699.671 364.24 697.547 364.24C695.411 364.24 694.103 366.04 694.103 368.704ZM694.955 368.704C694.955 366.46 695.903 365.032 697.547 365.032C699.191 365.032 700.139 366.46 700.139 368.704C700.139 370.936 699.191 372.376 697.547 372.376C695.903 372.376 694.955 370.936 694.955 368.704ZM702.295 368.704C702.295 371.38 703.579 373.156 705.739 373.156C707.887 373.156 709.171 371.38 709.171 368.704C709.171 366.04 707.863 364.24 705.739 364.24C703.603 364.24 702.295 366.04 702.295 368.704ZM703.147 368.704C703.147 366.46 704.095 365.032 705.739 365.032C707.383 365.032 708.331 366.46 708.331 368.704C708.331 370.936 707.383 372.376 705.739 372.376C704.095 372.376 703.147 370.936 703.147 368.704ZM715.686 373.144C716.67 373.144 717.462 372.712 717.822 371.98L717.93 373H718.626V369.244C718.626 367.708 717.642 367.036 716.298 367.036C714.87 367.036 713.91 367.792 713.91 368.968H714.666C714.666 368.188 715.266 367.732 716.274 367.732C717.126 367.732 717.81 368.092 717.81 369.232V369.424L715.89 369.58C714.534 369.688 713.718 370.36 713.718 371.428C713.718 372.448 714.45 373.144 715.686 373.144ZM715.878 372.472C715.086 372.472 714.558 372.112 714.558 371.404C714.558 370.756 715.002 370.276 716.094 370.18L717.81 370.048V370.36C717.81 371.62 717.102 372.472 715.878 372.472ZM721.116 373V369.4C721.116 368.512 721.704 367.792 722.676 367.792C723.552 367.792 724.116 368.368 724.116 369.352V373H724.932V369.412C724.932 368.512 725.508 367.78 726.48 367.78C727.368 367.78 727.92 368.368 727.92 369.364V373H728.724V369.196C728.724 367.852 727.896 367.036 726.636 367.036C725.7 367.036 724.992 367.516 724.728 368.272C724.452 367.516 723.768 367.036 722.856 367.036C722.04 367.036 721.392 367.408 721.104 368.02L721.008 367.192H720.288V373H721.116Z" fill="#7D838D"/>
<rect x="873" y="344" width="3" height="8" fill="#BCC4CF"/>
<path d="M831.899 369.22V368.44H828.383V365.2H832.583V364.408H827.519V373H828.383V369.22H831.899ZM835.833 373.144C837.201 373.144 838.101 372.484 838.413 371.26H837.621C837.405 372.028 836.793 372.436 835.845 372.436C834.597 372.436 833.853 371.62 833.793 370.204H838.413V369.796C838.413 368.152 837.345 367.036 835.773 367.036C834.117 367.036 832.989 368.284 832.989 370.096C832.989 371.92 834.129 373.144 835.833 373.144ZM835.773 367.744C836.865 367.744 837.585 368.488 837.585 369.604H833.817C833.961 368.464 834.681 367.744 835.773 367.744ZM840.457 373L840.541 371.812C840.949 372.712 841.753 373.144 842.725 373.144C844.417 373.144 845.425 371.848 845.425 370.108C845.425 368.356 844.441 367.036 842.749 367.036C841.765 367.036 840.973 367.468 840.565 368.32V364.252H839.737V373H840.457ZM840.577 370.084C840.577 368.752 841.321 367.78 842.593 367.78C843.853 367.78 844.585 368.752 844.585 370.084C844.585 371.428 843.853 372.388 842.593 372.388C841.321 372.388 840.577 371.428 840.577 370.084ZM851.381 365.188V373H852.209V364.408H849.629V365.188H851.381ZM856.673 373.144C858.473 373.144 859.697 371.92 859.697 370.192C859.697 368.584 858.593 367.3 856.805 367.3C856.133 367.3 855.509 367.516 855.029 367.9L855.677 365.2H859.205V364.408H855.053L854.021 368.728L854.705 368.944C855.173 368.428 855.893 368.068 856.685 368.068C858.041 368.068 858.821 369.016 858.821 370.216C858.821 371.488 857.981 372.352 856.685 372.352C855.461 372.352 854.705 371.608 854.705 370.372H853.841C853.841 372.064 854.945 373.144 856.673 373.144ZM862.201 372.592C862.201 371.992 861.829 371.644 861.397 371.644C860.977 371.644 860.689 371.944 860.689 372.364C860.689 372.772 860.977 373.012 861.313 373.012C861.457 373.012 861.553 372.976 861.625 372.928C861.625 373.264 861.313 373.576 860.881 373.648V374.092C861.625 373.984 862.201 373.336 862.201 372.592ZM867.002 368.704C867.002 371.38 868.286 373.156 870.446 373.156C872.594 373.156 873.878 371.38 873.878 368.704C873.878 366.04 872.57 364.24 870.446 364.24C868.31 364.24 867.002 366.04 867.002 368.704ZM867.854 368.704C867.854 366.46 868.802 365.032 870.446 365.032C872.09 365.032 873.038 366.46 873.038 368.704C873.038 370.936 872.09 372.376 870.446 372.376C868.802 372.376 867.854 370.936 867.854 368.704ZM881.373 371.176V370.408H880.365V364.408H879.213L875.013 370.408V371.176H879.525V373H880.365V371.176H881.373ZM875.949 370.408L879.525 365.296V370.408H875.949ZM883.749 368.536C884.157 368.536 884.505 368.188 884.505 367.792C884.505 367.384 884.157 367.048 883.749 367.048C883.341 367.048 882.993 367.384 882.993 367.792C882.993 368.188 883.341 368.536 883.749 368.536ZM883.749 373.132C884.157 373.132 884.505 372.796 884.505 372.4C884.505 371.992 884.157 371.644 883.749 371.644C883.341 371.644 882.993 371.992 882.993 372.4C882.993 372.796 883.341 373.132 883.749 373.132ZM886.103 368.704C886.103 371.38 887.387 373.156 889.547 373.156C891.695 373.156 892.979 371.38 892.979 368.704C892.979 366.04 891.671 364.24 889.547 364.24C887.411 364.24 886.103 366.04 886.103 368.704ZM886.955 368.704C886.955 366.46 887.903 365.032 889.547 365.032C891.191 365.032 892.139 366.46 892.139 368.704C892.139 370.936 891.191 372.376 889.547 372.376C887.903 372.376 886.955 370.936 886.955 368.704ZM894.295 368.704C894.295 371.38 895.579 373.156 897.739 373.156C899.887 373.156 901.171 371.38 901.171 368.704C901.171 366.04 899.863 364.24 897.739 364.24C895.603 364.24 894.295 366.04 894.295 368.704ZM895.147 368.704C895.147 366.46 896.095 365.032 897.739 365.032C899.383 365.032 900.331 366.46 900.331 368.704C900.331 370.936 899.383 372.376 897.739 372.376C896.095 372.376 895.147 370.936 895.147 368.704ZM907.686 373.144C908.67 373.144 909.462 372.712 909.822 371.98L909.93 373H910.626V369.244C910.626 367.708 909.642 367.036 908.298 367.036C906.87 367.036 905.91 367.792 905.91 368.968H906.666C906.666 368.188 907.266 367.732 908.274 367.732C909.126 367.732 909.81 368.092 909.81 369.232V369.424L907.89 369.58C906.534 369.688 905.718 370.36 905.718 371.428C905.718 372.448 906.45 373.144 907.686 373.144ZM907.878 372.472C907.086 372.472 906.558 372.112 906.558 371.404C906.558 370.756 907.002 370.276 908.094 370.18L909.81 370.048V370.36C909.81 371.62 909.102 372.472 907.878 372.472ZM913.116 373V369.4C913.116 368.512 913.704 367.792 914.676 367.792C915.552 367.792 916.116 368.368 916.116 369.352V373H916.932V369.412C916.932 368.512 917.508 367.78 918.48 367.78C919.368 367.78 919.92 368.368 919.92 369.364V373H920.724V369.196C920.724 367.852 919.896 367.036 918.636 367.036C917.7 367.036 916.992 367.516 916.728 368.272C916.452 367.516 915.768 367.036 914.856 367.036C914.04 367.036 913.392 367.408 913.104 368.02L913.008 367.192H912.288V373H913.116Z" fill="#7D838D"/>
<rect x="1065" y="344" width="3" height="8" fill="#BCC4CF"/>
<path d="M1023.9 369.22V368.44H1020.38V365.2H1024.58V364.408H1019.52V373H1020.38V369.22H1023.9ZM1027.83 373.144C1029.2 373.144 1030.1 372.484 1030.41 371.26H1029.62C1029.41 372.028 1028.79 372.436 1027.85 372.436C1026.6 372.436 1025.85 371.62 1025.79 370.204H1030.41V369.796C1030.41 368.152 1029.35 367.036 1027.77 367.036C1026.12 367.036 1024.99 368.284 1024.99 370.096C1024.99 371.92 1026.13 373.144 1027.83 373.144ZM1027.77 367.744C1028.87 367.744 1029.59 368.488 1029.59 369.604H1025.82C1025.96 368.464 1026.68 367.744 1027.77 367.744ZM1032.46 373L1032.54 371.812C1032.95 372.712 1033.75 373.144 1034.73 373.144C1036.42 373.144 1037.43 371.848 1037.43 370.108C1037.43 368.356 1036.44 367.036 1034.75 367.036C1033.77 367.036 1032.97 367.468 1032.57 368.32V364.252H1031.74V373H1032.46ZM1032.58 370.084C1032.58 368.752 1033.32 367.78 1034.59 367.78C1035.85 367.78 1036.59 368.752 1036.59 370.084C1036.59 371.428 1035.85 372.388 1034.59 372.388C1033.32 372.388 1032.58 371.428 1032.58 370.084ZM1043.38 365.188V373H1044.21V364.408H1041.63V365.188H1043.38ZM1048.67 373.144C1050.47 373.144 1051.7 371.92 1051.7 370.192C1051.7 368.584 1050.59 367.3 1048.81 367.3C1048.13 367.3 1047.51 367.516 1047.03 367.9L1047.68 365.2H1051.21V364.408H1047.05L1046.02 368.728L1046.71 368.944C1047.17 368.428 1047.89 368.068 1048.69 368.068C1050.04 368.068 1050.82 369.016 1050.82 370.216C1050.82 371.488 1049.98 372.352 1048.69 372.352C1047.46 372.352 1046.71 371.608 1046.71 370.372H1045.84C1045.84 372.064 1046.95 373.144 1048.67 373.144ZM1054.2 372.592C1054.2 371.992 1053.83 371.644 1053.4 371.644C1052.98 371.644 1052.69 371.944 1052.69 372.364C1052.69 372.772 1052.98 373.012 1053.31 373.012C1053.46 373.012 1053.55 372.976 1053.63 372.928C1053.63 373.264 1053.31 373.576 1052.88 373.648V374.092C1053.63 373.984 1054.2 373.336 1054.2 372.592ZM1059 368.704C1059 371.38 1060.29 373.156 1062.45 373.156C1064.59 373.156 1065.88 371.38 1065.88 368.704C1065.88 366.04 1064.57 364.24 1062.45 364.24C1060.31 364.24 1059 366.04 1059 368.704ZM1059.85 368.704C1059.85 366.46 1060.8 365.032 1062.45 365.032C1064.09 365.032 1065.04 366.46 1065.04 368.704C1065.04 370.936 1064.09 372.376 1062.45 372.376C1060.8 372.376 1059.85 370.936 1059.85 368.704ZM1073.37 371.176V370.408H1072.37V364.408H1071.21L1067.01 370.408V371.176H1071.53V373H1072.37V371.176H1073.37ZM1067.95 370.408L1071.53 365.296V370.408H1067.95ZM1075.75 368.536C1076.16 368.536 1076.5 368.188 1076.5 367.792C1076.5 367.384 1076.16 367.048 1075.75 367.048C1075.34 367.048 1074.99 367.384 1074.99 367.792C1074.99 368.188 1075.34 368.536 1075.75 368.536ZM1075.75 373.132C1076.16 373.132 1076.5 372.796 1076.5 372.4C1076.5 371.992 1076.16 371.644 1075.75 371.644C1075.34 371.644 1074.99 371.992 1074.99 372.4C1074.99 372.796 1075.34 373.132 1075.75 373.132ZM1078.1 368.704C1078.1 371.38 1079.39 373.156 1081.55 373.156C1083.7 373.156 1084.98 371.38 1084.98 368.704C1084.98 366.04 1083.67 364.24 1081.55 364.24C1079.41 364.24 1078.1 366.04 1078.1 368.704ZM1078.96 368.704C1078.96 366.46 1079.9 365.032 1081.55 365.032C1083.19 365.032 1084.14 366.46 1084.14 368.704C1084.14 370.936 1083.19 372.376 1081.55 372.376C1079.9 372.376 1078.96 370.936 1078.96 368.704ZM1086.29 368.704C1086.29 371.38 1087.58 373.156 1089.74 373.156C1091.89 373.156 1093.17 371.38 1093.17 368.704C1093.17 366.04 1091.86 364.24 1089.74 364.24C1087.6 364.24 1086.29 366.04 1086.29 368.704ZM1087.15 368.704C1087.15 366.46 1088.09 365.032 1089.74 365.032C1091.38 365.032 1092.33 366.46 1092.33 368.704C1092.33 370.936 1091.38 372.376 1089.74 372.376C1088.09 372.376 1087.15 370.936 1087.15 368.704ZM1099.69 373.144C1100.67 373.144 1101.46 372.712 1101.82 371.98L1101.93 373H1102.63V369.244C1102.63 367.708 1101.64 367.036 1100.3 367.036C1098.87 367.036 1097.91 367.792 1097.91 368.968H1098.67C1098.67 368.188 1099.27 367.732 1100.27 367.732C1101.13 367.732 1101.81 368.092 1101.81 369.232V369.424L1099.89 369.58C1098.53 369.688 1097.72 370.36 1097.72 371.428C1097.72 372.448 1098.45 373.144 1099.69 373.144ZM1099.88 372.472C1099.09 372.472 1098.56 372.112 1098.56 371.404C1098.56 370.756 1099 370.276 1100.09 370.18L1101.81 370.048V370.36C1101.81 371.62 1101.1 372.472 1099.88 372.472ZM1105.12 373V369.4C1105.12 368.512 1105.7 367.792 1106.68 367.792C1107.55 367.792 1108.12 368.368 1108.12 369.352V373H1108.93V369.412C1108.93 368.512 1109.51 367.78 1110.48 367.78C1111.37 367.78 1111.92 368.368 1111.92 369.364V373H1112.72V369.196C1112.72 367.852 1111.9 367.036 1110.64 367.036C1109.7 367.036 1108.99 367.516 1108.73 368.272C1108.45 367.516 1107.77 367.036 1106.86 367.036C1106.04 367.036 1105.39 367.408 1105.1 368.02L1105.01 367.192H1104.29V373H1105.12Z" fill="#7D838D"/>
<path d="M1215.9 369.22V368.44H1212.38V365.2H1216.58V364.408H1211.52V373H1212.38V369.22H1215.9ZM1219.83 373.144C1221.2 373.144 1222.1 372.484 1222.41 371.26H1221.62C1221.41 372.028 1220.79 372.436 1219.85 372.436C1218.6 372.436 1217.85 371.62 1217.79 370.204H1222.41V369.796C1222.41 368.152 1221.35 367.036 1219.77 367.036C1218.12 367.036 1216.99 368.284 1216.99 370.096C1216.99 371.92 1218.13 373.144 1219.83 373.144ZM1219.77 367.744C1220.87 367.744 1221.59 368.488 1221.59 369.604H1217.82C1217.96 368.464 1218.68 367.744 1219.77 367.744ZM1224.46 373L1224.54 371.812C1224.95 372.712 1225.75 373.144 1226.73 373.144C1228.42 373.144 1229.43 371.848 1229.43 370.108C1229.43 368.356 1228.44 367.036 1226.75 367.036C1225.77 367.036 1224.97 367.468 1224.57 368.32V364.252H1223.74V373H1224.46ZM1224.58 370.084C1224.58 368.752 1225.32 367.78 1226.59 367.78C1227.85 367.78 1228.59 368.752 1228.59 370.084C1228.59 371.428 1227.85 372.388 1226.59 372.388C1225.32 372.388 1224.58 371.428 1224.58 370.084ZM1235.38 365.188V373H1236.21V364.408H1233.63V365.188H1235.38ZM1240.67 373.144C1242.47 373.144 1243.7 371.92 1243.7 370.192C1243.7 368.584 1242.59 367.3 1240.81 367.3C1240.13 367.3 1239.51 367.516 1239.03 367.9L1239.68 365.2H1243.21V364.408H1239.05L1238.02 368.728L1238.71 368.944C1239.17 368.428 1239.89 368.068 1240.69 368.068C1242.04 368.068 1242.82 369.016 1242.82 370.216C1242.82 371.488 1241.98 372.352 1240.69 372.352C1239.46 372.352 1238.71 371.608 1238.71 370.372H1237.84C1237.84 372.064 1238.95 373.144 1240.67 373.144ZM1246.2 372.592C1246.2 371.992 1245.83 371.644 1245.4 371.644C1244.98 371.644 1244.69 371.944 1244.69 372.364C1244.69 372.772 1244.98 373.012 1245.31 373.012C1245.46 373.012 1245.55 372.976 1245.63 372.928C1245.63 373.264 1245.31 373.576 1244.88 373.648V374.092C1245.63 373.984 1246.2 373.336 1246.2 372.592ZM1251 368.704C1251 371.38 1252.29 373.156 1254.45 373.156C1256.59 373.156 1257.88 371.38 1257.88 368.704C1257.88 366.04 1256.57 364.24 1254.45 364.24C1252.31 364.24 1251 366.04 1251 368.704ZM1251.85 368.704C1251.85 366.46 1252.8 365.032 1254.45 365.032C1256.09 365.032 1257.04 366.46 1257.04 368.704C1257.04 370.936 1256.09 372.376 1254.45 372.376C1252.8 372.376 1251.85 370.936 1251.85 368.704ZM1265.37 371.176V370.408H1264.37V364.408H1263.21L1259.01 370.408V371.176H1263.53V373H1264.37V371.176H1265.37ZM1259.95 370.408L1263.53 365.296V370.408H1259.95ZM1267.75 368.536C1268.16 368.536 1268.5 368.188 1268.5 367.792C1268.5 367.384 1268.16 367.048 1267.75 367.048C1267.34 367.048 1266.99 367.384 1266.99 367.792C1266.99 368.188 1267.34 368.536 1267.75 368.536ZM1267.75 373.132C1268.16 373.132 1268.5 372.796 1268.5 372.4C1268.5 371.992 1268.16 371.644 1267.75 371.644C1267.34 371.644 1266.99 371.992 1266.99 372.4C1266.99 372.796 1267.34 373.132 1267.75 373.132ZM1270.1 368.704C1270.1 371.38 1271.39 373.156 1273.55 373.156C1275.7 373.156 1276.98 371.38 1276.98 368.704C1276.98 366.04 1275.67 364.24 1273.55 364.24C1271.41 364.24 1270.1 366.04 1270.1 368.704ZM1270.96 368.704C1270.96 366.46 1271.9 365.032 1273.55 365.032C1275.19 365.032 1276.14 366.46 1276.14 368.704C1276.14 370.936 1275.19 372.376 1273.55 372.376C1271.9 372.376 1270.96 370.936 1270.96 368.704ZM1278.29 368.704C1278.29 371.38 1279.58 373.156 1281.74 373.156C1283.89 373.156 1285.17 371.38 1285.17 368.704C1285.17 366.04 1283.86 364.24 1281.74 364.24C1279.6 364.24 1278.29 366.04 1278.29 368.704ZM1279.15 368.704C1279.15 366.46 1280.09 365.032 1281.74 365.032C1283.38 365.032 1284.33 366.46 1284.33 368.704C1284.33 370.936 1283.38 372.376 1281.74 372.376C1280.09 372.376 1279.15 370.936 1279.15 368.704ZM1291.69 373.144C1292.67 373.144 1293.46 372.712 1293.82 371.98L1293.93 373H1294.63V369.244C1294.63 367.708 1293.64 367.036 1292.3 367.036C1290.87 367.036 1289.91 367.792 1289.91 368.968H1290.67C1290.67 368.188 1291.27 367.732 1292.27 367.732C1293.13 367.732 1293.81 368.092 1293.81 369.232V369.424L1291.89 369.58C1290.53 369.688 1289.72 370.36 1289.72 371.428C1289.72 372.448 1290.45 373.144 1291.69 373.144ZM1291.88 372.472C1291.09 372.472 1290.56 372.112 1290.56 371.404C1290.56 370.756 1291 370.276 1292.09 370.18L1293.81 370.048V370.36C1293.81 371.62 1293.1 372.472 1291.88 372.472ZM1297.12 373V369.4C1297.12 368.512 1297.7 367.792 1298.68 367.792C1299.55 367.792 1300.12 368.368 1300.12 369.352V373H1300.93V369.412C1300.93 368.512 1301.51 367.78 1302.48 367.78C1303.37 367.78 1303.92 368.368 1303.92 369.364V373H1304.72V369.196C1304.72 367.852 1303.9 367.036 1302.64 367.036C1301.7 367.036 1300.99 367.516 1300.73 368.272C1300.45 367.516 1299.77 367.036 1298.86 367.036C1298.04 367.036 1297.39 367.408 1297.1 368.02L1297.01 367.192H1296.29V373H1297.12Z" fill="#7D838D"/>
<path d="M24.66 32.704C24.66 35.38 25.944 37.156 28.104 37.156C30.252 37.156 31.536 35.38 31.536 32.704C31.536 30.04 30.228 28.24 28.104 28.24C25.968 28.24 24.66 30.04 24.66 32.704ZM25.512 32.704C25.512 30.46 26.46 29.032 28.104 29.032C29.748 29.032 30.696 30.46 30.696 32.704C30.696 34.936 29.748 36.376 28.104 36.376C26.46 36.376 25.512 34.936 25.512 32.704ZM33.2126 37.132C33.6206 37.132 33.9686 36.796 33.9686 36.4C33.9686 35.992 33.6206 35.644 33.2126 35.644C32.8046 35.644 32.4566 35.992 32.4566 36.4C32.4566 36.796 32.8046 37.132 33.2126 37.132ZM34.526 28.408V29.2H39.494L36.098 37H36.986L40.37 29.2V28.408H34.526ZM43.7339 37.144C45.5339 37.144 46.7579 35.92 46.7579 34.192C46.7579 32.584 45.6539 31.3 43.8659 31.3C43.1939 31.3 42.5699 31.516 42.0899 31.9L42.7379 29.2H46.2659V28.408H42.1139L41.0819 32.728L41.7659 32.944C42.2339 32.428 42.9539 32.068 43.7459 32.068C45.1019 32.068 45.8819 33.016 45.8819 34.216C45.8819 35.488 45.0419 36.352 43.7459 36.352C42.5219 36.352 41.7659 35.608 41.7659 34.372H40.9019C40.9019 36.064 42.0059 37.144 43.7339 37.144Z" fill="#7D838D"/>
<path opacity="0.6" d="M72 32L1240 32" stroke="#E3E7ED" stroke-linecap="round" stroke-linejoin="round"/>
<path d="M24.66 88.704C24.66 91.38 25.944 93.156 28.104 93.156C30.252 93.156 31.536 91.38 31.536 88.704C31.536 86.04 30.228 84.24 28.104 84.24C25.968 84.24 24.66 86.04 24.66 88.704ZM25.512 88.704C25.512 86.46 26.46 85.032 28.104 85.032C29.748 85.032 30.696 86.46 30.696 88.704C30.696 90.936 29.748 92.376 28.104 92.376C26.46 92.376 25.512 90.936 25.512 88.704ZM33.2126 93.132C33.6206 93.132 33.9686 92.796 33.9686 92.4C33.9686 91.992 33.6206 91.644 33.2126 91.644C32.8046 91.644 32.4566 91.992 32.4566 92.4C32.4566 92.796 32.8046 93.132 33.2126 93.132ZM34.526 84.408V85.2H39.494L36.098 93H36.986L40.37 85.2V84.408H34.526Z" fill="#7D838D"/>
<path opacity="0.6" d="M72 88L1240 88" stroke="#E3E7ED" stroke-linecap="round" stroke-linejoin="round"/>
<path d="M24.66 144.704C24.66 147.38 25.944 149.156 28.104 149.156C30.252 149.156 31.536 147.38 31.536 144.704C31.536 142.04 30.228 140.24 28.104 140.24C25.968 140.24 24.66 142.04 24.66 144.704ZM25.512 144.704C25.512 142.46 26.46 141.032 28.104 141.032C29.748 141.032 30.696 142.46 30.696 144.704C30.696 146.936 29.748 148.376 28.104 148.376C26.46 148.376 25.512 146.936 25.512 144.704ZM33.2126 149.132C33.6206 149.132 33.9686 148.796 33.9686 148.4C33.9686 147.992 33.6206 147.644 33.2126 147.644C32.8046 147.644 32.4566 147.992 32.4566 148.4C32.4566 148.796 32.8046 149.132 33.2126 149.132ZM36.05 143.3C35.246 144.404 34.97 145.1 34.97 146.096C34.97 147.812 36.326 149.144 38.054 149.144C39.77 149.144 41.102 147.86 41.102 146.096C41.102 144.416 39.914 143.108 38.126 143.108C37.73 143.108 37.358 143.192 36.95 143.396L39.206 140.408H38.198L36.05 143.3ZM35.846 146.108C35.846 144.8 36.746 143.864 38.054 143.864C39.326 143.864 40.238 144.8 40.238 146.108C40.238 147.416 39.326 148.364 38.054 148.364C36.746 148.364 35.846 147.416 35.846 146.108ZM45.1167 149.144C46.9167 149.144 48.1407 147.92 48.1407 146.192C48.1407 144.584 47.0367 143.3 45.2487 143.3C44.5767 143.3 43.9527 143.516 43.4727 143.9L44.1207 141.2H47.6487V140.408H43.4967L42.4647 144.728L43.1487 144.944C43.6167 144.428 44.3367 144.068 45.1287 144.068C46.4847 144.068 47.2647 145.016 47.2647 146.216C47.2647 147.488 46.4247 148.352 45.1287 148.352C43.9047 148.352 43.1487 147.608 43.1487 146.372H42.2847C42.2847 148.064 43.3887 149.144 45.1167 149.144Z" fill="#7D838D"/>
<path opacity="0.6" d="M72 144L1240 144" stroke="#E3E7ED" stroke-linecap="round" stroke-linejoin="round"/>
<path d="M24.66 200.704C24.66 203.38 25.944 205.156 28.104 205.156C30.252 205.156 31.536 203.38 31.536 200.704C31.536 198.04 30.228 196.24 28.104 196.24C25.968 196.24 24.66 198.04 24.66 200.704ZM25.512 200.704C25.512 198.46 26.46 197.032 28.104 197.032C29.748 197.032 30.696 198.46 30.696 200.704C30.696 202.936 29.748 204.376 28.104 204.376C26.46 204.376 25.512 202.936 25.512 200.704ZM33.2126 205.132C33.6206 205.132 33.9686 204.796 33.9686 204.4C33.9686 203.992 33.6206 203.644 33.2126 203.644C32.8046 203.644 32.4566 203.992 32.4566 204.4C32.4566 204.796 32.8046 205.132 33.2126 205.132ZM36.05 199.3C35.246 200.404 34.97 201.1 34.97 202.096C34.97 203.812 36.326 205.144 38.054 205.144C39.77 205.144 41.102 203.86 41.102 202.096C41.102 200.416 39.914 199.108 38.126 199.108C37.73 199.108 37.358 199.192 36.95 199.396L39.206 196.408H38.198L36.05 199.3ZM35.846 202.108C35.846 200.8 36.746 199.864 38.054 199.864C39.326 199.864 40.238 200.8 40.238 202.108C40.238 203.416 39.326 204.364 38.054 204.364C36.746 204.364 35.846 203.416 35.846 202.108Z" fill="#7D838D"/>
<path opacity="0.6" d="M72 200L1240 200" stroke="#E3E7ED" stroke-linecap="round" stroke-linejoin="round"/>
<path d="M24.66 256.704C24.66 259.38 25.944 261.156 28.104 261.156C30.252 261.156 31.536 259.38 31.536 256.704C31.536 254.04 30.228 252.24 28.104 252.24C25.968 252.24 24.66 254.04 24.66 256.704ZM25.512 256.704C25.512 254.46 26.46 253.032 28.104 253.032C29.748 253.032 30.696 254.46 30.696 256.704C30.696 258.936 29.748 260.376 28.104 260.376C26.46 260.376 25.512 258.936 25.512 256.704ZM33.2126 261.132C33.6206 261.132 33.9686 260.796 33.9686 260.4C33.9686 259.992 33.6206 259.644 33.2126 259.644C32.8046 259.644 32.4566 259.992 32.4566 260.4C32.4566 260.796 32.8046 261.132 33.2126 261.132ZM37.9448 261.144C39.7448 261.144 40.9688 259.92 40.9688 258.192C40.9688 256.584 39.8648 255.3 38.0768 255.3C37.4048 255.3 36.7808 255.516 36.3008 255.9L36.9488 253.2H40.4768V252.408H36.3248L35.2928 256.728L35.9768 256.944C36.4448 256.428 37.1648 256.068 37.9568 256.068C39.3128 256.068 40.0928 257.016 40.0928 258.216C40.0928 259.488 39.2528 260.352 37.9568 260.352C36.7328 260.352 35.9768 259.608 35.9768 258.372H35.1128C35.1128 260.064 36.2168 261.144 37.9448 261.144ZM44.9409 261.144C46.7409 261.144 47.9649 259.92 47.9649 258.192C47.9649 256.584 46.8609 255.3 45.0729 255.3C44.4009 255.3 43.7769 255.516 43.2969 255.9L43.9449 253.2H47.4729V252.408H43.3209L42.2889 256.728L42.9729 256.944C43.4409 256.428 44.1609 256.068 44.9529 256.068C46.3089 256.068 47.0889 257.016 47.0889 258.216C47.0889 259.488 46.2489 260.352 44.9529 260.352C43.7289 260.352 42.9729 259.608 42.9729 258.372H42.1089C42.1089 260.064 43.2129 261.144 44.9409 261.144Z" fill="#7D838D"/>
<path opacity="0.6" d="M72 256L1240 256" stroke="#E3E7ED" stroke-linecap="round" stroke-linejoin="round"/>
<path d="M24.66 312.704C24.66 315.38 25.944 317.156 28.104 317.156C30.252 317.156 31.536 315.38 31.536 312.704C31.536 310.04 30.228 308.24 28.104 308.24C25.968 308.24 24.66 310.04 24.66 312.704ZM25.512 312.704C25.512 310.46 26.46 309.032 28.104 309.032C29.748 309.032 30.696 310.46 30.696 312.704C30.696 314.936 29.748 316.376 28.104 316.376C26.46 316.376 25.512 314.936 25.512 312.704ZM33.2126 317.132C33.6206 317.132 33.9686 316.796 33.9686 316.4C33.9686 315.992 33.6206 315.644 33.2126 315.644C32.8046 315.644 32.4566 315.992 32.4566 316.4C32.4566 316.796 32.8046 317.132 33.2126 317.132ZM37.9448 317.144C39.7448 317.144 40.9688 315.92 40.9688 314.192C40.9688 312.584 39.8648 311.3 38.0768 311.3C37.4048 311.3 36.7808 311.516 36.3008 311.9L36.9488 309.2H40.4768V308.408H36.3248L35.2928 312.728L35.9768 312.944C36.4448 312.428 37.1648 312.068 37.9568 312.068C39.3128 312.068 40.0928 313.016 40.0928 314.216C40.0928 315.488 39.2528 316.352 37.9568 316.352C36.7328 316.352 35.9768 315.608 35.9768 314.372H35.1128C35.1128 316.064 36.2168 317.144 37.9448 317.144Z" fill="#7D838D"/>
<path opacity="0.6" d="M72 312L1240 312" stroke="#E3E7ED" stroke-linecap="round" stroke-linejoin="round"/>
<path d="M72 225.888L120.667 156.674L169.333 296L218 254.953L266.667 279.444L315.333 107.76L364 148.683L412.667 130.029L461.333 124.706L510 142.025L558.667 155.911L607.333 189.272L656 158.623L704.667 194.996L753.333 136.437L802 222.01L850.667 232.34L899.333 79.8352L948 168.443L996.667 177.728L1045.33 225.755L1094 225.05L1142.67 132.49L1191.33 67.2782L1240 32" stroke="#6237DE" stroke-width="2"/>
<path d="M120.667 156.674L72 225.888V312H1240V32L1191.33 67.2782L1142.67 132.49L1094 225.05L1045.33 225.755L996.667 177.728L948 168.443L899.333 79.8352L850.667 232.34L802 222.01L753.333 136.437L704.667 194.996L656 158.623L607.333 189.272L558.667 155.911L510 142.025L461.333 124.706L412.667 130.029L364 148.683L315.333 107.76L266.667 279.444L218 254.953L169.333 296L120.667 156.674Z" fill="url(#paint0_linear_3362_34948)"/>
</g>
<defs>
<linearGradient id="paint0_linear_3362_34948" x1="656" y1="32" x2="656" y2="312" gradientUnits="userSpaceOnUse">
<stop stop-color="#6B38FD" stop-opacity="0.16"/>
<stop offset="1" stop-color="#6B38FD" stop-opacity="0"/>
</linearGradient>
<clipPath id="clip0_3362_34948">
<rect width="1265" height="400" fill="white"/>
</clipPath>
</defs>
</svg>
