<svg width="1265" height="72" viewBox="0 0 1265 72" fill="none" xmlns="http://www.w3.org/2000/svg">
<g clip-path="url(#clip0_3362_34997)">
<rect width="1265" height="72" fill="white"/>
<path d="M95 8L95 64" stroke="#E3E7ED"/>
<path d="M109.604 61V60.196H105.272L107.276 58.444C108.992 56.944 109.556 56.116 109.556 54.868C109.556 53.296 108.476 52.252 106.856 52.252C105.164 52.252 104.024 53.44 103.976 55.24H104.84C104.876 53.908 105.656 53.044 106.844 53.044C107.984 53.044 108.68 53.752 108.68 54.916C108.68 55.936 108.272 56.536 106.688 57.916L103.94 60.316V61H109.604ZM116.639 59.176V58.408H115.631V52.408H114.479L110.279 58.408V59.176H114.791V61H115.631V59.176H116.639ZM111.215 58.408L114.791 53.296V58.408H111.215ZM119.334 60.592C119.334 59.992 118.962 59.644 118.53 59.644C118.11 59.644 117.822 59.944 117.822 60.364C117.822 60.772 118.11 61.012 118.446 61.012C118.59 61.012 118.686 60.976 118.758 60.928C118.758 61.264 118.446 61.576 118.014 61.648V62.092C118.758 61.984 119.334 61.336 119.334 60.592ZM123.715 58.636C123.715 60.124 124.603 61.144 126.151 61.144C127.603 61.144 128.611 60.208 128.611 58.648V52.408H127.747V58.624C127.747 59.644 127.243 60.328 126.151 60.328C125.107 60.328 124.555 59.656 124.555 58.636V58.3H123.715V58.636ZM132.124 61.144C133.108 61.144 133.9 60.712 134.26 59.98L134.368 61H135.064V57.244C135.064 55.708 134.08 55.036 132.736 55.036C131.308 55.036 130.348 55.792 130.348 56.968H131.104C131.104 56.188 131.704 55.732 132.712 55.732C133.564 55.732 134.248 56.092 134.248 57.232V57.424L132.328 57.58C130.972 57.688 130.156 58.36 130.156 59.428C130.156 60.448 130.888 61.144 132.124 61.144ZM132.316 60.472C131.524 60.472 130.996 60.112 130.996 59.404C130.996 58.756 131.44 58.276 132.532 58.18L134.248 58.048V58.36C134.248 59.62 133.54 60.472 132.316 60.472ZM137.553 61V57.964C137.553 56.656 138.225 55.792 139.413 55.792C140.373 55.792 140.985 56.272 140.985 57.628V61H141.813V57.448C141.813 55.984 141.153 55.036 139.557 55.036C138.717 55.036 137.949 55.456 137.565 56.2L137.445 55.192H136.725V61H137.553Z" fill="#7D838D"/>
<path d="M263 8L263 64" stroke="#E3E7ED"/>
<path d="M277.604 61V60.196H273.272L275.276 58.444C276.992 56.944 277.556 56.116 277.556 54.868C277.556 53.296 276.476 52.252 274.856 52.252C273.164 52.252 272.024 53.44 271.976 55.24H272.84C272.876 53.908 273.656 53.044 274.844 53.044C275.984 53.044 276.68 53.752 276.68 54.916C276.68 55.936 276.272 56.536 274.688 57.916L271.94 60.316V61H277.604ZM284.639 59.176V58.408H283.631V52.408H282.479L278.279 58.408V59.176H282.791V61H283.631V59.176H284.639ZM279.215 58.408L282.791 53.296V58.408H279.215ZM287.334 60.592C287.334 59.992 286.962 59.644 286.53 59.644C286.11 59.644 285.822 59.944 285.822 60.364C285.822 60.772 286.11 61.012 286.446 61.012C286.59 61.012 286.686 60.976 286.758 60.928C286.758 61.264 286.446 61.576 286.014 61.648V62.092C286.758 61.984 287.334 61.336 287.334 60.592ZM291.715 58.636C291.715 60.124 292.603 61.144 294.151 61.144C295.603 61.144 296.611 60.208 296.611 58.648V52.408H295.747V58.624C295.747 59.644 295.243 60.328 294.151 60.328C293.107 60.328 292.555 59.656 292.555 58.636V58.3H291.715V58.636ZM300.124 61.144C301.108 61.144 301.9 60.712 302.26 59.98L302.368 61H303.064V57.244C303.064 55.708 302.08 55.036 300.736 55.036C299.308 55.036 298.348 55.792 298.348 56.968H299.104C299.104 56.188 299.704 55.732 300.712 55.732C301.564 55.732 302.248 56.092 302.248 57.232V57.424L300.328 57.58C298.972 57.688 298.156 58.36 298.156 59.428C298.156 60.448 298.888 61.144 300.124 61.144ZM300.316 60.472C299.524 60.472 298.996 60.112 298.996 59.404C298.996 58.756 299.44 58.276 300.532 58.18L302.248 58.048V58.36C302.248 59.62 301.54 60.472 300.316 60.472ZM305.553 61V57.964C305.553 56.656 306.225 55.792 307.413 55.792C308.373 55.792 308.985 56.272 308.985 57.628V61H309.813V57.448C309.813 55.984 309.153 55.036 307.557 55.036C306.717 55.036 305.949 55.456 305.565 56.2L305.445 55.192H304.725V61H305.553Z" fill="#7D838D"/>
<path d="M431 8L431 64" stroke="#E3E7ED"/>
<path d="M445.604 61V60.196H441.272L443.276 58.444C444.992 56.944 445.556 56.116 445.556 54.868C445.556 53.296 444.476 52.252 442.856 52.252C441.164 52.252 440.024 53.44 439.976 55.24H440.84C440.876 53.908 441.656 53.044 442.844 53.044C443.984 53.044 444.68 53.752 444.68 54.916C444.68 55.936 444.272 56.536 442.688 57.916L439.94 60.316V61H445.604ZM452.639 59.176V58.408H451.631V52.408H450.479L446.279 58.408V59.176H450.791V61H451.631V59.176H452.639ZM447.215 58.408L450.791 53.296V58.408H447.215ZM455.334 60.592C455.334 59.992 454.962 59.644 454.53 59.644C454.11 59.644 453.822 59.944 453.822 60.364C453.822 60.772 454.11 61.012 454.446 61.012C454.59 61.012 454.686 60.976 454.758 60.928C454.758 61.264 454.446 61.576 454.014 61.648V62.092C454.758 61.984 455.334 61.336 455.334 60.592ZM459.715 58.636C459.715 60.124 460.603 61.144 462.151 61.144C463.603 61.144 464.611 60.208 464.611 58.648V52.408H463.747V58.624C463.747 59.644 463.243 60.328 462.151 60.328C461.107 60.328 460.555 59.656 460.555 58.636V58.3H459.715V58.636ZM468.124 61.144C469.108 61.144 469.9 60.712 470.26 59.98L470.368 61H471.064V57.244C471.064 55.708 470.08 55.036 468.736 55.036C467.308 55.036 466.348 55.792 466.348 56.968H467.104C467.104 56.188 467.704 55.732 468.712 55.732C469.564 55.732 470.248 56.092 470.248 57.232V57.424L468.328 57.58C466.972 57.688 466.156 58.36 466.156 59.428C466.156 60.448 466.888 61.144 468.124 61.144ZM468.316 60.472C467.524 60.472 466.996 60.112 466.996 59.404C466.996 58.756 467.44 58.276 468.532 58.18L470.248 58.048V58.36C470.248 59.62 469.54 60.472 468.316 60.472ZM473.553 61V57.964C473.553 56.656 474.225 55.792 475.413 55.792C476.373 55.792 476.985 56.272 476.985 57.628V61H477.813V57.448C477.813 55.984 477.153 55.036 475.557 55.036C474.717 55.036 473.949 55.456 473.565 56.2L473.445 55.192H472.725V61H473.553Z" fill="#7D838D"/>
<path d="M599 8L599 64" stroke="#E3E7ED"/>
<path d="M613.604 61V60.196H609.272L611.276 58.444C612.992 56.944 613.556 56.116 613.556 54.868C613.556 53.296 612.476 52.252 610.856 52.252C609.164 52.252 608.024 53.44 607.976 55.24H608.84C608.876 53.908 609.656 53.044 610.844 53.044C611.984 53.044 612.68 53.752 612.68 54.916C612.68 55.936 612.272 56.536 610.688 57.916L607.94 60.316V61H613.604ZM620.639 59.176V58.408H619.631V52.408H618.479L614.279 58.408V59.176H618.791V61H619.631V59.176H620.639ZM615.215 58.408L618.791 53.296V58.408H615.215ZM623.334 60.592C623.334 59.992 622.962 59.644 622.53 59.644C622.11 59.644 621.822 59.944 621.822 60.364C621.822 60.772 622.11 61.012 622.446 61.012C622.59 61.012 622.686 60.976 622.758 60.928C622.758 61.264 622.446 61.576 622.014 61.648V62.092C622.758 61.984 623.334 61.336 623.334 60.592ZM627.715 58.636C627.715 60.124 628.603 61.144 630.151 61.144C631.603 61.144 632.611 60.208 632.611 58.648V52.408H631.747V58.624C631.747 59.644 631.243 60.328 630.151 60.328C629.107 60.328 628.555 59.656 628.555 58.636V58.3H627.715V58.636ZM636.124 61.144C637.108 61.144 637.9 60.712 638.26 59.98L638.368 61H639.064V57.244C639.064 55.708 638.08 55.036 636.736 55.036C635.308 55.036 634.348 55.792 634.348 56.968H635.104C635.104 56.188 635.704 55.732 636.712 55.732C637.564 55.732 638.248 56.092 638.248 57.232V57.424L636.328 57.58C634.972 57.688 634.156 58.36 634.156 59.428C634.156 60.448 634.888 61.144 636.124 61.144ZM636.316 60.472C635.524 60.472 634.996 60.112 634.996 59.404C634.996 58.756 635.44 58.276 636.532 58.18L638.248 58.048V58.36C638.248 59.62 637.54 60.472 636.316 60.472ZM641.553 61V57.964C641.553 56.656 642.225 55.792 643.413 55.792C644.373 55.792 644.985 56.272 644.985 57.628V61H645.813V57.448C645.813 55.984 645.153 55.036 643.557 55.036C642.717 55.036 641.949 55.456 641.565 56.2L641.445 55.192H640.725V61H641.553Z" fill="#7D838D"/>
<path d="M767 8L767 64" stroke="#E3E7ED"/>
<path d="M781.604 61V60.196H777.272L779.276 58.444C780.992 56.944 781.556 56.116 781.556 54.868C781.556 53.296 780.476 52.252 778.856 52.252C777.164 52.252 776.024 53.44 775.976 55.24H776.84C776.876 53.908 777.656 53.044 778.844 53.044C779.984 53.044 780.68 53.752 780.68 54.916C780.68 55.936 780.272 56.536 778.688 57.916L775.94 60.316V61H781.604ZM788.639 59.176V58.408H787.631V52.408H786.479L782.279 58.408V59.176H786.791V61H787.631V59.176H788.639ZM783.215 58.408L786.791 53.296V58.408H783.215ZM791.334 60.592C791.334 59.992 790.962 59.644 790.53 59.644C790.11 59.644 789.822 59.944 789.822 60.364C789.822 60.772 790.11 61.012 790.446 61.012C790.59 61.012 790.686 60.976 790.758 60.928C790.758 61.264 790.446 61.576 790.014 61.648V62.092C790.758 61.984 791.334 61.336 791.334 60.592ZM795.715 58.636C795.715 60.124 796.603 61.144 798.151 61.144C799.603 61.144 800.611 60.208 800.611 58.648V52.408H799.747V58.624C799.747 59.644 799.243 60.328 798.151 60.328C797.107 60.328 796.555 59.656 796.555 58.636V58.3H795.715V58.636ZM804.124 61.144C805.108 61.144 805.9 60.712 806.26 59.98L806.368 61H807.064V57.244C807.064 55.708 806.08 55.036 804.736 55.036C803.308 55.036 802.348 55.792 802.348 56.968H803.104C803.104 56.188 803.704 55.732 804.712 55.732C805.564 55.732 806.248 56.092 806.248 57.232V57.424L804.328 57.58C802.972 57.688 802.156 58.36 802.156 59.428C802.156 60.448 802.888 61.144 804.124 61.144ZM804.316 60.472C803.524 60.472 802.996 60.112 802.996 59.404C802.996 58.756 803.44 58.276 804.532 58.18L806.248 58.048V58.36C806.248 59.62 805.54 60.472 804.316 60.472ZM809.553 61V57.964C809.553 56.656 810.225 55.792 811.413 55.792C812.373 55.792 812.985 56.272 812.985 57.628V61H813.813V57.448C813.813 55.984 813.153 55.036 811.557 55.036C810.717 55.036 809.949 55.456 809.565 56.2L809.445 55.192H808.725V61H809.553Z" fill="#7D838D"/>
<path d="M935 8L935 64" stroke="#E3E7ED"/>
<path d="M949.604 61V60.196H945.272L947.276 58.444C948.992 56.944 949.556 56.116 949.556 54.868C949.556 53.296 948.476 52.252 946.856 52.252C945.164 52.252 944.024 53.44 943.976 55.24H944.84C944.876 53.908 945.656 53.044 946.844 53.044C947.984 53.044 948.68 53.752 948.68 54.916C948.68 55.936 948.272 56.536 946.688 57.916L943.94 60.316V61H949.604ZM956.639 59.176V58.408H955.631V52.408H954.479L950.279 58.408V59.176H954.791V61H955.631V59.176H956.639ZM951.215 58.408L954.791 53.296V58.408H951.215ZM959.334 60.592C959.334 59.992 958.962 59.644 958.53 59.644C958.11 59.644 957.822 59.944 957.822 60.364C957.822 60.772 958.11 61.012 958.446 61.012C958.59 61.012 958.686 60.976 958.758 60.928C958.758 61.264 958.446 61.576 958.014 61.648V62.092C958.758 61.984 959.334 61.336 959.334 60.592ZM963.715 58.636C963.715 60.124 964.603 61.144 966.151 61.144C967.603 61.144 968.611 60.208 968.611 58.648V52.408H967.747V58.624C967.747 59.644 967.243 60.328 966.151 60.328C965.107 60.328 964.555 59.656 964.555 58.636V58.3H963.715V58.636ZM972.124 61.144C973.108 61.144 973.9 60.712 974.26 59.98L974.368 61H975.064V57.244C975.064 55.708 974.08 55.036 972.736 55.036C971.308 55.036 970.348 55.792 970.348 56.968H971.104C971.104 56.188 971.704 55.732 972.712 55.732C973.564 55.732 974.248 56.092 974.248 57.232V57.424L972.328 57.58C970.972 57.688 970.156 58.36 970.156 59.428C970.156 60.448 970.888 61.144 972.124 61.144ZM972.316 60.472C971.524 60.472 970.996 60.112 970.996 59.404C970.996 58.756 971.44 58.276 972.532 58.18L974.248 58.048V58.36C974.248 59.62 973.54 60.472 972.316 60.472ZM977.553 61V57.964C977.553 56.656 978.225 55.792 979.413 55.792C980.373 55.792 980.985 56.272 980.985 57.628V61H981.813V57.448C981.813 55.984 981.153 55.036 979.557 55.036C978.717 55.036 977.949 55.456 977.565 56.2L977.445 55.192H976.725V61H977.553Z" fill="#7D838D"/>
<path d="M1103 8L1103 64" stroke="#E3E7ED"/>
<path d="M1117.6 61V60.196H1113.27L1115.28 58.444C1116.99 56.944 1117.56 56.116 1117.56 54.868C1117.56 53.296 1116.48 52.252 1114.86 52.252C1113.16 52.252 1112.02 53.44 1111.98 55.24H1112.84C1112.88 53.908 1113.66 53.044 1114.84 53.044C1115.98 53.044 1116.68 53.752 1116.68 54.916C1116.68 55.936 1116.27 56.536 1114.69 57.916L1111.94 60.316V61H1117.6ZM1124.64 59.176V58.408H1123.63V52.408H1122.48L1118.28 58.408V59.176H1122.79V61H1123.63V59.176H1124.64ZM1119.21 58.408L1122.79 53.296V58.408H1119.21ZM1127.33 60.592C1127.33 59.992 1126.96 59.644 1126.53 59.644C1126.11 59.644 1125.82 59.944 1125.82 60.364C1125.82 60.772 1126.11 61.012 1126.45 61.012C1126.59 61.012 1126.69 60.976 1126.76 60.928C1126.76 61.264 1126.45 61.576 1126.01 61.648V62.092C1126.76 61.984 1127.33 61.336 1127.33 60.592ZM1131.71 58.636C1131.71 60.124 1132.6 61.144 1134.15 61.144C1135.6 61.144 1136.61 60.208 1136.61 58.648V52.408H1135.75V58.624C1135.75 59.644 1135.24 60.328 1134.15 60.328C1133.11 60.328 1132.55 59.656 1132.55 58.636V58.3H1131.71V58.636ZM1140.12 61.144C1141.11 61.144 1141.9 60.712 1142.26 59.98L1142.37 61H1143.06V57.244C1143.06 55.708 1142.08 55.036 1140.74 55.036C1139.31 55.036 1138.35 55.792 1138.35 56.968H1139.1C1139.1 56.188 1139.7 55.732 1140.71 55.732C1141.56 55.732 1142.25 56.092 1142.25 57.232V57.424L1140.33 57.58C1138.97 57.688 1138.16 58.36 1138.16 59.428C1138.16 60.448 1138.89 61.144 1140.12 61.144ZM1140.32 60.472C1139.52 60.472 1139 60.112 1139 59.404C1139 58.756 1139.44 58.276 1140.53 58.18L1142.25 58.048V58.36C1142.25 59.62 1141.54 60.472 1140.32 60.472ZM1145.55 61V57.964C1145.55 56.656 1146.23 55.792 1147.41 55.792C1148.37 55.792 1148.99 56.272 1148.99 57.628V61H1149.81V57.448C1149.81 55.984 1149.15 55.036 1147.56 55.036C1146.72 55.036 1145.95 55.456 1145.57 56.2L1145.45 55.192H1144.73V61H1145.55Z" fill="#7D838D"/>
<path d="M2 33.8806C18.9003 33.8806 35.9435 34.1536 52.8313 33.8806C61.0806 33.7472 75.3812 33.6498 82.9896 32.1191C91.3539 30.4362 100.799 27.9033 107.068 30.908C114.969 34.6953 119.741 38.5924 131.267 36.8532C141.624 35.2905 154.007 31.8989 165.074 31.8989C168.281 31.8989 169.494 29.9171 171.762 29.9171C172.542 29.9171 178.276 35.0316 178.815 35.6422C180.235 37.2488 183.8 38.2368 186.841 39.2203C188.529 39.7661 188.057 35.5312 188.057 34.8715C188.057 34.1308 192.98 35.8624 195.718 35.8624C201.601 35.8624 205.616 36.2525 211.041 36.7982C216.006 37.2977 217.424 36.0006 220.404 34.6513C223.816 33.1068 231.49 33.8806 236.092 33.8806C253.151 33.8806 270.849 34.8715 288.261 34.8715C309.015 34.8715 329.769 34.8715 350.523 34.8715C360.314 34.8715 373.923 33.7851 381.897 34.8164C388.133 35.623 389.471 30.7313 391.626 29.1464C396.436 25.6081 397.209 31.8895 399.408 33.8806C400.169 34.569 407.102 41.3153 408.65 39.8258C409.707 38.8098 407.779 36.573 410.596 36.0826C416.411 35.0701 425.723 35.8624 431.756 35.8624C440.88 35.8624 453.719 36.9616 462.644 35.8073C466.948 35.2505 464.151 31.7929 467.751 34.8715C469.024 35.9602 472.527 35.1839 475.899 35.8624C481.854 37.0606 484.588 36.892 488.91 34.3761C497.096 29.6122 501.79 37.4393 506.543 41.3122C508.353 42.7867 524.393 38.607 529.04 37.8441C539.01 36.2075 544.829 35.4862 555.064 36.4128C568.422 37.6222 582.726 39.488 595.194 42.0278C600.965 43.2033 600.638 40.9528 602.977 38.835C606.017 36.0824 608.701 34.8052 613.678 34.8715C627.44 35.0547 640.681 34.1607 654.295 33.8806C667.305 33.6129 680.434 33.9423 693.452 33.8256C727.774 33.5179 762.348 30.908 796.574 30.908C797.46 30.908 810.364 41.9948 813.112 43.2389C818.18 45.5332 819.727 42.0232 821.138 40.8167C822.683 39.4959 831.08 38.772 834.028 37.734C837.905 36.3692 860.951 26.6629 866.132 28.1556C870.695 29.4701 869.511 35.613 875.374 37.6239C880.849 39.5015 882.392 38.2941 887.413 37.7891C900.458 36.4768 913.941 34.1297 927.422 33.8806C953.38 33.401 979.899 31.3758 1006.34 30.963C1010.3 30.9012 1034.74 28.7463 1035.16 31.1282C1035.66 33.9517 1038.78 35.9493 1041.73 38.2845C1042.18 38.6395 1065.04 34.6954 1068 34.1008C1076.69 32.3515 1078.92 44.069 1094.27 40.5965C1107.25 37.6582 1119.81 36.8532 1134.76 36.8532C1159.97 36.8532 1184.98 33.8806 1210.16 33.8806C1228.39 33.8806 1246.63 34.8715 1265 34.8715" stroke="#6B38FD" stroke-linecap="square"/>
<rect x="570" width="125" height="72" fill="#6B38FD" fill-opacity="0.15"/>
<circle cx="570" cy="36" r="8" fill="#6B38FD"/>
<path fill-rule="evenodd" clip-rule="evenodd" d="M572 32.3337C572.552 32.3337 573 32.7814 573 33.3337V38.667C573 39.2193 572.552 39.667 572 39.667C571.448 39.667 571 39.2193 571 38.667V33.3337C571 32.7814 571.448 32.3337 572 32.3337ZM568 32.3337C568.552 32.3337 569 32.7814 569 33.3337V38.667C569 39.2193 568.552 39.667 568 39.667C567.448 39.667 567 39.2193 567 38.667V33.3337C567 32.7814 567.448 32.3337 568 32.3337Z" fill="white"/>
<circle cx="695" cy="36" r="8" fill="#6B38FD"/>
<path fill-rule="evenodd" clip-rule="evenodd" d="M697 32.3337C697.552 32.3337 698 32.7814 698 33.3337V38.667C698 39.2193 697.552 39.667 697 39.667C696.448 39.667 696 39.2193 696 38.667V33.3337C696 32.7814 696.448 32.3337 697 32.3337ZM693 32.3337C693.552 32.3337 694 32.7814 694 33.3337V38.667C694 39.2193 693.552 39.667 693 39.667C692.448 39.667 692 39.2193 692 38.667V33.3337C692 32.7814 692.448 32.3337 693 32.3337Z" fill="white"/>
</g>
<defs>
<clipPath id="clip0_3362_34997">
<rect width="1265" height="72" fill="white"/>
</clipPath>
</defs>
</svg>
