<svg width="164" height="56" viewBox="0 0 164 56" fill="none" xmlns="http://www.w3.org/2000/svg">
<path d="M67.9599 20.6266C67.5694 21.0171 67.5694 21.6502 67.9599 22.0408C68.3504 22.4313 68.9836 22.4313 69.3741 22.0408L67.9599 20.6266ZM76.667 13.3337L77.3741 12.6266C76.9836 12.236 76.3504 12.236 75.9599 12.6266L76.667 13.3337ZM84.667 21.3337L83.9599 22.0408C84.3504 22.4313 84.9836 22.4313 85.3741 22.0408L84.667 21.3337ZM95.3337 10.667H96.3337C96.3337 10.1147 95.8859 9.66699 95.3337 9.66699V10.667ZM90.0003 9.66699C89.448 9.66699 89.0003 10.1147 89.0003 10.667C89.0003 11.2193 89.448 11.667 90.0003 11.667V9.66699ZM94.3337 16.0003C94.3337 16.5526 94.7814 17.0003 95.3337 17.0003C95.8859 17.0003 96.3337 16.5526 96.3337 16.0003H94.3337ZM69.3741 22.0408L77.3741 14.0408L75.9599 12.6266L67.9599 20.6266L69.3741 22.0408ZM75.9599 14.0408L83.9599 22.0408L85.3741 20.6266L77.3741 12.6266L75.9599 14.0408ZM85.3741 22.0408L96.0408 11.3741L94.6266 9.95989L83.9599 20.6266L85.3741 22.0408ZM95.3337 9.66699H90.0003V11.667H95.3337V9.66699ZM94.3337 10.667V16.0003H96.3337V10.667H94.3337Z" fill="#3ED59F"/>
<path d="M73.6099 45.262C73.6099 47.67 75.1779 49.168 77.6559 49.168C80.1479 49.168 81.7159 47.656 81.7159 45.262V38.766H79.9239V45.15C79.9239 46.606 79.1119 47.432 77.6559 47.432C76.1999 47.432 75.4019 46.62 75.4019 45.15V38.766H73.6099V45.262ZM83.6681 52.206H85.3761V48.076C85.8101 48.776 86.7061 49.182 87.7421 49.182C89.8001 49.182 90.9761 47.614 90.9761 45.458C90.9761 43.288 89.6881 41.874 87.7421 41.874C86.6921 41.874 85.7821 42.336 85.3621 43.134L85.2501 42.084H83.6681V52.206ZM85.3901 45.542C85.3901 44.296 86.1601 43.428 87.3361 43.428C88.5401 43.428 89.2541 44.31 89.2541 45.542C89.2541 46.774 88.5401 47.642 87.3361 47.642C86.1601 47.642 85.3901 46.788 85.3901 45.542Z" fill="black"/>
</svg>
