<svg width="136" height="32" viewBox="0 0 136 32" fill="none" xmlns="http://www.w3.org/2000/svg">
<path d="M43.5233 7.94695H39.899L36.2545 14.1258L32.6101 7.94695H29.0059L34.7243 17.2052V23.0017H37.8251V17.2052L43.5233 7.94695Z" fill="black"/>
<path d="M46.9837 12.3949C45.7152 12.3949 44.6682 12.7774 43.8427 13.5422C43.0373 14.2869 42.6345 15.1523 42.6345 16.1184L45.5743 16.2391C45.5743 15.4945 46.0777 14.8705 47.024 14.8705C47.9301 14.8705 48.3731 15.4139 48.3731 16.4807V16.8832L46.5206 16.9838C43.742 17.1046 42.3527 18.1512 42.3527 20.1437C42.3527 22.1362 43.6614 23.2231 45.8159 23.2231C46.9032 23.2231 47.7892 22.8608 48.4738 22.1564V23.0017H51.3128V16.5813C51.3128 13.8441 49.8027 12.3949 46.9837 12.3949ZM48.3731 19.2581C48.3731 20.3249 47.6079 20.9488 46.5005 20.9488C45.6951 20.9488 45.2924 20.6267 45.2924 20.0028C45.2924 19.3185 45.7958 18.9562 46.8025 18.916L48.3731 18.8154V19.2581Z" fill="black"/>
<path d="M59.702 12.3949C58.373 12.3949 57.4468 12.8176 56.9032 13.6629V12.5962H54.1245V23.0017H57.0642V17.2253C57.0642 15.9574 57.8495 15.1322 58.9972 15.1322C60.1248 15.1322 60.8295 15.897 60.8295 17.2052V23.0017H63.7693V16.6417C63.7693 13.985 62.1383 12.3949 59.702 12.3949Z" fill="black"/>
<path d="M72.632 15.1322V12.5962H70.1957L70.2158 9.15455H67.2761L67.2559 12.5962H65.3431V15.1322H67.2358L67.2157 19.7009C67.1955 22.0356 68.6453 23.203 71.0011 23.203C71.5246 23.203 72.0683 23.1627 72.632 23.0822V20.4657C72.2495 20.5261 71.9474 20.5664 71.726 20.5664C70.8199 20.5664 70.1554 20.0632 70.1554 18.9965L70.1756 15.1322H72.632Z" fill="black"/>
<path d="M80.4102 12.4956C79.0611 12.4956 78.0947 12.9182 77.551 13.7837V12.5962H74.7119V23.0017H77.6517V17.7285C77.6517 16.2794 78.7188 15.3334 80.4102 15.3334V12.4956Z" fill="black"/>
<path d="M86.3889 12.3949C85.1204 12.3949 84.0734 12.7774 83.2478 13.5422C82.4424 14.2869 82.0397 15.1523 82.0397 16.1184L84.9795 16.2391C84.9795 15.4945 85.4829 14.8705 86.4292 14.8705C87.3353 14.8705 87.7783 15.4139 87.7783 16.4807V16.8832L85.9258 16.9838C83.1472 17.1046 81.7578 18.1512 81.7578 20.1437C81.7578 22.1362 83.0666 23.2231 85.2211 23.2231C86.3084 23.2231 87.1943 22.8608 87.8789 22.1564V23.0017H90.718V16.5813C90.718 13.8441 89.2079 12.3949 86.3889 12.3949ZM87.7783 19.2581C87.7783 20.3249 87.0131 20.9488 85.9057 20.9488C85.1003 20.9488 84.6976 20.6267 84.6976 20.0028C84.6976 19.3185 85.201 18.9562 86.2077 18.916L87.7783 18.8154V19.2581Z" fill="black"/>
<path d="M96.4694 7.36328H93.5297V23.0017H96.4694V20.2443L97.3956 19.238L100.114 23.0017H103.678L99.4696 17.0442L103.396 12.5962H99.832L96.4694 16.2995V7.36328Z" fill="black"/>
<path d="M109.316 12.3949C108.048 12.3949 107.001 12.7774 106.175 13.5422C105.37 14.2869 104.967 15.1523 104.967 16.1184L107.907 16.2391C107.907 15.4945 108.41 14.8705 109.357 14.8705C110.263 14.8705 110.706 15.4139 110.706 16.4807V16.8832L108.853 16.9838C106.075 17.1046 104.685 18.1512 104.685 20.1437C104.685 22.1362 105.994 23.2231 108.148 23.2231C109.236 23.2231 110.122 22.8608 110.806 22.1564V23.0017H113.645V16.5813C113.645 13.8441 112.135 12.3949 109.316 12.3949ZM110.706 19.2581C110.706 20.3249 109.94 20.9488 108.833 20.9488C108.028 20.9488 107.625 20.6267 107.625 20.0028C107.625 19.3185 108.128 18.9562 109.135 18.916L110.706 18.8154V19.2581Z" fill="black"/>
<path d="M116.276 20.184C115.611 20.8884 115.611 22.0155 116.276 22.7199C116.981 23.3841 118.108 23.3841 118.813 22.7199C119.518 22.0155 119.518 20.8884 118.813 20.184C118.108 19.4795 116.981 19.4795 116.276 20.184Z" fill="black"/>
<path d="M125.617 12.3949C124.349 12.3949 123.302 12.7774 122.476 13.5422C121.671 14.2869 121.268 15.1523 121.268 16.1184L124.208 16.2391C124.208 15.4945 124.711 14.8705 125.657 14.8705C126.564 14.8705 127.006 15.4139 127.006 16.4807V16.8832L125.154 16.9838C122.375 17.1046 120.986 18.1512 120.986 20.1437C120.986 22.1362 122.295 23.2231 124.449 23.2231C125.537 23.2231 126.423 22.8608 127.107 22.1564V23.0017H129.946V16.5813C129.946 13.8441 128.436 12.3949 125.617 12.3949ZM127.006 19.2581C127.006 20.3249 126.241 20.9488 125.134 20.9488C124.329 20.9488 123.926 20.6267 123.926 20.0028C123.926 19.3185 124.429 18.9562 125.436 18.916L127.006 18.8154V19.2581Z" fill="black"/>
<path d="M134.228 7.42366C132.758 7.34315 131.852 9.43633 132.979 10.4427C133.644 11.1068 134.812 11.1068 135.476 10.4427C135.818 10.1005 136 9.67785 136 9.19481C136 8.2086 135.214 7.42366 134.228 7.42366ZM135.698 12.5962H132.758V23.0017H135.698V12.5962Z" fill="black"/>
<path d="M11.5411 0H21.9281L10.387 23.0725H0L11.5411 0Z" fill="#6B38FD"/>
<path d="M18.3771 32H28.7641L17.2229 8.92753H6.83594L18.3771 32Z" fill="#51D9B8"/>
</svg>
